<svg width="2500" height="2166" viewBox="0 0 2500 2166" fill="none" xmlns="http://www.w3.org/2000/svg">
<path fill-rule="evenodd" clip-rule="evenodd" d="M1606.87 2090.03H849.229V2163.32H626.919V2090.03H2.08984V48.681H621.509V3H1131.21V48.681H1356.78V3.94098H1866.49V48.681H2497.02V2090.03H1829.18V2157.36H1606.87V2090.03Z" stroke="#818181" stroke-width="4.15" stroke-miterlimit="1.5" stroke-linecap="round" stroke-linejoin="round"/>
<path fill-rule="evenodd" clip-rule="evenodd" d="M2.09082 1754.76V47.946H621.105V3H1867.23V47.946H2493.48V728.48L2497.01 1759.98L1826.93 1758.75H1669.24V728.48H782.905V1758.75L630.225 1758.2L2.09082 1754.76Z" fill="#DFDFDF" stroke="#818181" stroke-width="4.15" stroke-miterlimit="1.5" stroke-linecap="round" stroke-linejoin="round"/>
<path d="M1829.07 3H1357V426.916H1829.07V3Z" fill="#A0D8C8" stroke="#818181" stroke-width="4.15" stroke-miterlimit="1.5" stroke-linecap="round" stroke-linejoin="round"/>
<path d="M728.052 3.41602H621.001V401.527H728.052V3.41602Z" fill="white" stroke="#818181" stroke-width="4.15" stroke-miterlimit="1.5" stroke-linecap="round" stroke-linejoin="round"/>
<path d="M1128.76 178.697H914.548V436.951H1128.76V178.697Z" fill="#9D9994" stroke="#818181" stroke-width="4.15" stroke-miterlimit="1.5" stroke-linecap="round" stroke-linejoin="round"/>
<path d="M1047.14 3.41406H914.554V178.692H1047.14V3.41406Z" fill="white" stroke="#818181" stroke-width="4.15" stroke-miterlimit="1.5" stroke-linecap="round" stroke-linejoin="round"/>
<path d="M914.498 3H728.001V400.994H914.498V3Z" fill="#ECCDB0" stroke="#818181" stroke-width="4.15" stroke-miterlimit="1.5" stroke-linecap="round" stroke-linejoin="round"/>
<path d="M621.429 48H4.00098V728.506H621.429V48Z" fill="#D4DBB5" stroke="#818181" stroke-width="4.15" stroke-miterlimit="1.5" stroke-linecap="round" stroke-linejoin="round"/>
<path d="M620.699 729H237.001V989.259H620.699V729Z" fill="#D4DBB5" stroke="#818181" stroke-width="4.15" stroke-miterlimit="1.5" stroke-linecap="round" stroke-linejoin="round"/>
<path fill-rule="evenodd" clip-rule="evenodd" d="M3.85547 1292.6V729H236.799V989H427.855H526.855L621.001 989V1292.6L3.85547 1292.6Z" fill="#D4DBB5" stroke="#818181" stroke-width="4.15" stroke-miterlimit="1.5" stroke-linecap="round" stroke-linejoin="round"/>
<path fill-rule="evenodd" clip-rule="evenodd" d="M1578.92 729.75V1154.06H1423.15V1154.11H1067.76V1153.91H903.055V729.75H1094.15V887.26H1383.93V732.9V729.75H1578.92Z" fill="#F0EEE1" stroke="#818181" stroke-width="4.15" stroke-miterlimit="1.5" stroke-linecap="round" stroke-linejoin="round"/>
<path d="M849.001 1757H621.001V2163.58H849.001V1757Z" fill="#ECCDB0" stroke="#818181" stroke-width="4.15" stroke-miterlimit="1.5" stroke-linecap="round" stroke-linejoin="round"/>
<path d="M1827 1759H1605V2158.51H1827V1759Z" fill="#ECCDB0" stroke="#818181" stroke-width="4.15" stroke-miterlimit="1.5" stroke-linecap="round" stroke-linejoin="round"/>
<path d="M621.001 1292H4.00098V2091H621.001V1292Z" fill="#D4DBB5" stroke="#818181" stroke-width="4.15" stroke-miterlimit="1.5" stroke-linecap="round" stroke-linejoin="round"/>
<path d="M2497 1568.45H1829V2091H2497V1568.45Z" fill="#D4DBB5" stroke="#818181" stroke-width="4.15" stroke-miterlimit="1.5" stroke-linecap="round" stroke-linejoin="round"/>
<path d="M2497 48H1829V567.076H2497V48Z" fill="#D4DBB5" stroke="#818181" stroke-width="4.15" stroke-miterlimit="1.5" stroke-linecap="round" stroke-linejoin="round"/>
<path d="M2497 567.074H1829V1050.44H2497V567.074Z" fill="#D4DBB5" stroke="#818181" stroke-width="4.15" stroke-miterlimit="1.5" stroke-linecap="round" stroke-linejoin="round"/>
<path d="M2497 1050.45H1829V1568.45H2497V1050.45Z" fill="#D4DBB5" stroke="#818181" stroke-width="4.15" stroke-miterlimit="1.5" stroke-linecap="round" stroke-linejoin="round"/>
</svg>
