<svg width="2503" height="2175" viewBox="0 0 2503 2175" fill="none" xmlns="http://www.w3.org/2000/svg">
<path fill-rule="evenodd" clip-rule="evenodd" d="M1608.82 2093.59H851.163V2167H628.847V2093.59H4V48.7589H623.437V3H1133.15V48.7589H1358.73V3.94258H1868.45V48.7589H2499V2093.59H1828.55V2161.03H1608.82V2093.59Z" fill="#DFDFDF" stroke="#818181" stroke-width="4.15" stroke-miterlimit="1.5" stroke-linecap="round" stroke-linejoin="round"/>
<path fill-rule="evenodd" clip-rule="evenodd" d="M2000.2 1417.94L1829 1418.52V1044.76L2000.2 1045.37V743H2500.1V1529.66H2115.97V1529.71L2000.2 1530.37V1417.94Z" fill="#D6DDF1" stroke="#818181" stroke-width="4.15" stroke-miterlimit="1.5" stroke-linecap="round" stroke-linejoin="round"/>
<path d="M1620.39 1217.08H1608.64V1768H1620.39V1217.08Z" fill="white" stroke="#818181" stroke-width="4.15" stroke-miterlimit="1.5" stroke-linecap="round" stroke-linejoin="round"/>
<path d="M730 3H608V405H730V3Z" fill="white" stroke="#818181" stroke-width="4.15" stroke-miterlimit="1.5" stroke-linecap="round" stroke-linejoin="round"/>
<path d="M850.782 1217.08H839.032V1768H850.782V1217.08Z" fill="white" stroke="#818181" stroke-width="4.15" stroke-miterlimit="1.5" stroke-linecap="round" stroke-linejoin="round"/>
<path d="M628.694 1057.94H616.944V1588.22H628.694V1057.94Z" fill="white" stroke="#818181" stroke-width="4.15" stroke-miterlimit="1.5" stroke-linecap="round" stroke-linejoin="round"/>
<path d="M1731.54 1057.94H1719.79V1608.86H1731.54V1057.94Z" fill="#DFDFDF" stroke="#818181" stroke-width="4.15" stroke-miterlimit="1.5" stroke-linecap="round" stroke-linejoin="round"/>
<path fill-rule="evenodd" clip-rule="evenodd" d="M1991.35 2095.29V2095.33H1827L1828.83 1420.8L1999.49 1420L1999.59 1531.74L2500 1532.25V2095.29H1991.35Z" fill="#D6DDF1" stroke="#818181" stroke-width="4.15" stroke-miterlimit="1.5" stroke-linecap="round" stroke-linejoin="round"/>
<path d="M663.146 50H460V405H663.146V50Z" fill="#D6DDF1" stroke="#818181" stroke-width="4.15" stroke-miterlimit="1.5" stroke-linecap="round" stroke-linejoin="round"/>
<path fill-rule="evenodd" clip-rule="evenodd" d="M455.273 738.48H4V50H461.391V579.847H616.294V738.642L455.273 738.48Z" fill="#D6DDF1" stroke="#818181" stroke-width="4.15" stroke-miterlimit="1.5" stroke-linecap="round" stroke-linejoin="round"/>
<path d="M440.429 739H4V1242H440.429V739Z" fill="#D6DDF1" stroke="#818181" stroke-width="4.15" stroke-miterlimit="1.5" stroke-linecap="round" stroke-linejoin="round"/>
<path d="M440.332 1242H4V1583.69H440.332V1242Z" fill="#D6DDF1" stroke="#818181" stroke-width="4.15" stroke-miterlimit="1.5" stroke-linecap="round" stroke-linejoin="round"/>
<path d="M628.837 1583L3 1583V2093.78L628.837 2093.78V1583Z" fill="#D6DDF1" stroke="#818181" stroke-width="4.15" stroke-miterlimit="1.5" stroke-linecap="round" stroke-linejoin="round"/>
<path d="M1827.11 4H1358V433H1827.11V4Z" fill="#A0D8C8" stroke="#818181" stroke-width="4.15" stroke-miterlimit="1.5" stroke-linecap="round" stroke-linejoin="round"/>
<path d="M915.497 4H729V405H915.497V4Z" fill="#ECCDB0" stroke="#818181" stroke-width="4.15" stroke-miterlimit="1.5" stroke-linecap="round" stroke-linejoin="round"/>
<path d="M850.854 1766.42H628.854V2172H850.854V1766.42Z" fill="#ECCDB0" stroke="#818181" stroke-width="4.15" stroke-miterlimit="1.5" stroke-linecap="round" stroke-linejoin="round"/>
<path d="M1828.42 1768H1609V2165.51H1828.42V1768Z" fill="#ECCDB0" stroke="#818181" stroke-width="4.15" stroke-miterlimit="1.5" stroke-linecap="round" stroke-linejoin="round"/>
<path fill-rule="evenodd" clip-rule="evenodd" d="M1719.79 1068.95L1579.91 1069.89L1579.9 1057.93H1731.54V1608.85H1719.79V1068.95Z" fill="white" stroke="#818181" stroke-width="4.15" stroke-miterlimit="1.5" stroke-linecap="round" stroke-linejoin="round"/>
<path fill-rule="evenodd" clip-rule="evenodd" d="M742.48 1068.95L903.368 1069.89L903.38 1057.93H728.965V1608.85H742.48V1068.95Z" fill="white" stroke="#818181" stroke-width="4.15" stroke-miterlimit="1.5" stroke-linecap="round" stroke-linejoin="round"/>
<path d="M2499.85 743H1827V601.797H1999.96V432.553H1827V49H2499.85V743Z" fill="#D6DDF1"/>
<path d="M2499.85 743V745.075H2501.93V743H2499.85ZM1827 743H1824.92V745.075H1827V743ZM1827 601.797V599.722H1824.92V601.797H1827ZM1999.96 601.797V603.872H2002.04V601.797H1999.96ZM1999.96 432.553H2002.04V430.478H1999.96V432.553ZM1827 432.553H1824.92V434.628H1827V432.553ZM1827 49V46.925H1824.92V49H1827ZM2499.85 49H2501.93V46.925H2499.85V49ZM2499.85 743V740.925H1827V743V745.075H2499.85V743ZM1827 743H1829.08V601.797H1827H1824.92V743H1827ZM1827 601.797V603.872H1999.96V601.797V599.722H1827V601.797ZM1999.96 601.797H2002.04V432.553H1999.96H1997.89V601.797H1999.96ZM1999.96 432.553V430.478H1827V432.553V434.628H1999.96V432.553ZM1827 432.553H1829.08V49H1827H1824.92V432.553H1827ZM1827 49V51.075H2499.85V49V46.925H1827V49ZM2499.85 49H2497.78V743H2499.85H2501.93V49H2499.85Z" fill="#818181"/>
<path d="M1130.07 182.697H915.854V440.951H1130.07V182.697Z" fill="#9D9994" stroke="#818181" stroke-width="4.15" stroke-miterlimit="1.5" stroke-linecap="round" stroke-linejoin="round"/>
<path d="M1048.44 4H915.861V182.692H1048.44V4Z" fill="white" stroke="#818181" stroke-width="4.15" stroke-miterlimit="1.5" stroke-linecap="round" stroke-linejoin="round"/>
<path fill-rule="evenodd" clip-rule="evenodd" d="M1579.83 738.75V1163.06H1424.06V1163.11H1068.67V1162.91H903.964V738.75H1095.06V896.26H1384.84V741.9V738.75H1579.83Z" fill="#F0EEE1" stroke="#818181" stroke-width="4.15" stroke-miterlimit="1.5" stroke-linecap="round" stroke-linejoin="round"/>
</svg>
