<svg width="2500" height="2167" viewBox="0 0 2500 2167" fill="none" xmlns="http://www.w3.org/2000/svg">
<path fill-rule="evenodd" clip-rule="evenodd" d="M1607 2090.03H849.362V2163.32H627.052V2090.03H2.22266V48.681H621.642V3H1131.34V48.681H1356.91V3.94098H1866.62V48.681H2497.15V2090.03H1829.31V2157.36H1607V2090.03Z" stroke="#818181" stroke-width="4.15" stroke-miterlimit="1.5" stroke-linecap="round" stroke-linejoin="round"/>
<path fill-rule="evenodd" clip-rule="evenodd" d="M2.22266 1754.76V47.946H621.237V3H1867.37V47.946H2493.62V728.48L2497.15 1759.98L1827.07 1758.75H1669.38V728.48H783.037V1758.75L630.357 1758.2L2.22266 1754.76Z" fill="#DFDFDF" stroke="#818181" stroke-width="4.15" stroke-miterlimit="1.5" stroke-linecap="round" stroke-linejoin="round"/>
<path d="M2496.63 48.5107H1830V576.375H2496.63V48.5107Z" fill="#D4DBB5" stroke="#818181" stroke-width="4.15" stroke-miterlimit="1.5" stroke-linecap="round" stroke-linejoin="round"/>
<path d="M2496.63 576.375H1830V1058.56H2496.63V576.375Z" fill="#D4DBB5" stroke="#818181" stroke-width="4.15" stroke-miterlimit="1.5" stroke-linecap="round" stroke-linejoin="round"/>
<path d="M622 575.705H2.5V1067.63H622V575.705Z" fill="#D4DBB5" stroke="#818181" stroke-width="4.15" stroke-miterlimit="1.5" stroke-linecap="round" stroke-linejoin="round"/>
<path d="M2497.16 1058.56H1830V1581.66H2497.16V1058.56Z" fill="#D4DBB5" stroke="#818181" stroke-width="4.15" stroke-miterlimit="1.5" stroke-linecap="round" stroke-linejoin="round"/>
<path d="M622 1067.63H2.5V1581.65H622V1067.63Z" fill="#D4DBB5" stroke="#818181" stroke-width="4.15" stroke-miterlimit="1.5" stroke-linecap="round" stroke-linejoin="round"/>
<path d="M2497.16 1581.61H1830V2089.19H2497.16V1581.61Z" fill="#D4DBB5" stroke="#818181" stroke-width="4.15" stroke-miterlimit="1.5" stroke-linecap="round" stroke-linejoin="round"/>
<path d="M622 1580.58H2.5V2089.19H622V1580.58Z" fill="#D4DBB5" stroke="#818181" stroke-width="4.15" stroke-miterlimit="1.5" stroke-linecap="round" stroke-linejoin="round"/>
<path d="M1829.93 3H1357V426.916H1829.93V3Z" fill="#A0D8C8" stroke="#818181" stroke-width="4.15" stroke-miterlimit="1.5" stroke-linecap="round" stroke-linejoin="round"/>
<path d="M728.185 3.41602H622V401.527H728.185V3.41602Z" fill="white" stroke="#818181" stroke-width="4.15" stroke-miterlimit="1.5" stroke-linecap="round" stroke-linejoin="round"/>
<path d="M622 48H2.5V575.705H622V48Z" fill="#D4DBB5" stroke="#818181" stroke-width="4.15" stroke-miterlimit="1.5" stroke-linecap="round" stroke-linejoin="round"/>
<path d="M1128.9 178.697H914.681V436.951H1128.9V178.697Z" fill="#9D9994" stroke="#818181" stroke-width="4.15" stroke-miterlimit="1.5" stroke-linecap="round" stroke-linejoin="round"/>
<path d="M1047.27 3.41406H914.687V178.692H1047.27V3.41406Z" fill="white" stroke="#818181" stroke-width="4.15" stroke-miterlimit="1.5" stroke-linecap="round" stroke-linejoin="round"/>
<path d="M914.497 3H728V400.994H914.497V3Z" fill="#ECCDB0" stroke="#818181" stroke-width="4.15" stroke-miterlimit="1.5" stroke-linecap="round" stroke-linejoin="round"/>
<path fill-rule="evenodd" clip-rule="evenodd" d="M1579.06 729.75V1154.06H1423.29V1154.11H1067.9V1153.91H903.188V729.75H1094.29V887.26H1384.07V732.9V729.75H1579.06Z" fill="#F0EEE1" stroke="#818181" stroke-width="4.15" stroke-miterlimit="1.5" stroke-linecap="round" stroke-linejoin="round"/>
<path d="M849 1758H622V2164H849V1758Z" fill="#ECCDB0" stroke="#818181" stroke-width="4.15" stroke-miterlimit="1.5" stroke-linecap="round" stroke-linejoin="round"/>
<path d="M1830.2 1759H1608V2157.51H1830.2V1759Z" fill="#ECCDB0" stroke="#818181" stroke-width="4.15" stroke-miterlimit="1.5" stroke-linecap="round" stroke-linejoin="round"/>
</svg>
