<svg width="2501" height="2166" viewBox="0 0 2501 2166" fill="none" xmlns="http://www.w3.org/2000/svg">
<path fill-rule="evenodd" clip-rule="evenodd" d="M1607.94 2090.03H844V2126.5V2162L627.989 2163.32V2090.03H3.16016V48.681H622.579V3H1132.28V48.681H1357.85V3.94098H1867.56V48.681H2498.09V2090.03L1828 2088V2157.36H1607.94V2090.03Z" stroke="#818181" stroke-width="4.15" stroke-miterlimit="1.5" stroke-linecap="round" stroke-linejoin="round"/>
<path d="M915.619 3.41602H729.122V401.41H915.619V3.41602Z" fill="white" stroke="#818181" stroke-width="4.15" stroke-miterlimit="1.5" stroke-linecap="round" stroke-linejoin="round"/>
<path fill-rule="evenodd" clip-rule="evenodd" d="M2.85449 1754.78V47.9465H620.698V3H1868V47.9465L2493.33 47.9465V728.488L2496.85 1760L1824.25 1758.77H1666.86V728.488H782.193V1758.77L629.801 1758.22L2.85449 1754.78Z" fill="#DFDFDF" stroke="#818181" stroke-width="4.15" stroke-miterlimit="1.5" stroke-linecap="round" stroke-linejoin="round"/>
<path d="M1827.11 3H1358V426.916H1827.11V3Z" fill="#A0D8C8" stroke="#818181" stroke-width="4.15" stroke-miterlimit="1.5" stroke-linecap="round" stroke-linejoin="round"/>
<path d="M729.123 3.41602H621V401.527H729.123V3.41602Z" fill="white" stroke="#818181" stroke-width="4.15" stroke-miterlimit="1.5" stroke-linecap="round" stroke-linejoin="round"/>
<path d="M1129.83 178.697H915.618V436.951H1129.83V178.697Z" fill="white" stroke="#818181" stroke-width="4.15" stroke-miterlimit="1.5" stroke-linecap="round" stroke-linejoin="round"/>
<path d="M1048.21 3.41406H915.624V178.692H1048.21V3.41406Z" fill="white" stroke="#818181" stroke-width="4.15" stroke-miterlimit="1.5" stroke-linecap="round" stroke-linejoin="round"/>
<path d="M915.497 3H729V400.994H915.497V3Z" fill="#ECCDB0" stroke="#818181" stroke-width="4.15" stroke-miterlimit="1.5" stroke-linecap="round" stroke-linejoin="round"/>
<path d="M620.861 49H4V2089.2H620.861V49Z" fill="#FFC1C0" stroke="#818181" stroke-width="4.15" stroke-miterlimit="1.5" stroke-linecap="round" stroke-linejoin="round"/>
<path d="M1129.83 178.697H915.618V436.951H1129.83V178.697Z" fill="#9D9994" stroke="#818181" stroke-width="4.15" stroke-miterlimit="1.5" stroke-linecap="round" stroke-linejoin="round"/>
<path d="M1048.21 3.41406H915.624V178.692H1048.21V3.41406Z" fill="white" stroke="#818181" stroke-width="4.15" stroke-miterlimit="1.5" stroke-linecap="round" stroke-linejoin="round"/>
<path fill-rule="evenodd" clip-rule="evenodd" d="M1579.99 729.75V1154.06H1424.22V1154.11H1068.83V1153.91H904.125V729.75H1095.22V887.26H1385.01V732.9V729.75H1579.99Z" fill="#F0EEE1" stroke="#818181" stroke-width="4.15" stroke-miterlimit="1.5" stroke-linecap="round" stroke-linejoin="round"/>
<path d="M843.823 1757H621V2163H843.823V1757Z" fill="#ECCDB0" stroke="#818181" stroke-width="4.15" stroke-miterlimit="1.5" stroke-linecap="round" stroke-linejoin="round"/>
<path d="M1827 1759H1605V2158H1827V1759Z" fill="#ECCDB0" stroke="#818181" stroke-width="4.15" stroke-miterlimit="1.5" stroke-linecap="round" stroke-linejoin="round"/>
<path d="M2496.97 1568H1827V2087.99H2496.97V1568Z" fill="#D4DBB5" stroke="#818181" stroke-width="4.15" stroke-miterlimit="1.5" stroke-linecap="round" stroke-linejoin="round"/>
<path d="M2497.85 48H1827V551H2497.85V48Z" fill="#D4DBB5" stroke="#818181" stroke-width="4.15" stroke-miterlimit="1.5" stroke-linecap="round" stroke-linejoin="round"/>
<path d="M2496.99 551.015H1827.18V1058.45H2496.99V551.015Z" fill="#D4DBB5" stroke="#818181" stroke-width="4.15" stroke-miterlimit="1.5" stroke-linecap="round" stroke-linejoin="round"/>
<path d="M2496.99 1058.45H1827.18V1568.45H2496.99V1058.45Z" fill="#D4DBB5" stroke="#818181" stroke-width="4.15" stroke-miterlimit="1.5" stroke-linecap="round" stroke-linejoin="round"/>
</svg>
