<svg width="2501" height="2167" viewBox="0 0 2501 2167" fill="none" xmlns="http://www.w3.org/2000/svg">
<path fill-rule="evenodd" clip-rule="evenodd" d="M1608.14 2090.03H850.501V2163.32H628.191V2090.03H3.3623V48.681H622.781V3H1132.48V48.681H1358.05V3.94098H1867.76V48.681H2498.29V2090.03H1830.45V2157.36H1608.14V2090.03Z" stroke="#818181" stroke-width="4.15" stroke-miterlimit="1.5" stroke-linecap="round" stroke-linejoin="round"/>
<path fill-rule="evenodd" clip-rule="evenodd" d="M622 728.48H3.36279V47.946H622.377V3H1868.51V47.946H2494.76V728.48H1830.35V1758.75H1670.52V728.48H784.177V1758.75H622V728.48Z" fill="#DFDFDF" stroke="#818181" stroke-width="4.15" stroke-miterlimit="1.5" stroke-linecap="round" stroke-linejoin="round"/>
<path d="M2498.44 47.9824L1831 44.0001L1830 730.982H2498.44V47.9824Z" fill="#D4DBB5" stroke="#818181" stroke-width="4.15" stroke-miterlimit="1.5" stroke-linecap="round" stroke-linejoin="round"/>
<path d="M729.307 3.41602H623.725V401.527H729.307V3.41602Z" fill="white" stroke="#818181" stroke-width="4.15" stroke-miterlimit="1.5" stroke-linecap="round" stroke-linejoin="round"/>
<path d="M730.256 3.41602H622V401.527H730.256V3.41602Z" fill="white" stroke="#818181" stroke-width="4.15" stroke-miterlimit="1.5" stroke-linecap="round" stroke-linejoin="round"/>
<path d="M621.646 48H3V2088.66H621.646V48Z" fill="#FFC1C0" stroke="#818181" stroke-width="4.15" stroke-miterlimit="1.5" stroke-linecap="round" stroke-linejoin="round"/>
<path d="M2498.15 730H1830V1371H2498.15V730Z" fill="#D4DBB5" stroke="#818181" stroke-width="4.15" stroke-miterlimit="1.5" stroke-linecap="round" stroke-linejoin="round"/>
<path d="M2498.15 1371H1830V2090H2498.15V1371Z" fill="#D4DBB5" stroke="#818181" stroke-width="4.15" stroke-miterlimit="1.5" stroke-linecap="round" stroke-linejoin="round"/>
<path d="M1829.88 3H1358V426.916H1829.88V3Z" fill="#A0D8C8" stroke="#818181" stroke-width="4.15" stroke-miterlimit="1.5" stroke-linecap="round" stroke-linejoin="round"/>
<path d="M915.497 3H729V401.41H915.497V3Z" fill="#ECCDB0" stroke="#818181" stroke-width="4.15" stroke-miterlimit="1.5" stroke-linecap="round" stroke-linejoin="round"/>
<path d="M1130.04 178.697H915.82V436.951H1130.04V178.697Z" fill="#9D9994" stroke="#818181" stroke-width="4.15" stroke-miterlimit="1.5" stroke-linecap="round" stroke-linejoin="round"/>
<path d="M1048.41 3H915.827V178.692H1048.41V3Z" fill="white" stroke="#818181" stroke-width="4.15" stroke-miterlimit="1.5" stroke-linecap="round" stroke-linejoin="round"/>
<path fill-rule="evenodd" clip-rule="evenodd" d="M1580.2 728.75V1153.06H1424.43V1153.11H1069.04V1152.91H904.327V728.75H1095.43V886.26H1385.21V731.9V728.75H1580.2Z" fill="#F0EEE1" stroke="#818181" stroke-width="4.15" stroke-miterlimit="1.5" stroke-linecap="round" stroke-linejoin="round"/>
<path d="M852 1757H622V2164H852V1757Z" fill="#ECCDB0" stroke="#818181" stroke-width="4.15" stroke-miterlimit="1.5" stroke-linecap="round" stroke-linejoin="round"/>
<path d="M1830 1759H1608V2157H1830V1759Z" fill="#ECCDB0" stroke="#818181" stroke-width="4.15" stroke-miterlimit="1.5" stroke-linecap="round" stroke-linejoin="round"/>
</svg>
