<svg width="2501" height="2166" viewBox="0 0 2501 2166" fill="none" xmlns="http://www.w3.org/2000/svg">
<path fill-rule="evenodd" clip-rule="evenodd" d="M1607.63 2090.03H849.994V2163.32H627.683V2090.03H2.85449V48.681H622.273V3H1131.97V48.681H1357.54V3.94098H1867.25V48.681H2497.78V2090.03H1827.35V2157.36H1607.63V2090.03Z" fill="#DFDFDF" stroke="#999999" stroke-width="4.15" stroke-miterlimit="1.5" stroke-linecap="round" stroke-linejoin="round"/>
<path fill-rule="evenodd" clip-rule="evenodd" d="M623.316 500.664H215.61V403.342H781.226V580.224H1668.47V429.648H1826.39L1827.4 735.806L1384.76 730.796V889.716H1094.34V730.796L623.776 735.016L623.316 500.664Z" fill="#DFDFDF" stroke="#999999" stroke-width="4.15" stroke-miterlimit="1.5" stroke-linecap="round" stroke-linejoin="round"/>
<path d="M726.396 4.00195L726.502 4.00684L726.585 4.0127L726.822 4.04785C727.991 4.27909 728.872 5.30852 728.872 6.54492V400.478L728.858 400.738C728.728 402.021 727.645 403.022 726.328 403.022H658.773V57.4395C658.773 56.6648 658.184 56.0272 657.43 55.9502L657.276 55.9424H621.854V6.54492L621.856 6.47656L621.861 6.37012L621.867 6.28711L621.902 6.0498C622.133 4.87978 623.164 4 624.399 4H726.327C726.35 4 726.373 4.00091 726.396 4.00195Z" fill="white"/>
<path d="M726.396 4.00195L726.491 1.92913L726.49 1.92911L726.396 4.00195ZM726.502 4.00684L726.648 1.93699C726.631 1.93579 726.614 1.9348 726.597 1.93402L726.502 4.00684ZM726.585 4.0127L726.889 1.9601C726.837 1.95233 726.784 1.94658 726.731 1.94285L726.585 4.0127ZM726.822 4.04785L727.225 2.01228C727.192 2.00582 727.159 2.00014 727.126 1.99525L726.822 4.04785ZM728.872 400.478L730.944 400.586C730.946 400.55 730.947 400.514 730.947 400.478H728.872ZM728.858 400.738L730.923 400.949C730.926 400.915 730.929 400.881 730.931 400.847L728.858 400.738ZM726.328 403.022V405.097H726.329L726.328 403.022ZM658.773 403.022H656.698C656.698 404.168 657.627 405.097 658.773 405.097V403.022ZM657.43 55.9502L657.64 53.8859C657.605 53.8824 657.57 53.8797 657.535 53.8779L657.43 55.9502ZM657.276 55.9424L657.382 53.8701C657.347 53.8683 657.312 53.8674 657.276 53.8674V55.9424ZM621.854 55.9424H619.779C619.779 57.0884 620.709 58.0174 621.854 58.0174V55.9424ZM621.854 6.54492L619.78 6.48566C619.78 6.50541 619.779 6.52517 619.779 6.54492H621.854ZM621.856 6.47656L619.784 6.38148C619.783 6.39342 619.783 6.40536 619.782 6.4173L621.856 6.47656ZM621.861 6.37012L619.791 6.22401C619.79 6.24101 619.789 6.25801 619.789 6.27503L621.861 6.37012ZM621.867 6.28711L619.815 5.98302C619.807 6.03544 619.801 6.08814 619.797 6.141L621.867 6.28711ZM621.902 6.0498L619.867 5.64764C619.86 5.68019 619.855 5.71289 619.85 5.74572L621.902 6.0498ZM726.396 4.00195L726.3 6.07477L726.407 6.07966L726.502 4.00684L726.597 1.93402L726.491 1.92913L726.396 4.00195ZM726.502 4.00684L726.356 6.07669L726.439 6.08255L726.585 4.0127L726.731 1.94285L726.648 1.93699L726.502 4.00684ZM726.585 4.0127L726.281 6.06529L726.518 6.10045L726.822 4.04785L727.126 1.99525L726.889 1.9601L726.585 4.0127ZM726.822 4.04785L726.42 6.08342C726.637 6.12631 726.797 6.3192 726.797 6.54492H728.872H730.947C730.947 4.29784 729.346 2.43186 727.225 2.01228L726.822 4.04785ZM728.872 6.54492H726.797V400.478H728.872H730.947V6.54492H728.872ZM728.872 400.478L726.8 400.369L726.786 400.63L728.858 400.738L730.931 400.847L730.944 400.586L728.872 400.478ZM728.858 400.738L726.794 400.528C726.77 400.763 726.569 400.947 726.327 400.947L726.328 403.022L726.329 405.097C728.721 405.096 730.685 403.279 730.923 400.949L728.858 400.738ZM726.328 403.022V400.947H658.773V403.022V405.097H726.328V403.022ZM658.773 403.022H660.848V57.4395H658.773H656.698V403.022H658.773ZM658.773 57.4395H660.848C660.848 55.5885 659.442 54.0698 657.64 53.8859L657.43 55.9502L657.219 58.0145C656.926 57.9846 656.698 57.741 656.698 57.4395H658.773ZM657.43 55.9502L657.535 53.8779L657.382 53.8701L657.276 55.9424L657.171 58.0147L657.324 58.0225L657.43 55.9502ZM657.276 55.9424V53.8674H621.854V55.9424V58.0174H657.276V55.9424ZM621.854 55.9424H623.929V6.54492H621.854H619.779V55.9424H621.854ZM621.854 6.54492L623.929 6.60418L623.931 6.53582L621.856 6.47656L619.782 6.4173L619.78 6.48566L621.854 6.54492ZM621.856 6.47656L623.929 6.57165L623.934 6.4652L621.861 6.37012L619.789 6.27503L619.784 6.38148L621.856 6.47656ZM621.861 6.37012L623.931 6.51622L623.937 6.43322L621.867 6.28711L619.797 6.141L619.791 6.22401L621.861 6.37012ZM621.867 6.28711L623.92 6.5912L623.955 6.35389L621.902 6.0498L619.85 5.74572L619.815 5.98302L621.867 6.28711ZM621.902 6.0498L623.938 6.45197C623.981 6.23565 624.173 6.075 624.399 6.075V4V1.925C622.154 1.925 620.286 3.52391 619.867 5.64764L621.902 6.0498ZM624.399 4V6.075H726.327V4V1.925H624.399V4ZM726.327 4V6.075C726.311 6.075 726.3 6.07469 726.296 6.07456C726.293 6.07445 726.292 6.07441 726.301 6.0748L726.396 4.00195L726.49 1.92911C726.464 1.92793 726.401 1.925 726.327 1.925V4Z" fill="#999999"/>
<path d="M662.239 49H437V403H662.239V49Z" fill="#D6DDF1" stroke="#999999" stroke-width="4.15" stroke-miterlimit="1.5" stroke-linecap="round" stroke-linejoin="round"/>
<path d="M436.419 49H216V403.029H436.419V49Z" fill="#D6DDF1" stroke="#999999" stroke-width="4.15" stroke-miterlimit="1.5" stroke-linecap="round" stroke-linejoin="round"/>
<path d="M623.874 499H216V734.478H623.874V499Z" fill="#D6DDF1" stroke="#999999" stroke-width="4.15" stroke-miterlimit="1.5" stroke-linecap="round" stroke-linejoin="round"/>
<mask id="mask0_417_9023" style="mask-type:luminance" maskUnits="userSpaceOnUse" x="1811" y="46" width="690" height="693">
<path d="M2498.41 49H1814V736H2498.41V49Z" fill="white" stroke="white" stroke-width="4.15"/>
</mask>
<g mask="url(#mask0_417_9023)">
<path fill-rule="evenodd" clip-rule="evenodd" d="M2063.79 572.884H1827.86V49H2498.41V572.884H2498.36V735.997H2063.79V572.884Z" fill="#D6DDF1" stroke="#999999" stroke-width="4.15" stroke-miterlimit="1.5" stroke-linecap="round" stroke-linejoin="round"/>
</g>
<path d="M216.114 49H3V734.567H216.114V49Z" fill="#D6DDF1" stroke="#999999" stroke-width="4.15" stroke-miterlimit="1.5" stroke-linecap="round" stroke-linejoin="round"/>
<path fill-rule="evenodd" clip-rule="evenodd" d="M1580.27 731.253V1155.56H1424.5V1155.61H1069.11V1155.41H904.397V731.253H1095.5V888.763H1385.28V734.403V731.253H1580.27Z" fill="#F0EEE1" stroke="#999999" stroke-width="4.15" stroke-miterlimit="1.5" stroke-linecap="round" stroke-linejoin="round"/>
<path d="M1827.11 5H1358V428.916H1827.11V5Z" fill="#A0D8C8" stroke="#999999" stroke-width="4.15" stroke-miterlimit="1.5" stroke-linecap="round" stroke-linejoin="round"/>
<path d="M2063.6 569H1827V736H2063.6V569Z" fill="#D6DDF1" stroke="#999999" stroke-width="4.15" stroke-miterlimit="1.5" stroke-linecap="round" stroke-linejoin="round"/>
<path d="M1093 731H1400" stroke="#999999" stroke-width="4.15" stroke-miterlimit="1.5" stroke-linecap="round" stroke-linejoin="round"/>
</svg>
