<svg width="2501" height="2167" viewBox="0 0 2501 2167" fill="none" xmlns="http://www.w3.org/2000/svg">
<path fill-rule="evenodd" clip-rule="evenodd" d="M1608.07 2090.03H850.432V2163.32H628.122V2090.03H3.29346V48.681H622.712V3H1132.41V48.681H1357.98V3.94098H1867.69V48.681H2498.22V2090.03H1830.38V2157.36H1608.07V2090.03Z" stroke="#818181" stroke-width="4.15" stroke-miterlimit="1.5" stroke-linecap="round" stroke-linejoin="round"/>
<path fill-rule="evenodd" clip-rule="evenodd" d="M3 1754.78V47.9465H622.777V3H1870.44V47.9465H2498.03V722V1760L1830.09 1758.77H1672.21V728.488H784.776V1758.77L631.908 1758.22L3 1754.78Z" fill="#DFDFDF" stroke="#818181" stroke-width="4.15" stroke-miterlimit="1.5" stroke-linecap="round" stroke-linejoin="round"/>
<path d="M1827.25 3.41602H1358.14V427.332H1827.25V3.41602Z" fill="#A0D8C8" stroke="#818181" stroke-width="4.15" stroke-miterlimit="1.5" stroke-linecap="round" stroke-linejoin="round"/>
<path d="M1129.97 178.697H915.752V436.951H1129.97V178.697Z" fill="#9D9994" stroke="#818181" stroke-width="4.15" stroke-miterlimit="1.5" stroke-linecap="round" stroke-linejoin="round"/>
<path d="M1048.34 3.41406H915.758V178.692H1048.34V3.41406Z" fill="white" stroke="#818181" stroke-width="4.15" stroke-miterlimit="1.5" stroke-linecap="round" stroke-linejoin="round"/>
<path fill-rule="evenodd" clip-rule="evenodd" d="M1580.13 729.75V1154.06H1424.36V1154.11H1068.97V1153.91H904.258V729.75H1095.36V887.26H1385.14V732.9V729.75H1580.13Z" fill="#F0EEE1" stroke="#818181" stroke-width="4.15" stroke-miterlimit="1.5" stroke-linecap="round" stroke-linejoin="round"/>
<path d="M849.813 1757.42H628V2164H849.813V1757.42Z" fill="#ECCDB0" stroke="#818181" stroke-width="4.15" stroke-miterlimit="1.5" stroke-linecap="round" stroke-linejoin="round"/>
<path d="M1830 1759.49H1608.87V2157H1830V1759.49Z" fill="#ECCDB0" stroke="#818181" stroke-width="4.15" stroke-miterlimit="1.5" stroke-linecap="round" stroke-linejoin="round"/>
<path d="M2497.66 1604H2132V2090.27H2497.66V1604Z" fill="#D4DBB5" stroke="#818181" stroke-width="4.15" stroke-miterlimit="1.5" stroke-linecap="round" stroke-linejoin="round"/>
<path d="M2498 1023.25H2135.23V1501.11H2498V1023.25Z" fill="#D4DBB5" stroke="#818181" stroke-width="4.15" stroke-miterlimit="1.5" stroke-linecap="round" stroke-linejoin="round"/>
<path d="M2498 50H2136V491H2498V50Z" fill="#D4DBB5" stroke="#818181" stroke-width="4.15" stroke-miterlimit="1.5" stroke-linecap="round" stroke-linejoin="round"/>
<path d="M2497.76 580H2135.53V1023.45H2497.76V580Z" fill="#D4DBB5" stroke="#818181" stroke-width="4.15" stroke-miterlimit="1.5" stroke-linecap="round" stroke-linejoin="round"/>
<path d="M729.256 3.41602H623.164V401.527H729.256V3.41602Z" fill="white" stroke="#818181" stroke-width="4.15" stroke-miterlimit="1.5" stroke-linecap="round" stroke-linejoin="round"/>
<path d="M2135.23 1604H1830V2090.27H2135.23V1604Z" fill="#D4DBB5" stroke="#818181" stroke-width="4.15" stroke-miterlimit="1.5" stroke-linecap="round" stroke-linejoin="round"/>
<path d="M2135.22 1023H1830V1500.65H2135.22V1023Z" fill="#D4DBB5" stroke="#818181" stroke-width="4.15" stroke-miterlimit="1.5" stroke-linecap="round" stroke-linejoin="round"/>
<path d="M2135.22 49.5918H1827.25V491.216H2135.22V49.5918Z" fill="#D4DBB5" stroke="#818181" stroke-width="4.15" stroke-miterlimit="1.5" stroke-linecap="round" stroke-linejoin="round"/>
<path d="M2135.22 579.896H1830V1023.44H2135.22V579.896Z" fill="#D4DBB5" stroke="#818181" stroke-width="4.15" stroke-miterlimit="1.5" stroke-linecap="round" stroke-linejoin="round"/>
<path d="M628 1491.56H301V2089.96H628V1491.56Z" fill="#D4DBB5" stroke="#818181" stroke-width="4.15" stroke-miterlimit="1.5" stroke-linecap="round" stroke-linejoin="round"/>
<path d="M628 1015H312V1380.6H628V1015Z" fill="#D4DBB5" stroke="#818181" stroke-width="4.15" stroke-miterlimit="1.5" stroke-linecap="round" stroke-linejoin="round"/>
<path d="M305.87 1491.58H3.40576V2089.98H305.87V1491.58Z" fill="#D4DBB5" stroke="#818181" stroke-width="4.15" stroke-miterlimit="1.5" stroke-linecap="round" stroke-linejoin="round"/>
<path d="M311.536 1014.54H3.2959V1380.6H311.536V1014.54Z" fill="#D4DBB5" stroke="#818181" stroke-width="4.15" stroke-miterlimit="1.5" stroke-linecap="round" stroke-linejoin="round"/>
<path d="M622.854 49.5977H3.2915V925.708H622.854V49.5977Z" fill="#FFC1C0" stroke="#818181" stroke-width="4.15" stroke-miterlimit="1.5" stroke-linecap="round" stroke-linejoin="round"/>
<path d="M915.753 3.41602H729.255V401.41H915.753V3.41602Z" fill="#ECCDB0" stroke="#818181" stroke-width="4.15" stroke-miterlimit="1.5" stroke-linecap="round" stroke-linejoin="round"/>
</svg>
