<svg width="70" height="50" viewBox="0 0 70 50" fill="none" xmlns="http://www.w3.org/2000/svg">
<g clip-path="url(#clip0_618_784)">
<path fill-rule="evenodd" clip-rule="evenodd" d="M69.9936 7.30001V15.8987C69.9936 19.7299 66.7624 22.8357 62.9318 22.8357H42.5803C41.6181 22.8357 40.6946 22.4531 40.0137 21.7724C39.3328 21.0915 38.9515 20.1684 38.9515 19.2055C38.9515 18.2426 39.3328 17.3194 40.0137 16.6385C40.6946 15.9578 41.6181 15.5753 42.5803 15.5753H60.5467C61.1786 15.5753 61.7861 15.3241 62.2326 14.8769C62.679 14.4297 62.9318 13.8231 62.9318 13.1909V9.68448C62.9318 8.3677 61.8636 7.30001 60.5467 7.30001H38.1707C37.5388 7.30001 36.9333 7.55124 36.4848 7.99842C36.0384 8.44561 35.7876 9.05223 35.7876 9.68448V27.6033H27.0746V7.30001C27.0746 3.29032 30.3241 0.0396729 34.3341 0.0396729H62.6077C66.6177 0.0396729 69.9936 3.29032 69.9936 7.30001Z" fill="#FFAE1D"/>
<path fill-rule="evenodd" clip-rule="evenodd" d="M35.8171 30.3883V34.6989C35.8171 37.905 35.1355 40.6166 33.7705 42.8336C32.4073 45.0506 30.5739 46.722 28.2704 47.8476C25.9686 48.9731 23.4011 49.5359 20.5715 49.5359C17.7402 49.5359 15.2077 48.9817 12.9741 47.8731C10.7387 46.7647 8.97347 45.0933 7.67839 42.8593C6.38156 40.6252 5.73491 37.905 5.73491 34.6989V12.4787H1.1995C0.710135 12.4787 0.271457 12.1822 0.0879438 11.7293C-0.0955697 11.2763 0.0145111 10.7576 0.365808 10.4178L9.33701 1.73666C9.80191 1.28684 10.5395 1.28684 11.0044 1.73666L19.9773 10.4178C20.3286 10.7576 20.4387 11.2763 20.2552 11.7293C20.0717 12.1822 19.6312 12.4787 19.1436 12.4787H14.4824V34.7501C14.4824 36.8988 15.0119 38.553 16.0693 39.7128C17.1267 40.8725 18.6787 41.4524 20.7253 41.4524C22.7702 41.4524 24.3397 40.8725 25.432 39.7128C26.5226 38.553 27.0679 36.8988 27.0679 34.7501V34.6909H27.0539V30.3883H35.8171Z" fill="#FFAE1D"/>
<path d="M49.1134 31.5698H46.1587C46.3407 30.7673 46.4448 30.0165 46.3526 29.536C46.1958 28.826 45.6642 28.5481 44.922 28.5481C43.6458 28.5481 42.9071 29.4894 42.5551 31.0468C42.3432 31.9848 42.2067 32.8475 42.2654 33.3712C42.3624 34.1751 42.7874 34.6497 43.6601 34.6497C44.8322 34.6497 45.863 35.0255 46.6687 35.9135C47.4756 36.8033 47.6636 37.8472 47.4074 38.9788C47.2278 39.773 47.0482 40.5671 46.8686 41.3613C46.5849 42.62 45.8798 43.631 44.8729 44.4411C43.8697 45.2479 42.7371 45.7195 41.4525 45.7195H40.6839C39.537 45.7195 38.5553 45.3437 37.8417 44.4411C37.1258 43.5359 36.9846 42.4851 37.2384 41.3613C37.333 40.9448 37.4275 40.5284 37.5209 40.1119H40.4756C40.0374 41.9678 40.314 43.1337 41.7123 43.1337C42.4139 43.1337 43.0101 42.8949 43.4327 42.3201C43.7248 41.9068 43.9415 41.2423 44.1055 40.5187C44.5485 38.5624 44.3018 37.3227 42.9526 37.3227C41.7733 37.3227 40.7306 36.952 39.9117 36.0734C39.0892 35.1917 38.9013 34.1401 39.161 32.9935C39.3622 32.1024 39.5633 31.2114 39.7656 30.3204C40.0494 29.0617 40.7545 28.0508 41.7614 27.2406C42.7646 26.4338 43.8972 25.9622 45.1818 25.9622H45.9504C47.0973 25.9622 48.079 26.3381 48.7925 27.2406C49.5085 28.1458 49.6498 29.1966 49.396 30.3204C49.3014 30.7369 49.2068 31.1534 49.1134 31.5698Z" fill="#FFAE1D"/>
<path d="M56.3747 43.0167C56.1604 43.9174 55.946 44.8181 55.7316 45.7187H46.1342C47.5461 39.4332 48.9568 33.1477 50.3675 26.8622C53.5791 26.8525 56.7906 26.8428 60.0035 26.8331C59.7891 27.7339 59.5747 28.6345 59.3604 29.5352H53.1208C52.7242 31.2398 52.3288 32.9444 51.9322 34.6489C54.036 34.6392 56.1386 34.6296 58.2424 34.6198C58.028 35.5206 57.8136 36.4212 57.5993 37.3219H51.2955C50.8796 39.2104 50.4625 41.099 50.0466 42.9876C52.1555 42.9973 54.2645 43.007 56.3747 43.0167Z" fill="#FFAE1D"/>
<path d="M66.2248 43.0167C66.0104 43.9174 65.796 44.8181 65.5817 45.7187H55.9855C57.3962 39.4332 58.8068 33.1477 60.2188 26.8622C63.4303 26.8525 66.6419 26.8428 69.8535 26.8331C69.6391 27.7339 69.4247 28.6345 69.2104 29.5352H62.9708C62.5755 31.2398 62.1788 32.9444 61.7822 34.6489C63.886 34.6392 65.9899 34.6296 68.0924 34.6198C67.878 35.5206 67.6637 36.4212 67.4493 37.3219H61.1468C60.7296 39.2104 60.3138 41.099 59.8966 42.9876C62.0068 42.9973 64.1158 43.007 66.2248 43.0167Z" fill="#FFAE1D"/>
<path fill-rule="evenodd" clip-rule="evenodd" d="M45.6694 46.7928C45.4629 47.7074 45.2556 48.6219 45.0491 49.5364H35.3889C35.5963 48.6219 35.8027 47.7074 36.0092 46.7928H45.6694Z" fill="#FFAE1D"/>
<path fill-rule="evenodd" clip-rule="evenodd" d="M55.5202 46.7928C55.3138 47.7074 55.1064 48.6219 54.8999 49.5364H45.2394C45.4467 48.6219 45.6532 47.7074 45.8596 46.7928H55.5202Z" fill="#FFAE1D"/>
<path fill-rule="evenodd" clip-rule="evenodd" d="M65.3712 46.7928C65.1647 47.7074 64.9574 48.6219 64.7509 49.5364H55.0903C55.2977 48.6219 55.5041 47.7074 55.7106 46.7928H65.3712Z" fill="#FFAE1D"/>
</g>
<defs>
<clipPath id="clip0_618_784">
<rect width="70" height="49.5191" fill="white" transform="translate(0 0.038208)"/>
</clipPath>
</defs>
</svg>
