<svg width="218" height="79" viewBox="0 0 218 79" fill="none" xmlns="http://www.w3.org/2000/svg">
<g clip-path="url(#clip0_103_767)">
<path fill-rule="evenodd" clip-rule="evenodd" d="M61.9962 28.8994V34.1087C61.9962 36.4298 60.0575 38.3113 57.7591 38.3113H45.5482C44.9708 38.3113 44.4168 38.0796 44.0082 37.6672C43.5997 37.2547 43.3709 36.6954 43.3709 36.112C43.3709 35.5287 43.5997 34.9694 44.0082 34.5569C44.4168 34.1445 44.9708 33.9128 45.5482 33.9128H56.328C56.7072 33.9128 57.0717 33.7606 57.3396 33.4897C57.6074 33.2188 57.7591 32.8513 57.7591 32.4682V30.344C57.7591 29.5462 57.1182 28.8994 56.328 28.8994H42.9025C42.5233 28.8994 42.16 29.0516 41.8909 29.3225C41.623 29.5934 41.4726 29.9609 41.4726 30.344V41.1997H36.2448V28.8994C36.2448 26.4702 38.1945 24.5009 40.6005 24.5009H57.5647C59.9706 24.5009 61.9962 26.4702 61.9962 28.8994Z" fill="#EF8281"/>
<path fill-rule="evenodd" clip-rule="evenodd" d="M41.4902 42.8869V45.4984C41.4902 47.4407 41.0813 49.0835 40.2623 50.4266C39.4443 51.7697 38.3443 52.7823 36.9622 53.4642C35.5811 54.1461 34.0407 54.487 32.3429 54.487C30.6441 54.487 29.1246 54.1513 27.7844 53.4796C26.4432 52.8081 25.384 51.7956 24.607 50.4422C23.8289 49.0887 23.4409 47.4407 23.4409 45.4984V32.0368H20.7197C20.426 32.0368 20.1628 31.8571 20.0527 31.5828C19.9426 31.3083 20.0087 30.9941 20.2194 30.7882L25.6022 25.529C25.8811 25.2565 26.3236 25.2565 26.6026 25.529L31.9863 30.7882C32.1971 30.9941 32.2632 31.3083 32.1531 31.5828C32.043 31.8571 31.7787 32.0368 31.4861 32.0368H28.6894V45.5294C28.6894 46.8311 29.0071 47.8333 29.6416 48.536C30.276 49.2385 31.2072 49.5898 32.4352 49.5898C33.6621 49.5898 34.6038 49.2385 35.2592 48.536C35.9135 47.8333 36.2407 46.8311 36.2407 45.5294V45.4935H36.2323V42.8869H41.4902Z" fill="#93BF6A"/>
<path d="M49.468 43.6027H47.6952C47.8044 43.1165 47.8669 42.6617 47.8116 42.3705C47.7175 41.9404 47.3985 41.772 46.9532 41.772C46.1875 41.772 45.7443 42.3423 45.5331 43.2858C45.4059 43.8541 45.324 44.3768 45.3592 44.694C45.4174 45.1811 45.6724 45.4685 46.1961 45.4685C46.8993 45.4685 47.5178 45.6963 48.0012 46.2342C48.4854 46.7733 48.5981 47.4057 48.4444 48.0913C48.3367 48.5724 48.2289 49.0535 48.1212 49.5346C47.9509 50.2972 47.5279 50.9097 46.9237 51.4005C46.3218 51.8893 45.6423 52.175 44.8715 52.175H44.4103C43.7222 52.175 43.1332 51.9473 42.705 51.4005C42.2755 50.8521 42.1907 50.2155 42.343 49.5346C42.3998 49.2823 42.4565 49.03 42.5125 48.7777H44.2853C44.0224 49.9021 44.1884 50.6084 45.0274 50.6084C45.4483 50.6084 45.806 50.4637 46.0596 50.1155C46.2349 49.8651 46.3649 49.4625 46.4633 49.0242C46.7291 47.839 46.5811 47.0879 45.7715 47.0879C45.064 47.0879 44.4383 46.8634 43.947 46.3311C43.4535 45.7969 43.3408 45.1598 43.4966 44.4652C43.6173 43.9254 43.738 43.3856 43.8594 42.8458C44.0296 42.0832 44.4527 41.4708 45.0568 40.9799C45.6588 40.4912 46.3383 40.2055 47.1091 40.2055H47.5702C48.2584 40.2055 48.8474 40.4332 49.2755 40.9799C49.7051 41.5284 49.7899 42.165 49.6376 42.8458C49.5808 43.0981 49.5241 43.3504 49.468 43.6027Z" fill="#EF8281"/>
<path d="M53.8248 50.5375C53.6962 51.0832 53.5676 51.6289 53.439 52.1745H47.6805C48.5277 48.3666 49.3741 44.5586 50.2205 40.7507C52.1474 40.7448 54.0744 40.739 56.0021 40.7331C55.8735 41.2788 55.7448 41.8244 55.6162 42.3701H51.8725C51.6345 43.4028 51.3973 44.4354 51.1593 45.4681C52.4216 45.4622 53.6831 45.4564 54.9454 45.4505C54.8168 45.9962 54.6882 46.5418 54.5596 47.0875H50.7773C50.5277 48.2316 50.2775 49.3758 50.0279 50.5199C51.2933 50.5258 52.5587 50.5317 53.8248 50.5375Z" fill="#FD9E47"/>
<path d="M59.7348 50.5375C59.6062 51.0832 59.4776 51.6289 59.349 52.1745H53.5912C54.4377 48.3666 55.284 44.5586 56.1312 40.7507C58.0582 40.7448 59.9851 40.739 61.9121 40.7331C61.7834 41.2788 61.6548 41.8244 61.5262 42.3701H57.7825C57.5452 43.4028 57.3073 44.4354 57.0693 45.4681C58.3316 45.4622 59.5939 45.4564 60.8554 45.4505C60.7268 45.9962 60.5982 46.5418 60.4695 47.0875H56.688C56.4377 48.2316 56.1882 49.3758 55.9379 50.5199C57.2041 50.5258 58.4694 50.5317 59.7348 50.5375Z" fill="#93BF6A"/>
<path fill-rule="evenodd" clip-rule="evenodd" d="M47.4016 52.8252C47.2777 53.3793 47.1533 53.9333 47.0295 54.4873H41.2333C41.3577 53.9333 41.4816 53.3793 41.6055 52.8252H47.4016Z" fill="#EF8281"/>
<path fill-rule="evenodd" clip-rule="evenodd" d="M53.3121 52.8252C53.1882 53.3793 53.0638 53.9333 52.94 54.4873H47.1436C47.268 53.9333 47.3919 53.3793 47.5158 52.8252H53.3121Z" fill="#FD9E47"/>
<path fill-rule="evenodd" clip-rule="evenodd" d="M59.2227 52.8252C59.0988 53.3793 58.9744 53.9333 58.8505 54.4873H53.0542C53.1786 53.9333 53.3025 53.3793 53.4264 52.8252H59.2227Z" fill="#93BF6A"/>
</g>
<path d="M74.5568 27.7273H78.8182L86.2273 45.8182H86.5L93.9091 27.7273H98.1705V51H94.8295V34.1591H94.6136L87.75 50.9659H84.9773L78.1136 34.1477H77.8977V51H74.5568V27.7273ZM106.482 51.3864C105.376 51.3864 104.376 51.1818 103.482 50.7727C102.588 50.3561 101.88 49.7538 101.357 48.9659C100.842 48.178 100.585 47.2121 100.585 46.0682C100.585 45.0833 100.774 44.2727 101.153 43.6364C101.532 43 102.043 42.4962 102.687 42.125C103.331 41.7538 104.051 41.4735 104.846 41.2841C105.641 41.0947 106.452 40.9508 107.278 40.8523C108.323 40.7311 109.172 40.6326 109.823 40.5568C110.475 40.4735 110.948 40.3409 111.244 40.1591C111.539 39.9773 111.687 39.6818 111.687 39.2727V39.1932C111.687 38.2008 111.407 37.4318 110.846 36.8864C110.293 36.3409 109.467 36.0682 108.369 36.0682C107.225 36.0682 106.323 36.322 105.664 36.8295C105.013 37.3295 104.562 37.8864 104.312 38.5L101.119 37.7727C101.498 36.7121 102.051 35.8561 102.778 35.2045C103.513 34.5455 104.357 34.0682 105.312 33.7727C106.266 33.4697 107.27 33.3182 108.323 33.3182C109.02 33.3182 109.759 33.4015 110.539 33.5682C111.327 33.7273 112.062 34.0227 112.744 34.4545C113.433 34.8864 113.998 35.5038 114.437 36.3068C114.876 37.1023 115.096 38.1364 115.096 39.4091V51H111.778V48.6136H111.641C111.422 49.053 111.092 49.4848 110.653 49.9091C110.213 50.3333 109.649 50.6856 108.96 50.9659C108.27 51.2462 107.445 51.3864 106.482 51.3864ZM107.221 48.6591C108.16 48.6591 108.963 48.4735 109.63 48.1023C110.304 47.7311 110.816 47.2462 111.164 46.6477C111.52 46.0417 111.698 45.3939 111.698 44.7045V42.4545C111.577 42.5758 111.342 42.6894 110.994 42.7955C110.653 42.8939 110.263 42.9811 109.823 43.0568C109.384 43.125 108.956 43.1894 108.539 43.25C108.123 43.303 107.774 43.3485 107.494 43.3864C106.835 43.4697 106.232 43.6098 105.687 43.8068C105.149 44.0038 104.717 44.2879 104.391 44.6591C104.073 45.0227 103.914 45.5076 103.914 46.1136C103.914 46.9545 104.225 47.5909 104.846 48.0227C105.467 48.447 106.259 48.6591 107.221 48.6591ZM121.419 40.6364V51H118.022V33.5455H121.283V36.3864H121.499C121.9 35.4621 122.529 34.7197 123.385 34.1591C124.249 33.5985 125.336 33.3182 126.647 33.3182C127.836 33.3182 128.878 33.5682 129.772 34.0682C130.666 34.5606 131.359 35.2955 131.851 36.2727C132.344 37.25 132.59 38.4583 132.59 39.8977V51H129.192V40.3068C129.192 39.0417 128.862 38.053 128.203 37.3409C127.544 36.6212 126.639 36.2614 125.487 36.2614C124.7 36.2614 123.999 36.4318 123.385 36.7727C122.779 37.1136 122.298 37.6136 121.942 38.2727C121.594 38.9242 121.419 39.7121 121.419 40.6364ZM140.626 51.3864C139.52 51.3864 138.52 51.1818 137.626 50.7727C136.732 50.3561 136.024 49.7538 135.501 48.9659C134.986 48.178 134.728 47.2121 134.728 46.0682C134.728 45.0833 134.918 44.2727 135.297 43.6364C135.675 43 136.187 42.4962 136.831 42.125C137.475 41.7538 138.194 41.4735 138.99 41.2841C139.785 41.0947 140.596 40.9508 141.422 40.8523C142.467 40.7311 143.316 40.6326 143.967 40.5568C144.619 40.4735 145.092 40.3409 145.388 40.1591C145.683 39.9773 145.831 39.6818 145.831 39.2727V39.1932C145.831 38.2008 145.55 37.4318 144.99 36.8864C144.437 36.3409 143.611 36.0682 142.513 36.0682C141.369 36.0682 140.467 36.322 139.808 36.8295C139.156 37.3295 138.706 37.8864 138.456 38.5L135.263 37.7727C135.641 36.7121 136.194 35.8561 136.922 35.2045C137.656 34.5455 138.501 34.0682 139.456 33.7727C140.41 33.4697 141.414 33.3182 142.467 33.3182C143.164 33.3182 143.903 33.4015 144.683 33.5682C145.471 33.7273 146.206 34.0227 146.888 34.4545C147.577 34.8864 148.141 35.5038 148.581 36.3068C149.02 37.1023 149.24 38.1364 149.24 39.4091V51H145.922V48.6136H145.785C145.566 49.053 145.236 49.4848 144.797 49.9091C144.357 50.3333 143.793 50.6856 143.103 50.9659C142.414 51.2462 141.588 51.3864 140.626 51.3864ZM141.365 48.6591C142.304 48.6591 143.107 48.4735 143.774 48.1023C144.448 47.7311 144.959 47.2462 145.308 46.6477C145.664 46.0417 145.842 45.3939 145.842 44.7045V42.4545C145.721 42.5758 145.486 42.6894 145.138 42.7955C144.797 42.8939 144.406 42.9811 143.967 43.0568C143.528 43.125 143.1 43.1894 142.683 43.25C142.266 43.303 141.918 43.3485 141.638 43.3864C140.978 43.4697 140.376 43.6098 139.831 43.8068C139.293 44.0038 138.861 44.2879 138.535 44.6591C138.217 45.0227 138.058 45.5076 138.058 46.1136C138.058 46.9545 138.369 47.5909 138.99 48.0227C139.611 48.447 140.403 48.6591 141.365 48.6591ZM159.484 57.9091C158.097 57.9091 156.904 57.7273 155.904 57.3636C154.912 57 154.101 56.5189 153.472 55.9205C152.843 55.322 152.374 54.6667 152.063 53.9545L154.984 52.75C155.188 53.0833 155.461 53.4356 155.802 53.8068C156.15 54.1856 156.62 54.5076 157.211 54.7727C157.809 55.0379 158.578 55.1705 159.518 55.1705C160.805 55.1705 161.87 54.8561 162.711 54.2273C163.552 53.6061 163.972 52.6136 163.972 51.25V47.8182H163.756C163.552 48.1894 163.256 48.6023 162.87 49.0568C162.491 49.5114 161.968 49.9053 161.302 50.2386C160.635 50.572 159.768 50.7386 158.699 50.7386C157.321 50.7386 156.078 50.4167 154.972 49.7727C153.874 49.1212 153.002 48.1629 152.359 46.8977C151.722 45.625 151.404 44.0606 151.404 42.2045C151.404 40.3485 151.718 38.7576 152.347 37.4318C152.984 36.1061 153.855 35.0909 154.961 34.3864C156.067 33.6742 157.321 33.3182 158.722 33.3182C159.805 33.3182 160.68 33.5 161.347 33.8636C162.014 34.2197 162.533 34.6364 162.904 35.1136C163.283 35.5909 163.574 36.0114 163.779 36.375H164.029V33.5455H167.359V51.3864C167.359 52.8864 167.01 54.1174 166.313 55.0795C165.616 56.0417 164.673 56.7538 163.484 57.2159C162.302 57.678 160.968 57.9091 159.484 57.9091ZM159.449 47.9205C160.427 47.9205 161.252 47.6932 161.927 47.2386C162.609 46.7765 163.124 46.1174 163.472 45.2614C163.828 44.3977 164.006 43.3636 164.006 42.1591C164.006 40.9848 163.832 39.9508 163.484 39.0568C163.135 38.1629 162.624 37.4659 161.949 36.9659C161.275 36.4583 160.442 36.2045 159.449 36.2045C158.427 36.2045 157.574 36.4697 156.893 37C156.211 37.5227 155.696 38.2348 155.347 39.1364C155.006 40.0379 154.836 41.0455 154.836 42.1591C154.836 43.303 155.01 44.3068 155.359 45.1705C155.707 46.0341 156.222 46.7083 156.904 47.1932C157.593 47.678 158.442 47.9205 159.449 47.9205ZM177.838 51.3523C176.118 51.3523 174.637 50.9848 173.395 50.25C172.16 49.5076 171.205 48.4659 170.531 47.125C169.865 45.7765 169.531 44.197 169.531 42.3864C169.531 40.5985 169.865 39.0227 170.531 37.6591C171.205 36.2955 172.145 35.2311 173.349 34.4659C174.562 33.7008 175.978 33.3182 177.599 33.3182C178.584 33.3182 179.539 33.4811 180.463 33.8068C181.387 34.1326 182.217 34.6439 182.952 35.3409C183.687 36.0379 184.266 36.9432 184.69 38.0568C185.115 39.1629 185.327 40.5076 185.327 42.0909V43.2955H171.452V40.75H181.997C181.997 39.8561 181.815 39.0644 181.452 38.375C181.088 37.678 180.577 37.1288 179.918 36.7273C179.266 36.3258 178.501 36.125 177.622 36.125C176.668 36.125 175.834 36.3598 175.122 36.8295C174.418 37.2917 173.872 37.8977 173.486 38.6477C173.107 39.3902 172.918 40.197 172.918 41.0682V43.0568C172.918 44.2235 173.122 45.2159 173.531 46.0341C173.948 46.8523 174.527 47.4773 175.27 47.9091C176.012 48.3333 176.88 48.5455 177.872 48.5455C178.516 48.5455 179.103 48.4545 179.634 48.2727C180.164 48.0833 180.622 47.803 181.009 47.4318C181.395 47.0606 181.69 46.6023 181.895 46.0568L185.111 46.6364C184.853 47.5833 184.391 48.4129 183.724 49.125C183.065 49.8295 182.236 50.3788 181.236 50.7727C180.243 51.1591 179.111 51.3523 177.838 51.3523ZM187.497 51V33.5455H190.781V36.3182H190.963C191.281 35.3788 191.841 34.6402 192.644 34.1023C193.455 33.5568 194.372 33.2841 195.394 33.2841C195.606 33.2841 195.856 33.2917 196.144 33.3068C196.44 33.322 196.671 33.3409 196.838 33.3636V36.6136C196.701 36.5758 196.459 36.5341 196.11 36.4886C195.762 36.4356 195.413 36.4091 195.065 36.4091C194.262 36.4091 193.546 36.5795 192.917 36.9205C192.296 37.2538 191.803 37.7197 191.44 38.3182C191.076 38.9091 190.894 39.5833 190.894 40.3409V51H187.497Z" fill="#93BF6A"/>
<defs>
<clipPath id="clip0_103_767">
<rect width="42" height="30" fill="white" transform="translate(20 24.5)"/>
</clipPath>
</defs>
</svg>
