<svg width="206" height="215" viewBox="0 0 206 215" fill="none" xmlns="http://www.w3.org/2000/svg">
<g clip-path="url(#clip0_43_3132)">
<path fill-rule="evenodd" clip-rule="evenodd" d="M185.735 38.297V58.8242C185.735 67.9703 178.096 75.3844 169.039 75.3844H120.922C118.647 75.3844 116.464 74.4713 114.854 72.8463C113.244 71.2208 112.343 69.0169 112.343 66.7183C112.343 64.4197 113.244 62.2158 114.854 60.5903C116.464 58.9653 118.647 58.0522 120.922 58.0522H163.4C164.894 58.0522 166.33 57.4524 167.386 56.3849C168.441 55.3174 169.039 53.8692 169.039 52.3599V43.9893C169.039 40.8458 166.513 38.297 163.4 38.297H110.497C109.003 38.297 107.571 38.8968 106.511 39.9643C105.455 41.0318 104.862 42.48 104.862 43.9893V86.766H84.2622V38.297C84.2622 28.7249 91.945 20.9648 101.426 20.9648H168.273C177.753 20.9648 185.735 28.7249 185.735 38.297Z" fill="#EF8281"/>
<path fill-rule="evenodd" clip-rule="evenodd" d="M104.932 93.4145V103.705C104.932 111.359 103.32 117.832 100.093 123.125C96.8702 128.417 92.5355 132.407 87.0893 135.094C81.6473 137.781 75.5771 139.125 68.8871 139.125C62.193 139.125 56.2054 137.801 50.9245 135.155C45.6394 132.509 41.4659 128.519 38.404 123.186C35.3379 117.852 33.8091 111.359 33.8091 103.705V50.66H23.0861C21.9291 50.66 20.8919 49.952 20.458 48.8709C20.0241 47.7895 20.2844 46.5511 21.115 45.74L42.3255 25.016C43.4246 23.9422 45.1684 23.9422 46.2676 25.016L67.4822 45.74C68.3127 46.5511 68.573 47.7895 68.1391 48.8709C67.7052 49.952 66.6639 50.66 65.5111 50.66H54.4906V103.827C54.4906 108.957 55.7426 112.906 58.2426 115.675C60.7425 118.443 64.4119 119.827 69.2507 119.827C74.0853 119.827 77.7961 118.443 80.3787 115.675C82.9571 112.906 84.2464 108.957 84.2464 103.827V103.686H84.2133V93.4145H104.932Z" fill="#93BF6A"/>
<path d="M136.368 96.235H129.383C129.813 94.3191 130.059 92.5268 129.841 91.3797C129.47 89.6847 128.214 89.0213 126.459 89.0213C123.441 89.0213 121.695 91.2683 120.863 94.9864C120.362 97.2256 120.039 99.2851 120.178 100.535C120.407 102.454 121.412 103.587 123.475 103.587C126.247 103.587 128.684 104.485 130.589 106.604C132.496 108.728 132.941 111.221 132.335 113.922C131.91 115.818 131.486 117.714 131.061 119.61C130.39 122.615 128.723 125.028 126.343 126.962C123.971 128.888 121.293 130.014 118.256 130.014H116.439C113.727 130.014 111.406 129.117 109.719 126.962C108.026 124.801 107.692 122.292 108.293 119.61C108.516 118.615 108.74 117.621 108.96 116.627H115.946C114.91 121.058 115.564 123.841 118.87 123.841C120.529 123.841 121.938 123.271 122.938 121.899C123.628 120.912 124.141 119.325 124.528 117.598C125.576 112.928 124.993 109.968 121.803 109.968C119.014 109.968 116.549 109.084 114.613 106.986C112.668 104.881 112.224 102.371 112.838 99.6337C113.314 97.5064 113.789 95.3793 114.268 93.2523C114.939 90.2474 116.606 87.8342 118.986 85.9C121.358 83.9741 124.036 82.8482 127.073 82.8482H128.89C131.602 82.8482 133.923 83.7455 135.61 85.9C137.303 88.0611 137.637 90.5695 137.037 93.2523C136.813 94.2465 136.589 95.2408 136.368 96.235Z" fill="#EF8281"/>
<path d="M153.537 123.561C153.03 125.712 152.523 127.862 152.016 130.012H129.325C132.663 115.007 135.999 100.002 139.334 84.9968C146.927 84.9737 154.52 84.9505 162.116 84.9274C161.609 87.0777 161.102 89.2278 160.596 91.3779H145.844C144.906 95.4473 143.971 99.5164 143.033 103.586C148.007 103.562 152.978 103.539 157.952 103.516C157.446 105.666 156.939 107.817 156.432 109.967H141.528C140.545 114.475 139.558 118.984 138.575 123.492C143.561 123.515 148.548 123.538 153.537 123.561Z" fill="#FD9E47"/>
<path d="M176.824 123.561C176.317 125.712 175.81 127.862 175.304 130.012H152.615C155.951 115.007 159.286 100.002 162.624 84.9968C170.217 84.9737 177.81 84.9505 185.403 84.9274C184.897 87.0777 184.39 89.2278 183.883 91.3779H169.131C168.196 95.4473 167.258 99.5164 166.321 103.586C171.295 103.562 176.269 103.539 181.24 103.516C180.733 105.666 180.226 107.817 179.719 109.967H164.818C163.832 114.475 162.849 118.984 161.862 123.492C166.852 123.515 171.838 123.538 176.824 123.561Z" fill="#93BF6A"/>
<path fill-rule="evenodd" clip-rule="evenodd" d="M128.226 132.576C127.738 134.759 127.247 136.943 126.759 139.126H103.92C104.41 136.943 104.898 134.759 105.386 132.576H128.226Z" fill="#EF8281"/>
<path fill-rule="evenodd" clip-rule="evenodd" d="M151.516 132.576C151.028 134.759 150.538 136.943 150.05 139.126H127.209C127.7 136.943 128.188 134.759 128.676 132.576H151.516Z" fill="#FD9E47"/>
<path fill-rule="evenodd" clip-rule="evenodd" d="M174.807 132.576C174.319 134.759 173.829 136.943 173.341 139.126H150.5C150.991 136.943 151.479 134.759 151.967 132.576H174.807Z" fill="#93BF6A"/>
</g>
<path d="M31.0362 157.402H36.0966L44.8949 178.885H45.2188L54.017 157.402H59.0774V185.039H55.1101V165.04H54.8537L46.7031 184.998H43.4105L35.2599 165.027H35.0036V185.039H31.0362V157.402ZM68.9478 185.498C67.6344 185.498 66.4469 185.255 65.3853 184.769C64.3238 184.274 63.4826 183.559 62.8619 182.623C62.2502 181.688 61.9443 180.541 61.9443 179.182C61.9443 178.013 62.1692 177.05 62.619 176.294C63.0688 175.539 63.6761 174.94 64.4407 174.5C65.2054 174.059 66.06 173.726 67.0047 173.501C67.9493 173.276 68.9118 173.105 69.8924 172.988C71.1339 172.844 72.1415 172.727 72.9152 172.637C73.6888 172.538 74.2511 172.381 74.602 172.165C74.9528 171.949 75.1282 171.598 75.1282 171.113V171.018C75.1282 169.84 74.7954 168.926 74.1297 168.279C73.4729 167.631 72.4923 167.307 71.1879 167.307C69.8295 167.307 68.7589 167.609 67.9762 168.211C67.2026 168.805 66.6673 169.466 66.3704 170.195L62.5785 169.331C63.0283 168.072 63.685 167.055 64.5487 166.282C65.4213 165.499 66.4244 164.932 67.5579 164.581C68.6914 164.221 69.8834 164.042 71.1339 164.042C71.9616 164.042 72.8387 164.14 73.7653 164.338C74.7009 164.527 75.5735 164.878 76.3832 165.391C77.2019 165.904 77.8721 166.637 78.3939 167.591C78.9156 168.535 79.1765 169.763 79.1765 171.274V185.039H75.2362V182.205H75.0743C74.8134 182.727 74.422 183.239 73.9002 183.743C73.3785 184.247 72.7082 184.665 71.8896 184.998C71.0709 185.331 70.0904 185.498 68.9478 185.498ZM69.825 182.259C70.9405 182.259 71.8941 182.038 72.6858 181.598C73.4864 181.157 74.0937 180.581 74.5075 179.87C74.9303 179.151 75.1417 178.381 75.1417 177.563V174.891C74.9978 175.035 74.7189 175.17 74.3051 175.296C73.9002 175.413 73.4369 175.516 72.9152 175.606C72.3934 175.687 71.8851 175.764 71.3903 175.836C70.8955 175.899 70.4817 175.953 70.1488 175.998C69.3662 176.096 68.651 176.263 68.0032 176.497C67.3645 176.731 66.8517 177.068 66.4649 177.509C66.087 177.941 65.8981 178.516 65.8981 179.236C65.8981 180.235 66.267 180.99 67.0047 181.503C67.7423 182.007 68.6824 182.259 69.825 182.259ZM86.6854 172.732V185.039H82.6506V164.311H86.5235V167.685H86.7799C87.2567 166.587 88.0034 165.706 89.02 165.04C90.0455 164.374 91.3365 164.042 92.8928 164.042C94.3052 164.042 95.5422 164.338 96.6038 164.932C97.6653 165.517 98.4885 166.39 99.0732 167.55C99.658 168.711 99.9504 170.145 99.9504 171.855V185.039H95.9156V172.341C95.9156 170.838 95.5242 169.664 94.7415 168.819C93.9589 167.964 92.8838 167.537 91.5164 167.537C90.5808 167.537 89.7487 167.739 89.02 168.144C88.3003 168.549 87.729 169.142 87.3062 169.925C86.8924 170.699 86.6854 171.634 86.6854 172.732ZM109.494 185.498C108.18 185.498 106.993 185.255 105.931 184.769C104.869 184.274 104.028 183.559 103.408 182.623C102.796 181.688 102.49 180.541 102.49 179.182C102.49 178.013 102.715 177.05 103.165 176.294C103.615 175.539 104.222 174.94 104.986 174.5C105.751 174.059 106.606 173.726 107.55 173.501C108.495 173.276 109.458 173.105 110.438 172.988C111.68 172.844 112.687 172.727 113.461 172.637C114.235 172.538 114.797 172.381 115.148 172.165C115.499 171.949 115.674 171.598 115.674 171.113V171.018C115.674 169.84 115.341 168.926 114.675 168.279C114.019 167.631 113.038 167.307 111.734 167.307C110.375 167.307 109.305 167.609 108.522 168.211C107.748 168.805 107.213 169.466 106.916 170.195L103.124 169.331C103.574 168.072 104.231 167.055 105.094 166.282C105.967 165.499 106.97 164.932 108.104 164.581C109.237 164.221 110.429 164.042 111.68 164.042C112.507 164.042 113.384 164.14 114.311 164.338C115.247 164.527 116.119 164.878 116.929 165.391C117.748 165.904 118.418 166.637 118.94 167.591C119.461 168.535 119.722 169.763 119.722 171.274V185.039H115.782V182.205H115.62C115.359 182.727 114.968 183.239 114.446 183.743C113.924 184.247 113.254 184.665 112.435 184.998C111.617 185.331 110.636 185.498 109.494 185.498ZM110.371 182.259C111.486 182.259 112.44 182.038 113.231 181.598C114.032 181.157 114.639 180.581 115.053 179.87C115.476 179.151 115.687 178.381 115.687 177.563V174.891C115.543 175.035 115.265 175.17 114.851 175.296C114.446 175.413 113.983 175.516 113.461 175.606C112.939 175.687 112.431 175.764 111.936 175.836C111.441 175.899 111.027 175.953 110.695 175.998C109.912 176.096 109.197 176.263 108.549 176.497C107.91 176.731 107.397 177.068 107.011 177.509C106.633 177.941 106.444 178.516 106.444 179.236C106.444 180.235 106.813 180.99 107.55 181.503C108.288 182.007 109.228 182.259 110.371 182.259ZM131.887 193.243C130.24 193.243 128.823 193.027 127.636 192.596C126.457 192.164 125.495 191.592 124.748 190.882C124.002 190.171 123.444 189.393 123.075 188.547L126.543 187.117C126.786 187.513 127.11 187.931 127.515 188.372C127.928 188.822 128.486 189.204 129.188 189.519C129.899 189.834 130.812 189.991 131.927 189.991C133.457 189.991 134.72 189.618 135.719 188.871C136.718 188.133 137.217 186.955 137.217 185.336V181.26H136.961C136.718 181.701 136.367 182.191 135.908 182.731C135.458 183.271 134.837 183.739 134.046 184.135C133.254 184.53 132.224 184.728 130.956 184.728C129.318 184.728 127.843 184.346 126.529 183.581C125.225 182.808 124.19 181.67 123.426 180.167C122.67 178.656 122.292 176.798 122.292 174.594C122.292 172.39 122.666 170.501 123.412 168.926C124.168 167.352 125.202 166.147 126.516 165.31C127.829 164.464 129.318 164.042 130.983 164.042C132.269 164.042 133.308 164.257 134.1 164.689C134.891 165.112 135.508 165.607 135.948 166.174C136.398 166.74 136.745 167.24 136.988 167.672H137.284V164.311H141.238V185.498C141.238 187.279 140.824 188.741 139.997 189.883C139.169 191.026 138.049 191.871 136.637 192.42C135.233 192.969 133.65 193.243 131.887 193.243ZM131.846 181.382C133.007 181.382 133.987 181.112 134.788 180.572C135.598 180.023 136.209 179.241 136.623 178.224C137.046 177.198 137.257 175.971 137.257 174.54C137.257 173.146 137.051 171.918 136.637 170.856C136.223 169.795 135.616 168.967 134.815 168.373C134.014 167.77 133.025 167.469 131.846 167.469C130.632 167.469 129.62 167.784 128.81 168.414C128 169.034 127.389 169.88 126.975 170.951C126.57 172.021 126.368 173.218 126.368 174.54C126.368 175.899 126.574 177.091 126.988 178.116C127.402 179.142 128.014 179.942 128.823 180.518C129.642 181.094 130.65 181.382 131.846 181.382ZM153.683 185.457C151.641 185.457 149.882 185.021 148.406 184.148C146.94 183.266 145.807 182.029 145.006 180.437C144.214 178.836 143.818 176.96 143.818 174.81C143.818 172.687 144.214 170.816 145.006 169.196C145.807 167.577 146.922 166.313 148.352 165.404C149.792 164.496 151.474 164.042 153.399 164.042C154.569 164.042 155.702 164.235 156.8 164.622C157.897 165.009 158.883 165.616 159.755 166.444C160.628 167.271 161.316 168.346 161.82 169.669C162.324 170.982 162.575 172.579 162.575 174.459V175.89H146.099V172.867H158.622C158.622 171.805 158.406 170.865 157.974 170.047C157.542 169.219 156.935 168.567 156.152 168.09C155.378 167.613 154.47 167.375 153.426 167.375C152.293 167.375 151.303 167.654 150.458 168.211C149.621 168.76 148.973 169.48 148.514 170.37C148.065 171.252 147.84 172.21 147.84 173.245V175.606C147.84 176.992 148.083 178.17 148.568 179.142C149.063 180.113 149.751 180.855 150.633 181.368C151.515 181.872 152.545 182.124 153.723 182.124C154.488 182.124 155.185 182.016 155.815 181.8C156.445 181.575 156.989 181.242 157.448 180.801C157.906 180.361 158.257 179.816 158.5 179.169L162.319 179.857C162.013 180.981 161.464 181.966 160.673 182.812C159.89 183.649 158.905 184.301 157.718 184.769C156.539 185.228 155.194 185.457 153.683 185.457ZM165.152 185.039V164.311H169.052V167.604H169.268C169.646 166.489 170.312 165.611 171.265 164.973C172.228 164.325 173.316 164.001 174.531 164.001C174.783 164.001 175.08 164.01 175.421 164.028C175.772 164.046 176.047 164.069 176.245 164.096V167.955C176.083 167.91 175.795 167.86 175.381 167.806C174.967 167.743 174.553 167.712 174.139 167.712C173.186 167.712 172.336 167.914 171.589 168.319C170.851 168.715 170.267 169.268 169.835 169.979C169.403 170.681 169.187 171.481 169.187 172.381V185.039H165.152Z" fill="#93BF6A"/>
<defs>
<clipPath id="clip0_43_3132">
<rect width="165.5" height="117.077" fill="white" transform="translate(20.25 20.9614)"/>
</clipPath>
</defs>
</svg>
