<svg width="8337" height="8259" viewBox="0 0 8337 8259" fill="none" xmlns="http://www.w3.org/2000/svg">
<g clip-path="url(#clip0_169_3108)">
<path d="M8335.33 4037.8H1V4525.28H8335.33V4037.8Z" fill="#B1B1B1" stroke="#B1B1B1" stroke-width="2" stroke-miterlimit="2" stroke-linejoin="round"/>
<path fill-rule="evenodd" clip-rule="evenodd" d="M8333.56 4369.1L8331.81 7222.01L8111.93 7226.2L7938.11 7529.61H7451.2V8253.42L5118.31 8256.88L5113.89 7189.4L4435.74 7192.55L3209.88 7189.61L3209.24 6723.49H1457.68V6848.57H657.115V6260.42L2.73401 6256.96L4.39201 4369.1H8333.56Z" fill="#D4DBB5" stroke="#909F4E" stroke-width="4.16" stroke-miterlimit="1.5" stroke-linecap="round" stroke-linejoin="round"/>
<path d="M6777.54 4338.44H3907.16V5208.6H6777.54V4338.44Z" fill="#E1D6CC" stroke="#E5CCB1" stroke-width="4.26" stroke-miterlimit="1.5" stroke-linecap="round" stroke-linejoin="round"/>
<path fill-rule="evenodd" clip-rule="evenodd" d="M8143.73 4363.21V6279.44H6777.18V4363.21H8143.73ZM6358.18 6464.45L6360.47 7648.77H5743.78V6041.26H5988.54L5990.69 6307.19H8146.88V4363.21H8333.42V6464.45H7361.25V8097.73H6986.31V6464.45H6358.18Z" fill="#E1D6CC" stroke="#E1D6CC" stroke-width="4.17" stroke-miterlimit="1.5" stroke-linecap="round" stroke-linejoin="round"/>
<path d="M7038.58 6412.27H6308.44V7901.71H7038.58V6412.27Z" fill="#F7F6F2"/>
<path d="M5224.74 5333.32H3596.41V6077.89H5224.74V5333.32Z" fill="#E1D6CC" stroke="#E3C8AB" stroke-width="4.17" stroke-miterlimit="1.5" stroke-linecap="round" stroke-linejoin="round"/>
<path fill-rule="evenodd" clip-rule="evenodd" d="M5885.37 5386.17C5897.28 5386.17 5908.87 5390.95 5917.14 5399.39C5925.75 5407.94 5930.71 5419.49 5930.71 5431.48V5597.73H4605.11V5431.48C4605.11 5419.49 4610.08 5407.94 4618.35 5399.39C4626.96 5390.95 4638.54 5386.17 4650.46 5386.17H5885.37Z" fill="#B1C39E" stroke="#89A868" stroke-width="4.17" stroke-miterlimit="1.5" stroke-linecap="round" stroke-linejoin="round"/>
<path fill-rule="evenodd" clip-rule="evenodd" d="M5217.77 6978.12H3281.17V6001.52H3379.97V5845.32H4373.27L4372.47 5982.82L5930.67 5993.82L5931.47 7605.32L5217.77 7594.32V6978.12Z" fill="#DCD7D6" stroke="#C1C1C1" stroke-width="4.17" stroke-miterlimit="1.5" stroke-linecap="round" stroke-linejoin="round"/>
<path fill-rule="evenodd" clip-rule="evenodd" d="M6407.37 4363.26C6495.81 4363.26 6567.55 4440.8 6567.55 4536.45V5194.32H4007.55V4536.45C4007.55 4440.8 4079.28 4363.26 4167.73 4363.26H6407.37Z" fill="#B1C39E" stroke="#89A868" stroke-width="3.88" stroke-miterlimit="1.5" stroke-linecap="round" stroke-linejoin="round"/>
<path d="M2224.99 4363.46H2.625V6254.5H2224.99V4363.46Z" fill="#E1D6CC" stroke="#E5CCB1" stroke-width="4.18" stroke-miterlimit="1.5" stroke-linecap="round" stroke-linejoin="round"/>
<path d="M4496.72 5274.5H2182.17V5389.55H4496.72V5274.5Z" fill="#E1D6CC" stroke="#E5CCB1" stroke-width="4.17" stroke-miterlimit="1.5" stroke-linecap="round" stroke-linejoin="round"/>
<path fill-rule="evenodd" clip-rule="evenodd" d="M3947.55 4363.28V5192.46H2063.14V4551.26C2063.14 4447.42 2147.37 4363.28 2251.21 4363.28H3947.55Z" fill="#B1C39E" stroke="#89A868" stroke-width="4.17" stroke-miterlimit="1.5" stroke-linecap="round" stroke-linejoin="round"/>
<path d="M4373.12 5355.62H2063.13V5885.25H4373.12V5355.62Z" fill="#B1C39E" stroke="#B1C39E" stroke-width="4.15" stroke-miterlimit="1.5" stroke-linecap="round" stroke-linejoin="round"/>
<path fill-rule="evenodd" clip-rule="evenodd" d="M1770.27 5568.32H2107.67V6102.92H753.069V5568.32H1184.97V4913.22H1770.27V5568.32Z" fill="#F7F6F2" stroke="#E5CCB1" stroke-width="4.17" stroke-miterlimit="1.5" stroke-linecap="round" stroke-linejoin="round"/>
<path fill-rule="evenodd" clip-rule="evenodd" d="M6607.55 5194.32V6308.6H6689.61V5194.32H6607.55Z" fill="#F1EDE5" stroke="#E3C8AB" stroke-width="2.95" stroke-miterlimit="1.5" stroke-linecap="round" stroke-linejoin="round"/>
<path fill-rule="evenodd" clip-rule="evenodd" d="M6692.46 5276.32L6012.77 5274.52V6258.52C6012.77 6269.42 6021.57 6278.22 6032.47 6278.22H8333.37V6363.62H6181.97V7301.82C6181.97 7312.62 6177.57 7323.12 6169.97 7330.82C6162.27 7338.52 6151.77 7342.82 6140.87 7342.82C6130.07 7342.82 6119.57 7338.52 6111.87 7330.82C6104.17 7323.12 6099.87 7312.62 6099.87 7301.82V6363.62H5998.67C5961.17 6363.62 5930.67 6333.22 5930.67 6295.62V6095.82C5930.67 6079.32 5917.37 6065.92 5900.87 6065.92H4528.67C4491.17 6065.92 4460.67 6035.52 4460.67 5997.92V5274.52H1944.79C1950.06 5294.22 1952.88 5314.92 1952.88 5336.32C1952.88 5467.82 1846.12 5574.52 1714.61 5574.52C1583.1 5574.52 1476.34 5467.82 1476.34 5336.32C1476.34 5204.82 1583.1 5098.02 1714.61 5098.02C1792.11 5098.02 1861.02 5135.12 1904.54 5192.52H3925.5V4363.32H4007.55V5192.52C4007.55 5192.52 6419.91 5194.14 6671.35 5194.31C6676.94 5194.31 6682.32 5192.09 6686.28 5188.13C6690.24 5184.17 6692.46 5178.8 6692.46 5173.2C6692.46 5043.35 6692.46 4358.6 6692.46 4358.6H6774.46V5194.4C6774.46 5239.69 6737.75 5276.4 6692.46 5276.4V5276.32ZM5930.67 5274.52H4542.77V5960.82C4542.77 5971.72 4551.57 5980.52 4562.47 5980.52H5900.87C5908.77 5980.52 5916.37 5977.32 5921.97 5971.72C5927.57 5966.12 5930.67 5958.52 5930.67 5950.62V5274.52Z" fill="#F1EDE5" stroke="#E3C8AA" stroke-width="4" stroke-miterlimit="1.5" stroke-linecap="round" stroke-linejoin="round"/>
<path d="M1714.67 5484.54C1796.61 5484.54 1863.03 5418.12 1863.03 5336.18C1863.03 5254.24 1796.61 5187.82 1714.67 5187.82C1632.73 5187.82 1566.31 5254.24 1566.31 5336.18C1566.31 5418.12 1632.73 5484.54 1714.67 5484.54Z" fill="#E1D6CC" stroke="#E3C8AA" stroke-width="4.16" stroke-miterlimit="1.5" stroke-linecap="round" stroke-linejoin="round"/>
<path fill-rule="evenodd" clip-rule="evenodd" d="M4322.58 5834.22V5415.53H2133.81V5707.23H2064V5378.01C2064 5368.44 2067.79 5359.26 2074.62 5352.5C2081.3 5345.73 2090.55 5341.93 2100.12 5341.93H4356.27C4365.83 5341.93 4375.09 5345.73 4381.77 5352.5C4388.6 5359.26 4392.39 5368.44 4392.39 5378.01V5871.72C4392.39 5891.65 4376.3 5907.82 4356.27 5907.82H3362.27V5834.22H4322.58Z" fill="#70AE9C" stroke="#3A7D6A" stroke-width="4.16" stroke-miterlimit="1.5" stroke-linecap="round" stroke-linejoin="round"/>
<path fill-rule="evenodd" clip-rule="evenodd" d="M5796.94 6786.69V6107.34L5895.06 6107.73V6840.2C5895.06 6859.77 5879.25 6875.63 5859.69 6875.63H5700.79V6787.08L5796.94 6786.69Z" fill="#70AE9C" stroke="#5DA791" stroke-width="4.17" stroke-miterlimit="1.5" stroke-linecap="round" stroke-linejoin="round"/>
<path d="M4270.35 6601.96H4012.37V6776.44H4270.35V6601.96Z" fill="white" stroke="#CDCDCD" stroke-width="4.18" stroke-miterlimit="1.5" stroke-linecap="round" stroke-linejoin="round"/>
<path d="M2100.97 5705.82V5394.52C2100.97 5390.82 2102.47 5387.22 2105.07 5384.62C2107.77 5381.92 2111.37 5380.42 2115.07 5380.42H4340.37C4345.47 5380.42 4350.27 5382.42 4353.87 5386.02C4357.47 5389.62 4359.47 5394.42 4359.47 5399.52V5853.62C4359.47 5858.62 4357.47 5863.52 4353.87 5867.02C4350.27 5870.62 4345.47 5872.62 4340.37 5872.62H3436.57" stroke="#498A78" stroke-width="4.17" stroke-miterlimit="1.5" stroke-linecap="round" stroke-linejoin="round"/>
<path d="M5742.77 6820.82H5832.87C5839.47 6820.82 5844.87 6815.42 5844.87 6808.82V6110.02" stroke="#5DA791" stroke-width="4.17" stroke-miterlimit="1.5" stroke-linejoin="round"/>
<path fill-rule="evenodd" clip-rule="evenodd" d="M7878.14 4036.97H2839.55L2158.59 802.081L2698.16 674.499L2658.16 472.083L3153.69 362.088L3076.65 2.08691H6238.15V382.083L8233.52 628.596L8158.13 1062.05L8258.14 1082.05L7878.14 4036.97Z" fill="#D4DBB5" stroke="#909F4E" stroke-width="4.17" stroke-miterlimit="1.5" stroke-linecap="round" stroke-linejoin="round"/>
<path d="M6177.55 3302.13H4416.4V4037.05H6177.55V3302.13Z" fill="#E1D6CC"/>
<path fill-rule="evenodd" clip-rule="evenodd" d="M4338.17 4037.02H2839.57L2158.61 802.117L2698.17 674.537L2658.17 472.117L3153.71 362.117L3148.57 338.107C3174.07 451.737 3200.58 564.367 3228.17 675.897L3376.83 644.337L3827.87 2910.62L4338.17 2922.12V4037.02Z" fill="#E1D6CC" stroke="#E1B287" stroke-width="2" stroke-miterlimit="1.5" stroke-linecap="round" stroke-linejoin="round"/>
<path fill-rule="evenodd" clip-rule="evenodd" d="M4338.17 3581.52L2891.62 3582.12C2850.45 3582.12 2816.47 3549.92 2814.31 3508.82L2798.17 3202.12L2707.45 2847.52C2702.35 2827.52 2705.41 2806.42 2715.96 2788.72C2726.51 2771.02 2743.67 2758.22 2763.65 2753.22L3570.7 2551.52C3591.02 2546.42 3612.53 2549.82 3630.32 2560.82C3648.11 2571.92 3660.65 2589.72 3665.09 2610.12L3767.45 3082.12L4338.17 3062.12V1889.32C4338.17 1826.42 4363.16 1766.02 4407.63 1721.62C4452.11 1677.12 4512.43 1652.12 4575.33 1652.12H6017.54C6080.44 1652.12 6140.76 1677.12 6185.24 1721.62C6229.71 1766.02 6254.7 1826.42 6254.7 1889.32V4037.82H6176.51V3714.92C6176.51 3686.12 6167.14 3658.12 6149.81 3635.12C6092.27 3558.92 5995 3532.12 5884.7 3532.12H4718.17C4593.26 3532.12 4485.06 3571.42 4432.35 3669.12C4421.87 3688.42 4416.37 3710.12 4416.37 3732.22C4416.36 3811.22 4416.36 4037.82 4416.36 4037.82H4338.17V3581.52ZM4338.17 3162.12L2888.17 3222.12L2898.17 3482.12H4338.17V3162.12ZM6176.51 3552.52V1897.62C6176.51 1805.22 6101.61 1730.32 6009.23 1730.32H4583.64C4539.28 1730.32 4496.73 1747.92 4465.36 1779.32C4433.99 1810.72 4416.36 1853.22 4416.36 1897.62V3552.52C4475.03 3484.92 4561.61 3442.12 4658.17 3442.12H5934.7C6031.26 3442.12 6117.84 3484.92 6176.51 3552.52ZM3581.25 2647.12L2793.15 2843.22L2870.38 3141.42L3678.49 3097.02L3581.25 2647.12Z" fill="#F1EDE5" stroke="#E1BC9A" stroke-width="4.17" stroke-miterlimit="1.5" stroke-linecap="round" stroke-linejoin="round"/>
<path fill-rule="evenodd" clip-rule="evenodd" d="M6638.93 4036.86L6838.15 2742.05L6528.15 2702.05L6618.15 2062.05L6388.15 2002.05L6458.16 1482.05L6238.15 1452.03V382.049L8233.54 628.596L8158.15 1062.05L8258.15 1082.05L7878.15 4036.86H6638.93Z" fill="#E1D6CC" stroke="#E0BE9C" stroke-width="4.17" stroke-miterlimit="1.5" stroke-linecap="round" stroke-linejoin="round"/>
<path fill-rule="evenodd" clip-rule="evenodd" d="M6848.92 4037.02L7038.17 2752.12L7167.79 2764.92L7268.17 2012.12L6728.17 1932.12L6825.92 1166.92L8223.55 1351.12L7878.17 4037.02H6848.92Z" fill="#B1C39E" stroke="#8FA379" stroke-width="4.17" stroke-miterlimit="1.5" stroke-linecap="round" stroke-linejoin="round"/>
<path fill-rule="evenodd" clip-rule="evenodd" d="M7731.94 1427.81L7654.72 1417.19L7571.76 2020.41L7648.98 2031.03L7731.94 1427.81Z" fill="#F1EDE5" stroke="#D3D3D3" stroke-width="4.17" stroke-miterlimit="1.5" stroke-linecap="round" stroke-linejoin="round"/>
<path fill-rule="evenodd" clip-rule="evenodd" d="M7955.45 1318.6L7673.86 1279.87L7401.81 3258.07L7683.4 3296.8L7955.45 1318.6Z" fill="#E1D6CC" stroke="#D3D3D3" stroke-width="4.16" stroke-miterlimit="1.5" stroke-linecap="round" stroke-linejoin="round"/>
<path fill-rule="evenodd" clip-rule="evenodd" d="M3058.17 2942.12L3617.43 2818.32L3637.43 2906.72L3058.17 2942.12Z" fill="#B1C39E" stroke="#85A165" stroke-width="4.17" stroke-miterlimit="1.5" stroke-linecap="round" stroke-linejoin="round"/>
<path fill-rule="evenodd" clip-rule="evenodd" d="M5885.49 3642.16C5925.19 3642.16 5963.27 3654.49 5991.37 3676.66C6019.47 3698.66 6035.23 3728.66 6035.23 3759.83V3942.16H4558.71V3759.83C4558.71 3728.66 4574.48 3698.66 4602.57 3676.66C4630.67 3654.49 4668.76 3642.16 4708.45 3642.16H5885.49Z" fill="#D4DBB5" stroke="#C0CD87" stroke-width="5.1" stroke-miterlimit="1.5" stroke-linecap="round" stroke-linejoin="round"/>
<path fill-rule="evenodd" clip-rule="evenodd" d="M6692.5 4037.17L7039.91 1751.85C7044.1 1724.28 7069.61 1705.59 7096.94 1709.75C7124.26 1713.9 7143.06 1739.33 7138.87 1766.9L6793.74 4037.24L6692.5 4037.17Z" fill="#F0EEE1" stroke="#E0BE9C" stroke-width="4.18" stroke-miterlimit="1.5" stroke-linecap="round" stroke-linejoin="round"/>
<path fill-rule="evenodd" clip-rule="evenodd" d="M3478.69 2018.74L3538.56 2264.44L2596.1 2494.09L2546.21 2245.95L3478.69 2018.74Z" fill="#B1C39E" stroke="#819F61" stroke-width="4.16" stroke-miterlimit="1.5" stroke-linecap="round" stroke-linejoin="round"/>
<path fill-rule="evenodd" clip-rule="evenodd" d="M3187.24 2394.44L2841.81 2478.63L2864.17 2570.38L3209.6 2486.2L3187.24 2394.44Z" fill="#DFDFDF" stroke="#C8C8C8" stroke-width="4.16" stroke-miterlimit="1.5" stroke-linecap="round" stroke-linejoin="round"/>
<path d="M3597.55 4094.6H3497.55V4098.91H3597.55V4094.6Z" fill="#EBEBEB"/>
<path d="M3597.55 4108.2H3497.55V4112.51H3597.55V4108.2Z" fill="#EBEBEB"/>
<path d="M3597.55 4121.8H3497.55V4126.11H3597.55V4121.8Z" fill="#EBEBEB"/>
<path d="M3597.55 4135.4H3497.55V4139.71H3597.55V4135.4Z" fill="#EBEBEB"/>
<path d="M3597.55 4149H3497.55V4153.31H3597.55V4149Z" fill="#EBEBEB"/>
<path d="M3597.55 4162.6H3497.55V4166.91H3597.55V4162.6Z" fill="#EBEBEB"/>
<path d="M3597.55 4176.2H3497.55V4180.51H3597.55V4176.2Z" fill="#EBEBEB"/>
<path d="M3597.55 4189.8H3497.55V4194.11H3597.55V4189.8Z" fill="#EBEBEB"/>
<path d="M3597.55 4203.4H3497.55V4207.71H3597.55V4203.4Z" fill="#EBEBEB"/>
<path d="M3597.55 4217H3497.55V4221.31H3597.55V4217Z" fill="#EBEBEB"/>
<path d="M3597.55 4230.6H3497.55V4234.91H3597.55V4230.6Z" fill="#EBEBEB"/>
<path d="M3597.55 4244.2H3497.55V4248.51H3597.55V4244.2Z" fill="#EBEBEB"/>
<path d="M3597.55 4257.8H3497.55V4262.11H3597.55V4257.8Z" fill="#EBEBEB"/>
<path d="M3597.55 4271.4H3497.55V4275.71H3597.55V4271.4Z" fill="#EBEBEB"/>
<path d="M3597.55 4285H3497.55V4289.31H3597.55V4285Z" fill="#EBEBEB"/>
<path d="M3597.55 4298.6H3497.55V4302.91H3597.55V4298.6Z" fill="#EBEBEB"/>
<path d="M4337.55 4094.6H4237.55V4098.91H4337.55V4094.6Z" fill="#EBEBEB"/>
<path d="M4337.55 4108.2H4237.55V4112.51H4337.55V4108.2Z" fill="#EBEBEB"/>
<path d="M4337.55 4121.8H4237.55V4126.11H4337.55V4121.8Z" fill="#EBEBEB"/>
<path d="M4337.55 4135.4H4237.55V4139.71H4337.55V4135.4Z" fill="#EBEBEB"/>
<path d="M4337.55 4149H4237.55V4153.31H4337.55V4149Z" fill="#EBEBEB"/>
<path d="M4337.55 4162.6H4237.55V4166.91H4337.55V4162.6Z" fill="#EBEBEB"/>
<path d="M4337.55 4176.2H4237.55V4180.51H4337.55V4176.2Z" fill="#EBEBEB"/>
<path d="M4337.55 4189.8H4237.55V4194.11H4337.55V4189.8Z" fill="#EBEBEB"/>
<path d="M4337.55 4203.4H4237.55V4207.71H4337.55V4203.4Z" fill="#EBEBEB"/>
<path d="M4337.55 4217H4237.55V4221.31H4337.55V4217Z" fill="#EBEBEB"/>
<path d="M4337.55 4230.6H4237.55V4234.91H4337.55V4230.6Z" fill="#EBEBEB"/>
<path d="M4337.55 4244.2H4237.55V4248.51H4337.55V4244.2Z" fill="#EBEBEB"/>
<path d="M4337.55 4257.8H4237.55V4262.11H4337.55V4257.8Z" fill="#EBEBEB"/>
<path d="M4337.55 4271.4H4237.55V4275.71H4337.55V4271.4Z" fill="#EBEBEB"/>
<path d="M4337.55 4285H4237.55V4289.31H4337.55V4285Z" fill="#EBEBEB"/>
<path d="M4337.55 4298.6H4237.55V4302.91H4337.55V4298.6Z" fill="#EBEBEB"/>
<path d="M6367.55 4094.6H6267.55V4098.91H6367.55V4094.6Z" fill="#EBEBEB"/>
<path d="M6367.55 4108.2H6267.55V4112.51H6367.55V4108.2Z" fill="#EBEBEB"/>
<path d="M6367.55 4121.8H6267.55V4126.11H6367.55V4121.8Z" fill="#EBEBEB"/>
<path d="M6367.55 4135.4H6267.55V4139.71H6367.55V4135.4Z" fill="#EBEBEB"/>
<path d="M6367.55 4149H6267.55V4153.31H6367.55V4149Z" fill="#EBEBEB"/>
<path d="M6367.55 4162.6H6267.55V4166.91H6367.55V4162.6Z" fill="#EBEBEB"/>
<path d="M6367.55 4176.2H6267.55V4180.51H6367.55V4176.2Z" fill="#EBEBEB"/>
<path d="M6367.55 4189.8H6267.55V4194.11H6367.55V4189.8Z" fill="#EBEBEB"/>
<path d="M6367.55 4203.4H6267.55V4207.71H6367.55V4203.4Z" fill="#EBEBEB"/>
<path d="M6367.55 4217H6267.55V4221.31H6367.55V4217Z" fill="#EBEBEB"/>
<path d="M6367.55 4230.6H6267.55V4234.91H6367.55V4230.6Z" fill="#EBEBEB"/>
<path d="M6367.55 4244.2H6267.55V4248.51H6367.55V4244.2Z" fill="#EBEBEB"/>
<path d="M6367.55 4257.8H6267.55V4262.11H6367.55V4257.8Z" fill="#EBEBEB"/>
<path d="M6367.55 4271.4H6267.55V4275.71H6367.55V4271.4Z" fill="#EBEBEB"/>
<path d="M6367.55 4285H6267.55V4289.31H6367.55V4285Z" fill="#EBEBEB"/>
<path d="M6367.55 4298.6H6267.55V4302.91H6367.55V4298.6Z" fill="#EBEBEB"/>
<path fill-rule="evenodd" clip-rule="evenodd" d="M3209.54 2486.14L2864.11 2570.33L2886.47 2662.08L3231.9 2577.9L3209.54 2486.14Z" fill="#D8D8D8" stroke="#C8C8C8" stroke-width="4.16" stroke-miterlimit="1.5" stroke-linecap="round" stroke-linejoin="round"/>
<path fill-rule="evenodd" clip-rule="evenodd" d="M2893.82 2563.05L2886.55 2662.02L2841.83 2478.52L2893.82 2563.05Z" fill="#CECECE" stroke="#C8C8C8" stroke-width="4.17" stroke-miterlimit="1.5" stroke-linecap="round" stroke-linejoin="round"/>
<path fill-rule="evenodd" clip-rule="evenodd" d="M3179.52 2493.42L3231.92 2577.86L3187.19 2394.35L3179.52 2493.42Z" fill="#CECECE" stroke="#C8C8C8" stroke-width="4.17" stroke-miterlimit="1.5" stroke-linecap="round" stroke-linejoin="round"/>
<path fill-rule="evenodd" clip-rule="evenodd" d="M3565.84 2399.34L3220.41 2483.53L3242.77 2575.28L3588.2 2491.1L3565.84 2399.34Z" fill="#D8D8D8" stroke="#C8C8C8" stroke-width="4.16" stroke-miterlimit="1.5" stroke-linecap="round" stroke-linejoin="round"/>
<path fill-rule="evenodd" clip-rule="evenodd" d="M3543.44 2307.64L3198.01 2391.83L3220.37 2483.58L3565.8 2399.4L3543.44 2307.64Z" fill="#DFDFDF" stroke="#C8C8C8" stroke-width="4.16" stroke-miterlimit="1.5" stroke-linecap="round" stroke-linejoin="round"/>
<path fill-rule="evenodd" clip-rule="evenodd" d="M3658.2 2272.31L3779.75 2845.36L3742.65 2852.47L3618.18 2282.12L3658.2 2272.31Z" fill="#7CBA9D" stroke="#71B595" stroke-width="4.17" stroke-miterlimit="1.5" stroke-linecap="round" stroke-linejoin="round"/>
<path fill-rule="evenodd" clip-rule="evenodd" d="M3698.2 2262.12L3816.85 2838.24L3779.75 2845.36L3658.2 2272.31L3698.2 2262.12Z" fill="#88CBAB" stroke="#71B595" stroke-width="4.17" stroke-miterlimit="1.5" stroke-linecap="round" stroke-linejoin="round"/>
<path fill-rule="evenodd" clip-rule="evenodd" d="M4224.75 2981.53L3771.49 2982.12L3742.65 2852.47L3816.85 2838.24L3833.13 2914.86L4224.8 2914.85L4224.75 2981.53Z" fill="#88CBAB" stroke="#71B595" stroke-width="4.17" stroke-miterlimit="1.5" stroke-linecap="round" stroke-linejoin="round"/>
<path d="M4174.81 2981.52H4124.81V3292.62H4174.81V2981.52Z" fill="#7CBA9D" stroke="#71B595" stroke-width="4.17" stroke-miterlimit="1.5" stroke-linecap="round" stroke-linejoin="round"/>
<path d="M4174.81 3292.62H4124.81V3581.5H4174.81V3292.62Z" fill="#7CBA9D" stroke="#71B595" stroke-width="4.16" stroke-miterlimit="1.5" stroke-linecap="round" stroke-linejoin="round"/>
<path d="M4224.79 3292.62H4174.79V3581.5H4224.79V3292.62Z" fill="#88CBAB" stroke="#71B595" stroke-width="4.17" stroke-miterlimit="1.5" stroke-linecap="round" stroke-linejoin="round"/>
<path d="M4224.79 2981.52H4174.79V3292.62H4224.79V2981.52Z" fill="#88CBAB" stroke="#71B595" stroke-width="4.17" stroke-miterlimit="1.5" stroke-linecap="round" stroke-linejoin="round"/>
<path d="M4174.19 3748.6H3607.55V4004.15H4174.19V3748.6Z" fill="#E26E44" stroke="#E25F30" stroke-width="4.16" stroke-miterlimit="1.5" stroke-linecap="round" stroke-linejoin="round"/>
<path d="M8335.33 4037.02H2.54797V4088.6H8335.33V4037.02Z" fill="#D4D0CC" stroke="#E1B287" stroke-width="2" stroke-miterlimit="1.5" stroke-linecap="round" stroke-linejoin="round"/>
<path d="M8335.33 4309.81H2.54797V4361.39H8335.33V4309.81Z" fill="#D4D0CC" stroke="#E1B287" stroke-width="2" stroke-miterlimit="1.5" stroke-linecap="round" stroke-linejoin="round"/>
<path fill-rule="evenodd" clip-rule="evenodd" d="M3249.99 2476.26L3242.71 2575.23L3197.99 2391.72L3249.99 2476.26Z" fill="#CECECE" stroke="#C8C8C8" stroke-width="4.17" stroke-miterlimit="1.5" stroke-linecap="round" stroke-linejoin="round"/>
<path fill-rule="evenodd" clip-rule="evenodd" d="M3536.15 2406.48L3588.2 2491L3543.48 2307.49L3536.15 2406.48Z" fill="#CECECE" stroke="#C8C8C8" stroke-width="4.17" stroke-miterlimit="1.5" stroke-linecap="round" stroke-linejoin="round"/>
<path d="M7167.55 3986.26H6367.55V4036.26H7167.55V3986.26Z" fill="#70AE9C" stroke="#3A7D6A" stroke-width="4" stroke-miterlimit="1.5" stroke-linecap="round" stroke-linejoin="round"/>
<path d="M6457.55 4011.35L7166.55 4009.97" stroke="#3A7D6A" stroke-width="4.03" stroke-miterlimit="1.5" stroke-linecap="round" stroke-linejoin="round"/>
<path d="M5176.99 2047.54H4761.49V2480.67H5176.99V2047.54Z" fill="#E1D6CC" stroke="#E2CCB8" stroke-width="4.31" stroke-miterlimit="1.5" stroke-linecap="round" stroke-linejoin="round"/>
<path d="M5176.95 2619.62H4776.35V2967.25H5176.95V2619.62Z" fill="#E1D6CC" stroke="#E2CCB8" stroke-width="4.34" stroke-miterlimit="1.5" stroke-linecap="round" stroke-linejoin="round"/>
<path d="M5811.98 2263.4H5355V2937.13H5811.98V2263.4Z" fill="#C8C8C8" stroke="#C8C8C8" stroke-width="4.35" stroke-miterlimit="1.5" stroke-linecap="round" stroke-linejoin="round"/>
<path fill-rule="evenodd" clip-rule="evenodd" d="M4840.29 2795.14H4741.88V2846.94H4708.53V2917.46H4667.55V3341.66H5909.01V2930.56H5883.38V2863.23H5856.43V2804.69L4840.29 2795.14Z" fill="#CECECE" stroke="#C8C8C8" stroke-width="4.34" stroke-miterlimit="1.5" stroke-linecap="round" stroke-linejoin="round"/>
<path fill-rule="evenodd" clip-rule="evenodd" d="M5881.94 2955.49V3316.7H4694.59V2942.42H4708.53C4723.47 2942.42 4735.58 2931.24 4735.58 2917.46V2871.9H4741.88C4756.81 2871.9 4768.92 2860.72 4768.92 2846.94V2820.1H4840.16L5829.43 2829.39V2863.23C5829.43 2876.98 5841.47 2888.14 5856.37 2888.19V2930.56C5856.37 2943.9 5867.66 2954.8 5881.94 2955.49Z" fill="#DFDFDF"/>
<path fill-rule="evenodd" clip-rule="evenodd" d="M5881.94 2955.49V3316.7H4694.59V2942.42H4708.53C4723.47 2942.42 4735.58 2931.24 4735.58 2917.46V2871.9H4741.88C4756.81 2871.9 4768.92 2860.72 4768.92 2846.94V2820.1H4840.16L5829.43 2829.39V2863.23C5829.43 2876.98 5841.47 2888.14 5856.37 2888.19V2930.56C5856.37 2943.9 5867.66 2954.8 5881.94 2955.49ZM5877.45 2959.17C5862.86 2956.6 5851.82 2944.77 5851.82 2930.56V2892.05C5836.6 2889.98 5824.88 2877.87 5824.88 2863.23V2833.52L4840.13 2824.28H4773.43V2846.94C4773.43 2863.03 4759.31 2876.07 4741.88 2876.07H4740.09V2917.46C4740.09 2933.54 4725.97 2946.58 4708.53 2946.58H4699.11V3312.54H5877.45V2959.17Z" fill="#C8C8C8"/>
<path fill-rule="evenodd" clip-rule="evenodd" d="M4934 1974.06V2058.82L4873.39 2065.83V1981.07L4934 1974.06Z" fill="#F4F4F4" stroke="#C8C8C8" stroke-width="4.35" stroke-miterlimit="1.5" stroke-linecap="round" stroke-linejoin="round"/>
<path d="M5853.96 1838.6H5718.24V2007.97H5853.96V1838.6Z" stroke="#C8C8C8" stroke-width="4.35" stroke-miterlimit="1.5" stroke-linecap="round" stroke-linejoin="round"/>
<path d="M5853.96 1838.6H5718.24V2007.97H5853.96V1838.6Z" fill="#88CBAB" stroke="#519A78" stroke-width="4.35" stroke-miterlimit="1.5" stroke-linecap="round" stroke-linejoin="round"/>
<path d="M5967.54 2116.62H5681.96V2549.61H5967.54V2116.62Z" fill="#CFCDCD" stroke="#C8C8C8" stroke-width="4.48" stroke-miterlimit="1.5" stroke-linecap="round" stroke-linejoin="round"/>
<path d="M5952.13 2130.94H5697.5V2535.3H5952.13V2130.94Z" stroke="#C8C8C8" stroke-width="4.48" stroke-miterlimit="1.5" stroke-linecap="round" stroke-linejoin="round"/>
<path d="M5952.13 2130.94H5697.5V2535.3H5952.13V2130.94Z" fill="#DFDFDF" stroke="#C8C8C8" stroke-width="4.48" stroke-miterlimit="1.5" stroke-linecap="round" stroke-linejoin="round"/>
<path d="M5634.04 2016.82V2450.27" stroke="#C8C8C8" stroke-width="4.18" stroke-miterlimit="1.5" stroke-linecap="round" stroke-linejoin="round"/>
<path d="M5634.04 2016.82V2450.27" stroke="#C8C8C8" stroke-width="4.18" stroke-miterlimit="1.5" stroke-linecap="round" stroke-linejoin="round"/>
<path fill-rule="evenodd" clip-rule="evenodd" d="M5681.99 2117.1V2549.61L5586.04 2349.57V1917.05L5681.99 2117.1Z" fill="#DFDFDF" stroke="#C8C8C8" stroke-width="4.31" stroke-miterlimit="1.5" stroke-linecap="round" stroke-linejoin="round"/>
<path d="M5634.04 2016.82V2450.27" stroke="#C8C8C8" stroke-width="4.18" stroke-miterlimit="1.5" stroke-linecap="round" stroke-linejoin="round"/>
<path d="M5634.04 2016.82V2450.27" stroke="#C8C8C8" stroke-width="4.18" stroke-miterlimit="1.5" stroke-linecap="round" stroke-linejoin="round"/>
<path d="M5608.04 1963.12V2393.84" stroke="#C8C8C8" stroke-width="4.19" stroke-miterlimit="1.5" stroke-linecap="round" stroke-linejoin="round"/>
<path d="M5608.04 1963.12V2393.84" stroke="#C8C8C8" stroke-width="4.19" stroke-miterlimit="1.5" stroke-linecap="round" stroke-linejoin="round"/>
<path d="M5608.04 1963.12V2393.84" stroke="#C8C8C8" stroke-width="4.19" stroke-miterlimit="1.5" stroke-linecap="round" stroke-linejoin="round"/>
<path d="M5608.04 1963.12V2393.84" stroke="#C8C8C8" stroke-width="4.19" stroke-miterlimit="1.5" stroke-linecap="round" stroke-linejoin="round"/>
<path d="M5660.91 2078.37V2504.66" stroke="#C8C8C8" stroke-width="4.19" stroke-miterlimit="1.5" stroke-linecap="round" stroke-linejoin="round"/>
<path d="M5660.91 2078.37V2504.66" stroke="#C8C8C8" stroke-width="4.19" stroke-miterlimit="1.5" stroke-linecap="round" stroke-linejoin="round"/>
<path d="M5660.91 2078.37V2504.66" stroke="#C8C8C8" stroke-width="4.19" stroke-miterlimit="1.5" stroke-linecap="round" stroke-linejoin="round"/>
<path d="M5660.91 2078.37V2504.66" stroke="#C8C8C8" stroke-width="4.19" stroke-miterlimit="1.5" stroke-linecap="round" stroke-linejoin="round"/>
<path fill-rule="evenodd" clip-rule="evenodd" d="M5904.35 2549.61V2665.19H5638.74L5682.22 2549.61H5904.35Z" fill="#DFDFDF" stroke="#C8C8C8" stroke-width="4.49" stroke-miterlimit="1.5" stroke-linecap="round" stroke-linejoin="round"/>
<path d="M5767.69 2549.62V2665.19" stroke="#C8C8C8" stroke-width="4.34" stroke-miterlimit="1.5" stroke-linecap="round" stroke-linejoin="round"/>
<path d="M5767.69 2549.62V2665.19" stroke="#C8C8C8" stroke-width="4.34" stroke-miterlimit="1.5" stroke-linecap="round" stroke-linejoin="round"/>
<path d="M5767.69 2549.62V2665.19" stroke="#C8C8C8" stroke-width="4.34" stroke-miterlimit="1.5" stroke-linecap="round" stroke-linejoin="round"/>
<path d="M5767.69 2549.62V2665.19" stroke="#C8C8C8" stroke-width="4.34" stroke-miterlimit="1.5" stroke-linecap="round" stroke-linejoin="round"/>
<path d="M5586.11 1917.06H4934.29V2349.57H5586.11V1917.06Z" fill="#CECECE" stroke="#C8C8C8" stroke-width="4.41" stroke-miterlimit="1.5" stroke-linecap="round" stroke-linejoin="round"/>
<path d="M5569.14 1932.71H4951.24V2333.92H5569.14V1932.71Z" fill="#DFDFDF" stroke="#C8C8C8" stroke-width="4.41" stroke-miterlimit="1.5" stroke-linecap="round" stroke-linejoin="round"/>
<path d="M5856.32 2665.19H5767.58V2804.25H5856.32V2665.19Z" fill="#DFDFDF" stroke="#C8C8C8" stroke-width="4.38" stroke-miterlimit="1.5" stroke-linecap="round" stroke-linejoin="round"/>
<path d="M4980.57 2465.42H4761.19V2645.38H4980.57V2465.42Z" fill="#F4F4F4" stroke="#C8C8C8" stroke-width="4.37" stroke-miterlimit="1.5" stroke-linecap="round" stroke-linejoin="round"/>
<path d="M4774.5 2465.41H4761.16V2645.37H4774.5V2465.41Z" fill="#CECECE" stroke="#C8C8C8" stroke-width="4.21" stroke-miterlimit="1.5" stroke-linecap="round" stroke-linejoin="round"/>
<path fill-rule="evenodd" clip-rule="evenodd" d="M5739.24 2989.73L5759.23 3018C5400.02 3145.8 5116.42 3124.17 4810.68 3022.03V2964.5L5739.24 2989.73Z" fill="#CECECE" stroke="#C8C8C8" stroke-width="4.51" stroke-miterlimit="1.5" stroke-linecap="round" stroke-linejoin="round"/>
<path fill-rule="evenodd" clip-rule="evenodd" d="M5759.27 2932.62V3017.77L5739.25 2989.24V2909.93L5759.27 2932.62Z" fill="#CECECE" stroke="#C8C8C8" stroke-width="4.34" stroke-miterlimit="1.5" stroke-linecap="round" stroke-linejoin="round"/>
<path fill-rule="evenodd" clip-rule="evenodd" d="M5026.15 2348.86H5509.24L5739.25 2908.98V2990.77C5617.7 3035.59 5445.57 3078.91 5285.01 3074.14C5035.51 3066.75 4809.47 2990.77 4809.47 2990.77V2881.42C4809.47 2881.42 5025.85 2352.4 5026.15 2348.86Z" fill="#DFDFDF"/>
<path fill-rule="evenodd" clip-rule="evenodd" d="M5026.15 2348.86H5509.24L5739.25 2908.98V2990.77C5617.7 3035.59 5445.57 3078.91 5285.01 3074.14C5035.51 3066.75 4809.47 2990.77 4809.47 2990.77V2881.42C4809.47 2881.42 5025.85 2352.4 5026.15 2348.86ZM5029.31 2353.03C5028.24 2355.9 5026.54 2360.32 5024.25 2366.08C4989.81 2452.27 4821.93 2862.77 4813.99 2882.17V2987.83C4841.3 2996.69 5053.05 3063.1 5285.15 3069.98C5443.82 3074.69 5613.83 3032.21 5734.76 2987.95V2909.74L5506.13 2353.03H5029.31Z" fill="#C8C8C8"/>
<path d="M5254.61 1932.7H5191.68V2333.91H5254.61V1932.7Z" fill="#C8C8C8" stroke="#C8C8C8" stroke-width="4.32" stroke-miterlimit="1.5" stroke-linecap="round" stroke-linejoin="round"/>
<path d="M5328.5 1932.7H5265.57V2333.91H5328.5V1932.7Z" fill="#C8C8C8" stroke="#C8C8C8" stroke-width="4.32" stroke-miterlimit="1.5" stroke-linecap="round" stroke-linejoin="round"/>
<path fill-rule="evenodd" clip-rule="evenodd" d="M5277.23 3073.89V2348.86H5509.24L5739.25 2908.98V2990.77C5617.7 3035.59 5445.57 3078.91 5285.01 3074.14C5282.41 3074.07 5279.82 3073.99 5277.23 3073.89Z" stroke="#C8C8C8" stroke-width="4.34" stroke-miterlimit="1.5" stroke-linecap="round" stroke-linejoin="round"/>
<path fill-rule="evenodd" clip-rule="evenodd" d="M5639.84 2666.85L5759.33 2894.41L5759.08 2931.66L5739.25 2908.98L5639.84 2666.85Z" fill="#CECECE" stroke="#C8C8C8" stroke-width="4.34" stroke-miterlimit="1.5" stroke-linecap="round" stroke-linejoin="round"/>
<path fill-rule="evenodd" clip-rule="evenodd" d="M4749.33 2041.87C4752.48 2041.87 4755.48 2043.02 4757.71 2045.07C4759.93 2047.12 4761.18 2049.91 4761.18 2052.81V2471.7C4761.18 2474.6 4759.93 2477.38 4757.71 2479.44C4755.48 2481.48 4752.48 2482.64 4749.33 2482.64C4746.18 2482.64 4743.17 2481.48 4740.95 2479.44C4738.73 2477.38 4737.48 2474.6 4737.48 2471.7V2052.81C4737.48 2049.91 4738.73 2047.12 4740.95 2045.07C4743.17 2043.02 4746.18 2041.87 4749.33 2041.87Z" fill="#F4F4F4" stroke="#C8C8C8" stroke-width="4.33" stroke-miterlimit="1.5" stroke-linecap="round" stroke-linejoin="round"/>
<path d="M5386.57 3341.66V3738.6" stroke="#CECECE" stroke-width="4.34" stroke-miterlimit="1.5" stroke-linecap="round" stroke-linejoin="round"/>
<path d="M5678.95 3341.66H4948.13V3738.6H5678.95V3341.66Z" fill="#DFDFDF" stroke="#C8C8C8" stroke-width="4.33" stroke-miterlimit="1.5" stroke-linecap="round" stroke-linejoin="round"/>
<path d="M5386.57 3341.66V3738.6" stroke="#CECECE" stroke-width="4.34" stroke-miterlimit="1.5" stroke-linecap="round" stroke-linejoin="round"/>
<path d="M5386.57 3341.66V3738.6" stroke="#CECECE" stroke-width="4.34" stroke-miterlimit="1.5" stroke-linecap="round" stroke-linejoin="round"/>
<path d="M5386.57 3341.66V3738.6" stroke="#CECECE" stroke-width="4.34" stroke-miterlimit="1.5" stroke-linecap="round" stroke-linejoin="round"/>
<path d="M5116.33 3341.67L5109.5 3738.61" stroke="#CECECE" stroke-width="4.35" stroke-miterlimit="1.5" stroke-linecap="round" stroke-linejoin="round"/>
<path d="M5116.33 3341.67L5109.5 3738.61" stroke="#CECECE" stroke-width="4.35" stroke-miterlimit="1.5" stroke-linecap="round" stroke-linejoin="round"/>
<path d="M5116.33 3341.67L5109.5 3738.61" stroke="#CECECE" stroke-width="4.35" stroke-miterlimit="1.5" stroke-linecap="round" stroke-linejoin="round"/>
<path d="M5116.33 3341.67L5109.5 3738.61" stroke="#CECECE" stroke-width="4.35" stroke-miterlimit="1.5" stroke-linecap="round" stroke-linejoin="round"/>
<path d="M5786.86 1840.13L5785 2007.26" stroke="#519A78" stroke-width="4.34" stroke-miterlimit="1.5" stroke-linecap="round" stroke-linejoin="round"/>
<path fill-rule="evenodd" clip-rule="evenodd" d="M8048.85 723.041L7964.21 711.401L7881.26 1314.62L7965.9 1326.26L8048.85 723.041Z" fill="#F1EDE5" stroke="#D3D3D3" stroke-width="4.17" stroke-miterlimit="1.5" stroke-linecap="round" stroke-linejoin="round"/>
<path fill-rule="evenodd" clip-rule="evenodd" d="M7096.63 895.771L7174.73 602.108L8046.88 721.688L7988.73 1015.8L7096.63 895.771Z" fill="#E58664" stroke="#E16C41" stroke-width="4.17" stroke-miterlimit="1.5" stroke-linecap="round" stroke-linejoin="round"/>
<path fill-rule="evenodd" clip-rule="evenodd" d="M7092.2 1203.84L7096.6 895.772L7988.7 1015.8L7965.55 1314.7L7092.2 1203.84Z" fill="#DF7651" stroke="#E16C41" stroke-width="4.17" stroke-miterlimit="1.5" stroke-linecap="round" stroke-linejoin="round"/>
<path fill-rule="evenodd" clip-rule="evenodd" d="M7565.34 2632.42L7283.75 2593.7L7271.74 2681L7553.34 2719.73L7565.34 2632.42Z" fill="#F1EDE5" stroke="#D3D3D3" stroke-width="4.17" stroke-miterlimit="1.5" stroke-linecap="round" stroke-linejoin="round"/>
<path fill-rule="evenodd" clip-rule="evenodd" d="M7427.57 2676.64L7264.27 2681L7351.18 2020.77L7509.55 2042.66L7427.57 2676.64Z" fill="#DF7651" stroke="#E16C41" stroke-width="4.16" stroke-miterlimit="1.5" stroke-linecap="round" stroke-linejoin="round"/>
<path fill-rule="evenodd" clip-rule="evenodd" d="M7647.56 2061.73L7560.7 2721.66L7427.51 2676.65L7509.62 2042.67L7647.56 2061.73Z" fill="#E58664" stroke="#E16C41" stroke-width="4.17" stroke-miterlimit="1.5" stroke-linecap="round" stroke-linejoin="round"/>
<path fill-rule="evenodd" clip-rule="evenodd" d="M7558.55 2732.65L7263.75 2692.11L7251.75 2779.42L7546.54 2819.96L7558.55 2732.65Z" fill="#F1EDE5" stroke="#D3D3D3" stroke-width="4.36" stroke-miterlimit="1.5" stroke-linecap="round" stroke-linejoin="round"/>
<path fill-rule="evenodd" clip-rule="evenodd" d="M7424.55 2733.16L7341.54 3338.6L7176.55 3315.84L7261.18 2693.11L7424.55 2733.16Z" fill="#DF7651" stroke="#E16C41" stroke-width="4.16" stroke-miterlimit="1.5" stroke-linecap="round" stroke-linejoin="round"/>
<path fill-rule="evenodd" clip-rule="evenodd" d="M7570.24 3206.96L7548.3 3366.95L7341.55 3338.6L7424.56 2733.16L7557.88 2732.78L7500.37 3152.25L7570.24 3206.96Z" fill="#E58664" stroke="#E16C41" stroke-width="4.17" stroke-miterlimit="1.5" stroke-linecap="round" stroke-linejoin="round"/>
<path fill-rule="evenodd" clip-rule="evenodd" d="M7355.34 2006.7L7459.03 1250.64L7616.22 1270.6V1270.61L7616.14 1270.6L7513.71 2028.59L7355.34 2006.7Z" fill="#DF7651"/>
<path fill-rule="evenodd" clip-rule="evenodd" d="M7619.4 1271.03C7619.36 1271.28 7619.3 1271.51 7619.22 1271.74L7516.88 2029.02C7516.77 2029.86 7516.32 2030.62 7515.65 2031.13C7514.97 2031.65 7514.11 2031.87 7513.27 2031.76L7354.91 2009.87C7353.16 2009.63 7351.93 2008.02 7352.17 2006.27L7455.86 1250.2C7456.1 1248.46 7457.7 1247.24 7459.44 1247.46L7616.63 1267.42C7618.3 1267.64 7619.52 1269.12 7619.42 1270.8C7619.41 1270.88 7619.4 1270.95 7619.4 1271.03ZM7615.71 1273.77C7615.72 1273.77 7615.73 1273.77 7615.74 1273.78L7615.93 1273.79C7615.89 1273.78 7615.86 1273.78 7615.82 1273.77L7615.71 1273.76L7615.72 1273.68C7615.9 1273.73 7616.04 1273.77 7616.13 1273.78C7616.11 1273.74 7616.04 1273.61 7615.95 1273.42C7615.9 1273.35 7615.85 1273.28 7615.79 1273.19L7616.14 1270.6L7616.22 1270.61V1270.6L7613.42 1270.24C7613.21 1270.06 7613.07 1270.01 7613.05 1270.17C7613.05 1270.18 7613.05 1270.19 7613.05 1270.2L7459.03 1250.64L7355.34 2006.7L7513.71 2028.59L7615.71 1273.77Z" fill="#E16C41"/>
<path fill-rule="evenodd" clip-rule="evenodd" d="M7616.22 1270.61L7755.89 1288.11L7713.54 1597.05L7695.7 1597.56L7657.43 1876.63L7671.29 1905.18L7651.73 2047.66L7513.78 2028.6L7616.22 1270.61Z" fill="#E58664"/>
<path fill-rule="evenodd" clip-rule="evenodd" d="M7616.62 1267.43L7756.29 1284.94C7757.14 1285.04 7757.91 1285.49 7758.43 1286.16C7758.95 1286.84 7759.18 1287.7 7759.07 1288.55L7716.71 1597.48C7716.49 1599.03 7715.19 1600.2 7713.63 1600.25L7698.5 1600.68L7660.74 1876.11L7674.17 1903.79C7674.44 1904.35 7674.55 1904.99 7674.46 1905.62L7654.9 2048.09C7654.78 2048.93 7654.34 2049.7 7653.66 2050.21C7652.98 2050.72 7652.13 2050.94 7651.29 2050.83L7513.34 2031.77C7511.59 2031.52 7510.37 2029.91 7510.61 2028.17L7613.05 1270.18C7613.29 1268.44 7614.88 1267.22 7616.62 1267.43ZM7616.22 1270.61L7513.78 2028.6L7651.73 2047.66L7671.29 1905.18L7657.43 1876.63L7695.7 1597.56L7713.54 1597.05L7755.89 1288.11L7616.22 1270.61Z" fill="#E16C41"/>
<path fill-rule="evenodd" clip-rule="evenodd" d="M7874.42 3274.63L7566.58 3232.43L7534.24 3468.31L7842.08 3510.52L7874.42 3274.63Z" fill="#E58664" stroke="#E16C41" stroke-width="4.16" stroke-miterlimit="1.5" stroke-linecap="round" stroke-linejoin="round"/>
<path fill-rule="evenodd" clip-rule="evenodd" d="M7857.73 3396.74L7549.89 3354.53L7534.28 3468.32L7842.13 3510.53L7857.73 3396.74Z" fill="#E26E44" stroke="#E16C41" stroke-width="4.16" stroke-miterlimit="1.5" stroke-linecap="round" stroke-linejoin="round"/>
<path fill-rule="evenodd" clip-rule="evenodd" d="M7458.19 1252.12L6891.94 1174.48L6842.66 1533.91L7408.91 1611.54L7458.19 1252.12Z" fill="#F98D66" stroke="#E16C41" stroke-width="4.17" stroke-miterlimit="1.5" stroke-linecap="round" stroke-linejoin="round"/>
<path fill-rule="evenodd" clip-rule="evenodd" d="M6951.76 737.498L6778.9 1998.18L6611.1 1990.84L6788.17 699.402L6951.76 737.498Z" fill="#E58664" stroke="#E16C41" stroke-width="4.17" stroke-miterlimit="1.5" stroke-linecap="round" stroke-linejoin="round"/>
<path fill-rule="evenodd" clip-rule="evenodd" d="M6788.16 699.4L6611.1 1990.84L6447.51 1952.74L6620.36 692.059L6788.16 699.4Z" fill="#DF7651" stroke="#E16C41" stroke-width="4.17" stroke-miterlimit="1.5" stroke-linecap="round" stroke-linejoin="round"/>
<path fill-rule="evenodd" clip-rule="evenodd" d="M8063.64 1765.28L7941.55 1748.54L7734.93 3255.49L7857.02 3272.23L8063.64 1765.28Z" fill="#E58664" stroke="#E16C41" stroke-width="4.17" stroke-miterlimit="1.5" stroke-linecap="round" stroke-linejoin="round"/>
<path fill-rule="evenodd" clip-rule="evenodd" d="M7941.55 1748.56L7802.02 1729.42L7595.4 3236.38L7734.93 3255.51L7941.55 1748.56Z" fill="#DF7651" stroke="#E16C41" stroke-width="4.17" stroke-miterlimit="1.5" stroke-linecap="round" stroke-linejoin="round"/>
<path fill-rule="evenodd" clip-rule="evenodd" d="M8138.15 1340.07L7818.56 1296.25L7760.02 1723.25L8079.61 1767.07L8138.15 1340.07Z" fill="#E26539" stroke="#E16C41" stroke-width="4.16" stroke-miterlimit="1.5" stroke-linecap="round" stroke-linejoin="round"/>
<path fill-rule="evenodd" clip-rule="evenodd" d="M8068.62 1752.53L7774.58 1712.21L7829.62 1310.78C7855.25 1314.29 8123.66 1351.09 8123.66 1351.09L8068.62 1752.53Z" fill="#DF7651" stroke="#E16C41" stroke-width="4.16" stroke-miterlimit="1.5" stroke-linecap="round" stroke-linejoin="round"/>
<path fill-rule="evenodd" clip-rule="evenodd" d="M7920.32 1732.19L7975.36 1330.76C8050.27 1341.03 8123.69 1351.1 8123.69 1351.1L8068.65 1752.53L7920.32 1732.19Z" fill="#E58664" stroke="#E16C41" stroke-width="4.17" stroke-miterlimit="1.5" stroke-linecap="round" stroke-linejoin="round"/>
<path fill-rule="evenodd" clip-rule="evenodd" d="M7926.3 1687.17L8065.36 1752.2L7775.1 1712.4L7926.3 1687.17Z" fill="#E26E44" stroke="#E16C41" stroke-width="4.17" stroke-miterlimit="1.5" stroke-linecap="round" stroke-linejoin="round"/>
<path fill-rule="evenodd" clip-rule="evenodd" d="M7968.95 1375.9L8120.35 1350.93L7830.09 1311.13L7968.95 1375.9Z" fill="#E26E44" stroke="#E16C41" stroke-width="4.17" stroke-miterlimit="1.5" stroke-linecap="round" stroke-linejoin="round"/>
<path fill-rule="evenodd" clip-rule="evenodd" d="M7527.55 3373.68L7174.55 3325.28L7141.67 3565.09L7494.67 3613.49L7527.55 3373.68Z" fill="#E26E44" stroke="#F45C25" stroke-width="4.16" stroke-miterlimit="1.5" stroke-linecap="round" stroke-linejoin="round"/>
<path d="M7157.55 3445.6L7511.55 3494.13" stroke="#F45C25" stroke-width="3.2" stroke-miterlimit="1.5" stroke-linecap="round" stroke-linejoin="round"/>
<path fill-rule="evenodd" clip-rule="evenodd" d="M3166.76 694.964L2770.8 782.308L2788.77 863.774L3184.73 776.43L3166.76 694.964Z" fill="#71B595" stroke="#448F6C" stroke-width="4.17" stroke-miterlimit="1.5" stroke-linecap="round" stroke-linejoin="round"/>
<path fill-rule="evenodd" clip-rule="evenodd" d="M2771.26 788.07L2662.06 811.708L2664.33 822.196L2773.53 798.558L2771.26 788.07Z" fill="white"/>
<path fill-rule="evenodd" clip-rule="evenodd" d="M2694.55 693.609L2749.63 686.679L2773.77 796.147L2721.34 805.863L2719.42 806.349L2694.55 693.609Z" fill="#71B595" stroke="#448F6C" stroke-width="4.18" stroke-miterlimit="1.5" stroke-linecap="round" stroke-linejoin="round"/>
<path fill-rule="evenodd" clip-rule="evenodd" d="M2694.64 693.615L2640.55 710.751L2664.7 820.228L2719.51 806.342L2694.64 693.615Z" fill="#71B595" stroke="#448F6C" stroke-width="4.17" stroke-miterlimit="1.5" stroke-linecap="round" stroke-linejoin="round"/>
<path fill-rule="evenodd" clip-rule="evenodd" d="M3120.16 410.423L3007.53 435.043L3069.44 718.261L3182.07 693.64L3120.16 410.423Z" fill="white"/>
<path fill-rule="evenodd" clip-rule="evenodd" d="M3137.86 538.227L3181.23 693.963L2765.67 785.633L2724.52 629.863L2702.78 500.555L3118.35 408.885L3137.86 538.227Z" fill="#DF7651" stroke="#E25F30" stroke-width="4.16" stroke-miterlimit="1.5" stroke-linecap="round" stroke-linejoin="round"/>
<path fill-rule="evenodd" clip-rule="evenodd" d="M2724.6 629.861L2702.86 500.552L3118.43 408.882L3137.93 538.225L3138.05 538.658L2724.6 629.861Z" fill="#E58664" stroke="#E25F30" stroke-width="4.16" stroke-miterlimit="1.5" stroke-linecap="round" stroke-linejoin="round"/>
<path fill-rule="evenodd" clip-rule="evenodd" d="M3171.54 768.977C3185.38 765.924 3199.07 774.667 3202.12 788.498C3234.65 935.968 3400.88 1689.54 3433.41 1837.01C3436.46 1850.86 3427.72 1864.55 3413.89 1867.6C3338.93 1884.13 3116.92 1933.11 3041.95 1949.64C3028.12 1952.69 3014.42 1943.95 3011.37 1930.11C2978.84 1782.64 2812.61 1029.07 2780.08 881.595C2777.03 867.764 2785.78 854.073 2799.6 851.023C2874.58 834.485 3096.58 785.512 3171.54 768.977Z" fill="#E26E44" stroke="#E25F30" stroke-width="4.17" stroke-miterlimit="1.5" stroke-linecap="round" stroke-linejoin="round"/>
<path fill-rule="evenodd" clip-rule="evenodd" d="M3415.47 1854.55L3035.03 1938.47C3032.73 1938.98 3030.31 1938.54 3028.32 1937.27C3026.34 1936.01 3024.94 1934 3024.43 1931.69L2791.26 874.68C2790.77 872.442 2791.16 870.106 2792.34 868.153C2792.38 868.09 2792.42 868.026 2792.45 867.979C2793.71 865.98 2795.73 864.581 2798.03 864.072L3178.47 780.152C3180.77 779.643 3183.18 780.068 3185.17 781.349C3185.38 781.478 3185.59 781.624 3185.78 781.772C3187.45 783.042 3188.62 784.872 3189.07 786.927L3422.24 1843.94C3422.74 1846.24 3422.31 1848.66 3421.04 1850.64C3419.77 1852.63 3417.77 1854.04 3415.47 1854.55Z" fill="#DF7651" stroke="#E25F30" stroke-width="4.17" stroke-miterlimit="1.5" stroke-linecap="round" stroke-linejoin="round"/>
<path fill-rule="evenodd" clip-rule="evenodd" d="M3225.47 1896.46L2988.47 822.058L3178.5 780.139C3180.81 779.629 3183.23 780.08 3185.21 781.324C3185.44 781.506 3185.64 781.636 3185.84 781.766C3187.48 783.027 3188.65 784.853 3189.11 786.898L3422.28 1843.95C3422.78 1846.22 3422.36 1848.68 3421.09 1850.65C3419.83 1852.66 3417.81 1854.04 3415.5 1854.55L3225.47 1896.46Z" fill="#E58664" stroke="#E25F30" stroke-width="4.17" stroke-miterlimit="1.5" stroke-linecap="round" stroke-linejoin="round"/>
<path fill-rule="evenodd" clip-rule="evenodd" d="M2792.09 866.975C2792.12 866.938 2792.17 866.9 2792.21 866.862C2793.64 865.582 2795.73 864.575 2798.03 864.067L3178.47 780.146C3180.77 779.638 3183.09 779.672 3184.93 780.233C3185.12 780.295 3185.32 780.358 3185.5 780.435L3009.75 919.561L2792.09 866.975Z" fill="#E26E44" stroke="#E25F30" stroke-width="4.17" stroke-miterlimit="1.5" stroke-linecap="round" stroke-linejoin="round"/>
<path fill-rule="evenodd" clip-rule="evenodd" d="M3028.38 1938.3C3028.43 1938.32 3028.49 1938.34 3028.54 1938.36C3030.37 1938.92 3032.69 1938.96 3035 1938.45L3415.44 1854.53C3417.74 1854.02 3419.83 1853.01 3421.26 1851.73C3421.41 1851.59 3421.56 1851.45 3421.69 1851.3L3203.63 1798.63L3028.38 1938.3Z" fill="#E26E44" stroke="#E25F30" stroke-width="4.17" stroke-miterlimit="1.5" stroke-linecap="round" stroke-linejoin="round"/>
<path fill-rule="evenodd" clip-rule="evenodd" d="M3296.79 1275.3L3348.35 1509L3146.41 1538.36L2950.56 1596.75L2899.01 1363.05L3093.87 1300.15L3296.79 1275.3Z" fill="#E26E44" stroke="#E25F30" stroke-width="4.17" stroke-miterlimit="1.5" stroke-linecap="round" stroke-linejoin="round"/>
<path fill-rule="evenodd" clip-rule="evenodd" d="M2634.78 799.745C2648.12 796.803 2661.31 805.234 2664.25 818.566C2700.38 982.368 2909.21 1929.08 2945.35 2092.88C2948.29 2106.21 2939.87 2119.41 2926.53 2122.35C2854.21 2138.3 2639.87 2185.59 2567.55 2201.54C2554.22 2204.48 2541.02 2196.05 2538.08 2182.72C2501.95 2018.92 2293.11 1072.21 2256.98 908.406C2254.04 895.074 2262.46 881.875 2275.8 878.933C2348.12 862.98 2562.46 815.698 2634.78 799.745Z" fill="#E26E44" stroke="#E25F30" stroke-width="4.17" stroke-miterlimit="1.5" stroke-linecap="round" stroke-linejoin="round"/>
<path fill-rule="evenodd" clip-rule="evenodd" d="M2549.78 2183.16L2267.41 903.106C2266.81 900.383 2267.31 897.535 2268.8 895.188C2268.9 895.034 2269 894.881 2269.11 894.736C2270.61 892.625 2272.83 891.143 2275.37 890.584C2311.42 882.631 2604.76 817.925 2638.7 810.436C2641.42 809.838 2644.26 810.346 2646.6 811.849C2646.75 811.947 2646.89 812.036 2647.03 812.136C2649.15 813.652 2650.64 815.894 2651.2 818.446L2933.57 2098.5C2934.82 2104.18 2931.25 2109.78 2925.6 2111.03L2562.26 2191.18C2556.62 2192.42 2551.03 2188.84 2549.78 2183.16Z" fill="#DF7651" stroke="#E25F30" stroke-width="4.17" stroke-miterlimit="1.5" stroke-linecap="round" stroke-linejoin="round"/>
<path fill-rule="evenodd" clip-rule="evenodd" d="M2427.93 1630.87L2390.57 1461.5L2592.97 1427.57L2775.84 1376.51L2813.2 1545.88L2624.28 1570.42L2427.93 1630.87Z" fill="#CACACA" stroke="#E25F30" stroke-width="4.16" stroke-miterlimit="1.5" stroke-linecap="round" stroke-linejoin="round"/>
<path fill-rule="evenodd" clip-rule="evenodd" d="M2592.1 1427.73L2464.41 848.882L2640.15 810.115C2642.88 809.514 2645.73 810.017 2648.08 811.521C2648.22 811.617 2648.37 811.712 2648.51 811.817C2650.63 813.322 2652.12 815.57 2652.68 818.124L2775.86 1376.52L2593 1427.57L2592.1 1427.73Z" fill="#E58664" stroke="#E25F30" stroke-width="4.17" stroke-miterlimit="1.5" stroke-linecap="round" stroke-linejoin="round"/>
<path fill-rule="evenodd" clip-rule="evenodd" d="M2623.62 1570.62L2751.31 2149.47L2927.05 2110.7C2929.77 2110.1 2932.15 2108.45 2933.65 2106.09C2933.74 2105.94 2933.83 2105.79 2933.92 2105.64C2935.2 2103.38 2935.61 2100.72 2935.05 2098.16L2813.22 1545.87L2624.5 1570.38L2623.62 1570.62Z" fill="#E58664" stroke="#E25F30" stroke-width="4.17" stroke-miterlimit="1.5" stroke-linecap="round" stroke-linejoin="round"/>
<path fill-rule="evenodd" clip-rule="evenodd" d="M2555.15 2191.43C2557.21 2191.82 2559.74 2191.72 2562.29 2191.16C2632.55 2175.66 2856.75 2126.2 2927.02 2110.7C2929.74 2110.1 2932.24 2109.02 2933.97 2107.69C2934.07 2107.61 2934.18 2107.52 2934.28 2107.43L2729.51 2051.19L2555.15 2191.43Z" fill="#E26E44" stroke="#E25F30" stroke-width="4.16" stroke-miterlimit="1.5" stroke-linecap="round" stroke-linejoin="round"/>
<path fill-rule="evenodd" clip-rule="evenodd" d="M2268.78 893.321C2270.49 892.11 2272.83 891.129 2275.38 890.567C2345.64 875.068 2569.84 825.612 2640.1 810.113C2642.83 809.512 2645.55 809.443 2647.68 809.924C2647.8 809.957 2647.94 809.987 2648.07 810.023L2485.97 947.25L2268.78 893.321Z" fill="#E26E44" stroke="#E25F30" stroke-width="4.17" stroke-miterlimit="1.5" stroke-linecap="round" stroke-linejoin="round"/>
<path fill-rule="evenodd" clip-rule="evenodd" d="M2841.43 1620.82L2789.78 1386.69L2898.93 1362.61L3038.24 1453.24L2950.58 1596.74L2841.43 1620.82Z" fill="#E58664" stroke="#E25F30" stroke-width="4.17" stroke-miterlimit="1.5" stroke-linecap="round" stroke-linejoin="round"/>
<path fill-rule="evenodd" clip-rule="evenodd" d="M3037.31 1454.87L2950.64 1596.74L2841.47 1620.82L2815.65 1503.76L3037.31 1454.87Z" fill="#E26E44" stroke="#E25F30" stroke-width="4.16" stroke-miterlimit="1.5" stroke-linecap="round" stroke-linejoin="round"/>
<path fill-rule="evenodd" clip-rule="evenodd" d="M3612.78 584.014C3626.12 581.072 3639.31 589.503 3642.25 602.835C3678.38 766.637 3887.21 1713.35 3923.35 1877.15C3926.29 1890.48 3917.87 1903.68 3904.53 1906.62C3832.21 1922.57 3617.87 1969.86 3545.55 1985.81C3532.22 1988.75 3519.02 1980.32 3516.08 1966.99C3479.95 1803.19 3271.11 856.476 3234.98 692.675C3232.04 679.343 3240.46 666.144 3253.8 663.202C3326.12 647.249 3540.46 599.967 3612.78 584.014Z" fill="#E26E44" stroke="#E25F30" stroke-width="4.17" stroke-miterlimit="1.5" stroke-linecap="round" stroke-linejoin="round"/>
<path fill-rule="evenodd" clip-rule="evenodd" d="M3527.69 1967.44L3245.33 687.378C3244.73 684.655 3245.23 681.807 3246.72 679.459C3246.83 679.304 3246.92 679.151 3247.04 679.006C3248.55 676.894 3250.77 675.411 3253.32 674.85C3289.48 666.872 3583.71 601.969 3617.76 594.458C3620.48 593.857 3623.33 594.365 3625.68 595.866C3625.83 595.964 3625.97 596.053 3626.11 596.153C3628.23 597.668 3629.72 599.908 3630.28 602.461L3912.65 1882.52C3913.9 1888.19 3910.33 1893.8 3904.65 1895.05L3540.21 1975.44C3534.55 1976.69 3528.95 1973.11 3527.69 1967.44Z" fill="#DF7651" stroke="#E25F30" stroke-width="4.17" stroke-miterlimit="1.5" stroke-linecap="round" stroke-linejoin="round"/>
<path fill-rule="evenodd" clip-rule="evenodd" d="M3405.93 1415.13L3368.57 1245.77L3570.97 1211.84L3753.84 1160.78L3791.2 1330.15L3602.28 1354.69L3405.93 1415.13Z" fill="#CACACA" stroke="#E25F30" stroke-width="4.16" stroke-miterlimit="1.5" stroke-linecap="round" stroke-linejoin="round"/>
<path fill-rule="evenodd" clip-rule="evenodd" d="M3570 1212L3442.31 633.152L3618.05 594.385C3620.78 593.784 3623.63 594.287 3625.98 595.791C3626.12 595.887 3626.27 595.982 3626.41 596.087C3628.53 597.592 3630.02 599.84 3630.59 602.394L3753.76 1160.79L3570.9 1211.84L3570 1212Z" fill="#E58664" stroke="#E25F30" stroke-width="4.17" stroke-miterlimit="1.5" stroke-linecap="round" stroke-linejoin="round"/>
<path fill-rule="evenodd" clip-rule="evenodd" d="M3601.52 1354.89L3729.21 1933.74L3904.95 1894.97C3907.67 1894.37 3910.05 1892.72 3911.55 1890.36C3911.64 1890.21 3911.73 1890.06 3911.82 1889.91C3913.1 1887.65 3913.51 1884.99 3912.95 1882.43L3791.12 1330.14L3602.4 1354.65L3601.52 1354.89Z" fill="#E58664" stroke="#E25F30" stroke-width="4.17" stroke-miterlimit="1.5" stroke-linecap="round" stroke-linejoin="round"/>
<path fill-rule="evenodd" clip-rule="evenodd" d="M3533.08 1975.71C3535.13 1976.09 3537.67 1975.99 3540.22 1975.43C3610.48 1959.93 3834.68 1910.47 3904.94 1894.97C3907.67 1894.37 3910.17 1893.29 3911.9 1891.96C3912 1891.88 3912.11 1891.79 3912.21 1891.71L3707.46 1835.58L3533.08 1975.71Z" fill="#E26E44" stroke="#E25F30" stroke-width="4.16" stroke-miterlimit="1.5" stroke-linecap="round" stroke-linejoin="round"/>
<path fill-rule="evenodd" clip-rule="evenodd" d="M3246.77 677.591C3248.47 676.381 3250.82 675.402 3253.36 674.84C3323.62 659.34 3547.82 609.885 3618.09 594.385C3620.81 593.784 3623.53 593.714 3625.66 594.193C3625.79 594.225 3625.92 594.256 3626.05 594.291L3463.9 731.266L3246.77 677.591Z" fill="#E26E44" stroke="#E25F30" stroke-width="4.17" stroke-miterlimit="1.5" stroke-linecap="round" stroke-linejoin="round"/>
<path fill-rule="evenodd" clip-rule="evenodd" d="M3411.96 1494.96L3360.31 1260.84L3295.11 1275.22L3206.86 1416.04L3346.76 1509.35L3411.96 1494.96Z" fill="#E58664" stroke="#E25F30" stroke-width="4.17" stroke-miterlimit="1.5" stroke-linecap="round" stroke-linejoin="round"/>
<path fill-rule="evenodd" clip-rule="evenodd" d="M3208.43 1417.12L3346.75 1509.36L3411.96 1494.98L3386.14 1377.92L3208.43 1417.12Z" fill="#E26E44" stroke="#E25F30" stroke-width="4.16" stroke-miterlimit="1.5" stroke-linecap="round" stroke-linejoin="round"/>
<path d="M6088.16 142.117H3938.16V1502.12H6088.16V142.117Z" fill="#ECCDB0" stroke="#EAB07A" stroke-width="4.16" stroke-miterlimit="1.5" stroke-linecap="round" stroke-linejoin="round"/>
<path d="M4347.5 3903.71H4205.84V4037.04H4347.5V3903.71Z" fill="#66AA8A" stroke="#3A7D6A" stroke-width="4.17" stroke-miterlimit="1.5" stroke-linecap="round" stroke-linejoin="round"/>
<path d="M4347.55 3716.84H4254.29V3904.13H4347.55V3716.84Z" fill="#88CBAB" stroke="#3A7D6A" stroke-width="4.16" stroke-miterlimit="1.5" stroke-linecap="round" stroke-linejoin="round"/>
<path d="M4301.38 3718.82L4300.2 3903.92" stroke="#3A7D6A" stroke-width="4.17" stroke-miterlimit="1.5" stroke-linecap="round" stroke-linejoin="round"/>
<path d="M4207.07 3967.23L4344.85 3966.83" stroke="#3A7D6A" stroke-width="4.17" stroke-miterlimit="1.5" stroke-linecap="round" stroke-linejoin="round"/>
<path d="M6457.55 3902.93H6247.55V4036.26H6457.55V3902.93Z" fill="#66AA8A" stroke="#3A7D6A" stroke-width="5.17" stroke-miterlimit="1.5" stroke-linecap="round" stroke-linejoin="round"/>
<path d="M6249.26 3966.38L6453.51 3965.98" stroke="#3A7D6A" stroke-width="5.27" stroke-miterlimit="1.5" stroke-linecap="round" stroke-linejoin="round"/>
<path fill-rule="evenodd" clip-rule="evenodd" d="M5746.21 5163.48H4690.06C4690.06 5163.48 4830.25 4822.19 4879.87 4701.24C4890.2 4675.98 4914.89 4659.41 4942.2 4659.41H5494.07C5521.38 4659.41 5546.07 4675.98 5556.4 4701.24C5606.02 4822.19 5746.21 5163.48 5746.21 5163.48Z" fill="#F8A789" stroke="#FF9E7A" stroke-width="4.16" stroke-miterlimit="1.5" stroke-linecap="round" stroke-linejoin="round"/>
<path fill-rule="evenodd" clip-rule="evenodd" d="M5453.9 5108.29H4972.78L5062.66 4864.79H5364.17L5453.9 5108.29Z" fill="#FFAC9F" stroke="#FF9E7A" stroke-width="4.17" stroke-miterlimit="1.5" stroke-linecap="round" stroke-linejoin="round"/>
<path d="M5408.71 5108.58H5017.68V5130.89H5408.71V5108.58Z" fill="white" stroke="#808080" stroke-width="4.15" stroke-miterlimit="1.5" stroke-linecap="round" stroke-linejoin="round"/>
<path d="M5408.71 5130.89H5017.68V5153.2H5408.71V5130.89Z" fill="white" stroke="#808080" stroke-width="4.15" stroke-miterlimit="1.5" stroke-linecap="round" stroke-linejoin="round"/>
<path d="M5017.98 5108.28H4926.91V5194.39H5017.98V5108.28Z" fill="#EAEAEA" stroke="#D7D7D7" stroke-width="4.17" stroke-miterlimit="1.5" stroke-linecap="round" stroke-linejoin="round"/>
<path d="M5500.28 5108.28H5409.21V5194.39H5500.28V5108.28Z" fill="#EAEAEA" stroke="#D7D7D7" stroke-width="4.17" stroke-miterlimit="1.5" stroke-linecap="round" stroke-linejoin="round"/>
<path d="M4972.49 5163.83C4979.79 5163.83 4985.7 5158.24 4985.7 5151.34C4985.7 5144.44 4979.79 5138.85 4972.49 5138.85C4965.19 5138.85 4959.28 5144.44 4959.28 5151.34C4959.28 5158.24 4965.19 5163.83 4972.49 5163.83Z" fill="#D7D7D7" stroke="#D7D7D7" stroke-width="4.17" stroke-miterlimit="1.5" stroke-linecap="round" stroke-linejoin="round"/>
<path d="M5454.69 5163.83C5461.99 5163.83 5467.9 5158.24 5467.9 5151.34C5467.9 5144.44 5461.99 5138.85 5454.69 5138.85C5447.39 5138.85 5441.48 5144.44 5441.48 5151.34C5441.48 5158.24 5447.39 5163.83 5454.69 5163.83Z" fill="#D7D7D7" stroke="#D7D7D7" stroke-width="4.17" stroke-miterlimit="1.5" stroke-linecap="round" stroke-linejoin="round"/>
<path d="M5261.23 5067.44H5159.29V5163.82H5261.23V5067.44Z" fill="#DDDDDD" stroke="#D7D7D7" stroke-width="4.17" stroke-miterlimit="1.5" stroke-linecap="round" stroke-linejoin="round"/>
<path d="M5227.42 5099.19H5192.63V5132.08H5227.42V5099.19Z" fill="#D7D7D7" stroke="#D7D7D7" stroke-width="4.18" stroke-miterlimit="1.5" stroke-linecap="round" stroke-linejoin="round"/>
<path fill-rule="evenodd" clip-rule="evenodd" d="M5261.34 5163.83H5159.23L5192.71 5132.09H5227.44L5261.34 5163.83Z" fill="#EAEAEA" stroke="#D7D7D7" stroke-width="4.16" stroke-miterlimit="1.5" stroke-linecap="round" stroke-linejoin="round"/>
<path fill-rule="evenodd" clip-rule="evenodd" d="M5158.8 5067.44H5260.9L5227.43 5099.18H5192.7L5158.8 5067.44Z" fill="#EAEAEA" stroke="#D7D7D7" stroke-width="4.16" stroke-miterlimit="1.5" stroke-linecap="round" stroke-linejoin="round"/>
<path fill-rule="evenodd" clip-rule="evenodd" d="M5216.35 4811.18L5022.62 4813.28L4942.64 5033.47H4814.92L4946.35 4710.38L5216.35 4709.41L5486.35 4710.38L5617.63 5033.47H5490.06L5409.93 4813.28L5216.35 4811.18Z" fill="#EAEAEA" stroke="#808080" stroke-width="4.17" stroke-miterlimit="1.5" stroke-linecap="round" stroke-linejoin="round"/>
<path d="M4908.14 5033.47L5000.77 4786.13L5216.35 4785.17" stroke="#808080" stroke-width="4.17" stroke-miterlimit="1.5" stroke-linecap="round" stroke-linejoin="round"/>
<path d="M5524.2 5033.47L5433.2 4785.46L5215.99 4785.17" stroke="#808080" stroke-width="4.17" stroke-miterlimit="1.5" stroke-linecap="round" stroke-linejoin="round"/>
<path d="M4867.94 5033.47L4976.18 4752.15L5216.29 4752.34" stroke="#808080" stroke-width="4.17" stroke-miterlimit="1.5" stroke-linecap="round" stroke-linejoin="round"/>
<path d="M5564.4 5033.47L5458.98 4753.39L5216.05 4752.34" stroke="#808080" stroke-width="4.17" stroke-miterlimit="1.5" stroke-linecap="round" stroke-linejoin="round"/>
<path fill-rule="evenodd" clip-rule="evenodd" d="M3816.97 4462.82H3756.22V4363.32H3938.87V4592.24H3816.97V4462.82Z" fill="#85BCAC" stroke="#3A7D6A" stroke-width="4.17" stroke-miterlimit="1.5" stroke-linecap="round" stroke-linejoin="round"/>
<path d="M3756.28 4413.4H3938.84" stroke="#3A7D6A" stroke-width="4.17" stroke-miterlimit="1.5" stroke-linejoin="round"/>
<path d="M3878.08 4413.4V4592.2" stroke="#3A7D6A" stroke-width="4.17" stroke-miterlimit="1.5" stroke-linejoin="round"/>
<path d="M3607.55 4488.69H2415.13V5148.6H3607.55V4488.69Z" fill="#DCD7D6" stroke="#428100" stroke-width="4.17" stroke-miterlimit="1.5" stroke-linecap="round" stroke-linejoin="round"/>
<path d="M3446.07 4620.67H2576.94V5016.59H3446.07V4620.67Z" fill="#E3E3E3" stroke="white" stroke-width="4.17" stroke-miterlimit="1.5" stroke-linecap="round" stroke-linejoin="round"/>
<path d="M3011.49 4620.66H2926.31V5016.58H3011.49V4620.66Z" stroke="white" stroke-width="4.17" stroke-miterlimit="1.5" stroke-linecap="round" stroke-linejoin="round"/>
<path d="M3096.69 4620.66H3011.51V5016.58H3096.69V4620.66Z" stroke="white" stroke-width="4.17" stroke-miterlimit="1.5" stroke-linecap="round" stroke-linejoin="round"/>
<path d="M3950.79 6077.96H3524.37V6491.49H3950.79V6077.96Z" fill="#E3E3E3" stroke="white" stroke-width="4.17" stroke-miterlimit="1.5" stroke-linecap="round" stroke-linejoin="round"/>
<path d="M4377.27 6077.96H3950.85V6491.49H4377.27V6077.96Z" fill="#E3E3E3" stroke="white" stroke-width="4.17" stroke-miterlimit="1.5" stroke-linecap="round" stroke-linejoin="round"/>
<path fill-rule="evenodd" clip-rule="evenodd" d="M3524.56 6491.49V6077.97C3638.65 6077.97 3731.19 6170.61 3731.19 6284.72C3731.19 6398.85 3638.65 6491.49 3524.56 6491.49Z" fill="#E3E3E3" stroke="white" stroke-width="4.16" stroke-miterlimit="1.5" stroke-linecap="round" stroke-linejoin="round"/>
<path d="M3685.01 6238.65H3524.31V6330.78H3685.01V6238.65Z" fill="#E3E3E3" stroke="white" stroke-width="4.17" stroke-miterlimit="1.5" stroke-linecap="round" stroke-linejoin="round"/>
<path fill-rule="evenodd" clip-rule="evenodd" d="M4377.08 6491.49V6077.97C4262.99 6077.97 4170.44 6170.61 4170.44 6284.72C4170.44 6398.85 4262.99 6491.49 4377.08 6491.49Z" fill="#E3E3E3" stroke="white" stroke-width="4.16" stroke-miterlimit="1.5" stroke-linecap="round" stroke-linejoin="round"/>
<path d="M4377.35 6238.65H4216.65V6330.78H4377.35V6238.65Z" fill="#E3E3E3" stroke="white" stroke-width="4.17" stroke-miterlimit="1.5" stroke-linecap="round" stroke-linejoin="round"/>
<path d="M3685.21 6330.79C3710.65 6330.79 3731.28 6310.16 3731.28 6284.72C3731.28 6259.28 3710.65 6238.65 3685.21 6238.65C3659.77 6238.65 3639.14 6259.28 3639.14 6284.72C3639.14 6310.16 3659.77 6330.79 3685.21 6330.79Z" fill="#E3E3E3" stroke="white" stroke-width="4.18" stroke-miterlimit="1.5" stroke-linecap="round" stroke-linejoin="round"/>
<path d="M3950.93 6330.79C3976.37 6330.79 3997 6310.16 3997 6284.72C3997 6259.28 3976.37 6238.65 3950.93 6238.65C3925.49 6238.65 3904.86 6259.28 3904.86 6284.72C3904.86 6310.16 3925.49 6330.79 3950.93 6330.79Z" fill="#E3E3E3" stroke="white" stroke-width="4.18" stroke-miterlimit="1.5" stroke-linecap="round" stroke-linejoin="round"/>
<path d="M4216.79 6330.79C4242.23 6330.79 4262.86 6310.16 4262.86 6284.72C4262.86 6259.28 4242.23 6238.65 4216.79 6238.65C4191.35 6238.65 4170.72 6259.28 4170.72 6284.72C4170.72 6310.16 4191.35 6330.79 4216.79 6330.79Z" fill="#E3E3E3" stroke="white" stroke-width="4.18" stroke-miterlimit="1.5" stroke-linecap="round" stroke-linejoin="round"/>
<path d="M1467.29 4867.22H1382.85V4951.84H1467.29V4867.22Z" fill="white" stroke="#808080" stroke-width="4.18" stroke-miterlimit="1.5" stroke-linecap="round" stroke-linejoin="round"/>
<path d="M1772.48 4878.17H1507.66V5050.84H1772.48V4878.17Z" fill="#808080" stroke="#9C9C9C" stroke-width="4.17" stroke-miterlimit="1.5" stroke-linecap="round" stroke-linejoin="round"/>
<path d="M1766.25 4884.09H1513.32V5044.93H1766.25V4884.09Z" fill="#D0D0D0" stroke="#808080" stroke-width="4.17" stroke-miterlimit="1.5" stroke-linecap="round" stroke-linejoin="round"/>
<path fill-rule="evenodd" clip-rule="evenodd" d="M1532.7 4953.17V5063.84H1456.42V4867.23H1592.2V4910.2H1570.93V4953.17H1532.7Z" fill="#808080" stroke="#767676" stroke-width="4.16" stroke-miterlimit="1.5" stroke-linecap="round" stroke-linejoin="round"/>
<path fill-rule="evenodd" clip-rule="evenodd" d="M1532.7 4949.12C1530.47 4949.12 1528.71 4950.93 1528.71 4953.17V5059.79H1460.41V4871.28H1588.2V4906.14H1570.93C1568.69 4906.14 1566.93 4907.96 1566.93 4910.2V4949.12H1532.7Z" fill="#B7B7B7" stroke="#808080" stroke-width="4.16" stroke-miterlimit="1.5" stroke-linecap="round" stroke-linejoin="round"/>
<path fill-rule="evenodd" clip-rule="evenodd" d="M1581.18 6518.28C1581.4 6517.71 1581.62 6517.16 1581.83 6516.61L1594.73 6485.03L1693.97 6233.9C1695.94 6228.93 1700.75 6225.67 1705.99 6225.67H2053.77C2058.58 6225.67 2063.17 6228.49 2065.36 6232.95L2188.42 6484.09L2204.38 6515.69C2204.82 6516.59 2205.25 6517.53 2205.47 6518.48L2221.43 6551.2C2224.49 6557.03 2222.52 6564.08 2217.06 6567.73C2001.09 6713.84 1771.79 6701.42 1571.78 6570.48C1566.53 6567.09 1564.57 6560.55 1566.75 6554.81L1581.18 6518.28ZM1589.05 6533.7C1588.17 6533.36 1587.52 6532.92 1586.64 6532.4C1587.52 6532.99 1588.39 6533.41 1589.05 6533.74V6533.7ZM2198.26 6533.38C2198.7 6533.15 2199.13 6532.9 2199.79 6532.57C2199.13 6532.88 2198.7 6533.14 2198.26 6533.38Z" fill="#D0D0D0" stroke="#D0D0D0" stroke-width="4.17" stroke-miterlimit="1.5" stroke-linecap="round" stroke-linejoin="round"/>
<path fill-rule="evenodd" clip-rule="evenodd" d="M1705.99 6238.68H2053.77L2176.84 6489.9C1977.92 6601.26 1788.4 6597.08 1606.97 6489.9L1705.99 6238.68Z" fill="#F98D66" stroke="#808080" stroke-width="4.17" stroke-miterlimit="1.5" stroke-linecap="round" stroke-linejoin="round"/>
<path fill-rule="evenodd" clip-rule="evenodd" d="M1594.01 6521.64V6521.58L1607.08 6489.9C1788.61 6597.08 1978.01 6601.26 2176.92 6489.9L2192.96 6521.58C2192.81 6521.64 2192.81 6521.69 2192.66 6521.75C1993.9 6646.97 1775.54 6642.23 1594.01 6521.64Z" fill="#DBD6D4" stroke="#808080" stroke-width="4.16" stroke-miterlimit="1.5" stroke-linecap="round" stroke-linejoin="round"/>
<path fill-rule="evenodd" clip-rule="evenodd" d="M2192.66 6521.75L2210.04 6556.96C1998.81 6699.82 1774.5 6687.62 1579 6559.6L1594.01 6521.64C1775.54 6642.23 1993.9 6646.97 2192.66 6521.75Z" fill="#DBD6D4" stroke="#808080" stroke-width="4.16" stroke-miterlimit="1.5" stroke-linecap="round" stroke-linejoin="round"/>
<path fill-rule="evenodd" clip-rule="evenodd" d="M2155.41 6449.37L2175.14 6489.92C1991.38 6600.38 1786.65 6597.11 1605.36 6489.92L1622.63 6447.06C1798.99 6548.1 1976.58 6549.45 2155.41 6449.37Z" fill="#DBD6D4" stroke="#808080" stroke-width="4.2" stroke-miterlimit="1.5" stroke-linecap="round" stroke-linejoin="round"/>
<path fill-rule="evenodd" clip-rule="evenodd" d="M1828.27 6655.59L1841.49 6520.93C1876.7 6524.71 1912.2 6524.51 1947.56 6520.32L1960.78 6655.5C1916.36 6661.39 1872.09 6661.3 1828.27 6655.59Z" fill="#DBD6D4" stroke="#808080" stroke-width="4.16" stroke-miterlimit="1.5" stroke-linecap="round" stroke-linejoin="round"/>
<path fill-rule="evenodd" clip-rule="evenodd" d="M1828.15 6655.6L1841.36 6520.91C1876.69 6524.72 1912.08 6524.55 1947.52 6520.32L1960.78 6655.52C1916.3 6661.36 1871.98 6661.28 1828.15 6655.6Z" fill="#F98366" stroke="#808080" stroke-width="4.17" stroke-miterlimit="1.5" stroke-linecap="round" stroke-linejoin="round"/>
<path d="M636.835 4788.6H146.954V5191.56H636.835V4788.6Z" fill="#70AE9C" stroke="#327662" stroke-width="4.14" stroke-miterlimit="1.5" stroke-linecap="round" stroke-linejoin="round"/>
<path d="M145.769 4986.6L632.269 4985.91" stroke="#3A7D6A" stroke-width="4.15" stroke-miterlimit="1.5" stroke-linecap="round" stroke-linejoin="round"/>
<path fill-rule="evenodd" clip-rule="evenodd" d="M437.643 5766.61H267.475V5191.57H573.107V5322.94H759.109V6136.86H437.643V5766.61Z" fill="white" stroke="#808080" stroke-width="4.17" stroke-miterlimit="1.5" stroke-linecap="round" stroke-linejoin="round"/>
<path fill-rule="evenodd" clip-rule="evenodd" d="M449.798 5766.61C449.798 5759.9 444.36 5754.46 437.643 5754.46H279.629V5203.73H560.952V5322.94C560.952 5329.66 566.389 5335.1 573.107 5335.1H746.954V6124.69H449.798V5766.61Z" fill="#70AE9C" stroke="#808080" stroke-width="4.17" stroke-miterlimit="1.5" stroke-linecap="round" stroke-linejoin="round"/>
<path fill-rule="evenodd" clip-rule="evenodd" d="M6207.78 5868.31L6264.42 5891.79L6287.89 5948.45L6264.42 6005.13L6207.78 6028.6L6151.02 6005.13L6127.55 5948.45L6151.02 5891.79L6207.78 5868.31Z" fill="#00BE85" stroke="#5DA791" stroke-width="4.23" stroke-miterlimit="1.5" stroke-linecap="round" stroke-linejoin="round"/>
<path fill-rule="evenodd" clip-rule="evenodd" d="M6207.78 5876.95L6258.26 5897.9L6279.23 5948.45L6258.26 5999.02L6207.78 6019.96L6157.18 5999.02L6136.2 5948.45L6157.18 5897.9L6207.78 5876.95Z" fill="#17CE99" stroke="#27A17C" stroke-width="4.23" stroke-miterlimit="1.5" stroke-linecap="round" stroke-linejoin="round"/>
<path d="M6207.78 5879.55V6017.55" stroke="#27A17C" stroke-width="4.23" stroke-miterlimit="1.5" stroke-linecap="round" stroke-linejoin="round"/>
<path d="M6136.65 5947.8H6277.37" stroke="#27A17C" stroke-width="4.24" stroke-miterlimit="1.5" stroke-linecap="round" stroke-linejoin="round"/>
<path d="M6158.7 5997.35L6257.73 5899.47" stroke="#27A17C" stroke-width="4.24" stroke-miterlimit="1.5" stroke-linecap="round" stroke-linejoin="round"/>
<path d="M6158.78 5899.44L6257.81 5997.32" stroke="#27A17C" stroke-width="4.24" stroke-miterlimit="1.5" stroke-linecap="round" stroke-linejoin="round"/>
<path fill-rule="evenodd" clip-rule="evenodd" d="M6207.78 5516.73L6264.42 5540.21L6287.89 5596.87L6264.42 5653.54L6207.78 5677.01L6151.02 5653.54L6127.55 5596.87L6151.02 5540.21L6207.78 5516.73Z" fill="#00BE85" stroke="#5DA791" stroke-width="4.23" stroke-miterlimit="1.5" stroke-linecap="round" stroke-linejoin="round"/>
<path fill-rule="evenodd" clip-rule="evenodd" d="M6207.78 5525.36L6258.26 5546.32L6279.23 5596.87L6258.26 5647.44L6207.78 5668.37L6157.18 5647.44L6136.2 5596.87L6157.18 5546.32L6207.78 5525.36Z" fill="#17CE99" stroke="#27A17C" stroke-width="4.23" stroke-miterlimit="1.5" stroke-linecap="round" stroke-linejoin="round"/>
<path d="M6207.78 5527.96V5665.96" stroke="#27A17C" stroke-width="4.23" stroke-miterlimit="1.5" stroke-linecap="round" stroke-linejoin="round"/>
<path d="M6136.65 5596.21H6277.37" stroke="#27A17C" stroke-width="4.24" stroke-miterlimit="1.5" stroke-linecap="round" stroke-linejoin="round"/>
<path d="M6158.7 5645.77L6257.73 5547.89" stroke="#27A17C" stroke-width="4.24" stroke-miterlimit="1.5" stroke-linecap="round" stroke-linejoin="round"/>
<path d="M6158.78 5547.86L6257.81 5645.74" stroke="#27A17C" stroke-width="4.24" stroke-miterlimit="1.5" stroke-linecap="round" stroke-linejoin="round"/>
<path d="M6627.55 5388.6H6447.55V5490.01H6627.55V5388.6Z" fill="#17CE99"/>
<path fill-rule="evenodd" clip-rule="evenodd" d="M6630.75 5388.6V5490C6630.75 5491.77 6629.32 5493.2 6627.55 5493.2H6447.55C6445.78 5493.2 6444.35 5491.77 6444.35 5490V5388.6C6444.35 5386.83 6445.78 5385.4 6447.55 5385.4H6627.55C6629.32 5385.4 6630.75 5386.83 6630.75 5388.6ZM6627.55 5388.6H6447.55V5490H6627.55V5388.6Z" fill="#27A17C"/>
<path d="M6447.55 5439.3H6627.55" stroke="#27A17C" stroke-width="4.87" stroke-miterlimit="1.5" stroke-linecap="round" stroke-linejoin="round"/>
<path d="M6627.55 5621.46H6447.55V5722.87H6627.55V5621.46Z" fill="#17CE99"/>
<path fill-rule="evenodd" clip-rule="evenodd" d="M6630.75 5621.46V5722.87C6630.75 5724.64 6629.32 5726.07 6627.55 5726.07H6447.55C6445.78 5726.07 6444.35 5724.64 6444.35 5722.87V5621.46C6444.35 5619.69 6445.78 5618.26 6447.55 5618.26H6627.55C6629.32 5618.26 6630.75 5619.69 6630.75 5621.46ZM6627.55 5621.46H6447.55V5722.87H6627.55V5621.46Z" fill="#27A17C"/>
<path d="M6447.55 5672.16H6627.55" stroke="#27A17C" stroke-width="4.87" stroke-miterlimit="1.5" stroke-linecap="round" stroke-linejoin="round"/>
<path d="M6627.55 5854.32H6447.55V5955.73H6627.55V5854.32Z" fill="#17CE99"/>
<path fill-rule="evenodd" clip-rule="evenodd" d="M6630.75 5854.32V5955.73C6630.75 5957.5 6629.32 5958.93 6627.55 5958.93H6447.55C6445.78 5958.93 6444.35 5957.5 6444.35 5955.73V5854.32C6444.35 5852.56 6445.78 5851.12 6447.55 5851.12H6627.55C6629.32 5851.12 6630.75 5852.56 6630.75 5854.32ZM6627.55 5854.32H6447.55V5955.73H6627.55V5854.32Z" fill="#27A17C"/>
<path d="M6447.55 5905.03H6627.55" stroke="#27A17C" stroke-width="4.87" stroke-miterlimit="1.5" stroke-linecap="round" stroke-linejoin="round"/>
<path d="M6627.55 6087.19H6447.55V6188.6H6627.55V6087.19Z" fill="#17CE99"/>
<path fill-rule="evenodd" clip-rule="evenodd" d="M6630.75 6087.19V6188.6C6630.75 6190.36 6629.32 6191.8 6627.55 6191.8H6447.55C6445.78 6191.8 6444.35 6190.36 6444.35 6188.6V6087.19C6444.35 6085.42 6445.78 6083.99 6447.55 6083.99H6627.55C6629.32 6083.99 6630.75 6085.42 6630.75 6087.19ZM6627.55 6087.19H6447.55V6188.6H6627.55V6087.19Z" fill="#27A17C"/>
<path d="M6447.55 6137.89H6627.55" stroke="#27A17C" stroke-width="4.87" stroke-miterlimit="1.5" stroke-linecap="round" stroke-linejoin="round"/>
<path fill-rule="evenodd" clip-rule="evenodd" d="M4128 5531.83L4183.74 5554.94L4206.84 5610.7L4183.74 5666.48L4128 5689.57L4072.14 5666.48L4049.04 5610.7L4072.14 5554.94L4128 5531.83Z" fill="#00BE85" stroke="#5DA791" stroke-width="4.17" stroke-miterlimit="1.5" stroke-linecap="round" stroke-linejoin="round"/>
<path fill-rule="evenodd" clip-rule="evenodd" d="M4128 5540.33L4177.68 5560.95L4198.32 5610.7L4177.68 5660.46L4128 5681.07L4078.2 5660.46L4057.56 5610.7L4078.2 5560.95L4128 5540.33Z" fill="#17CE99" stroke="#27A17C" stroke-width="4.17" stroke-miterlimit="1.5" stroke-linecap="round" stroke-linejoin="round"/>
<path d="M4128 5542.89V5678.7" stroke="#27A17C" stroke-width="4.17" stroke-miterlimit="1.5" stroke-linecap="round" stroke-linejoin="round"/>
<path d="M4058 5610.05H4196.49" stroke="#27A17C" stroke-width="4.17" stroke-miterlimit="1.5" stroke-linecap="round" stroke-linejoin="round"/>
<path d="M4079.7 5658.82L4177.15 5562.49" stroke="#27A17C" stroke-width="4.17" stroke-miterlimit="1.5" stroke-linecap="round" stroke-linejoin="round"/>
<path d="M4079.79 5562.47L4177.24 5658.8" stroke="#27A17C" stroke-width="4.17" stroke-miterlimit="1.5" stroke-linecap="round" stroke-linejoin="round"/>
<path fill-rule="evenodd" clip-rule="evenodd" d="M3750.3 5531.83L3806.04 5554.94L3829.14 5610.7L3806.04 5666.48L3750.3 5689.57L3694.44 5666.48L3671.34 5610.7L3694.44 5554.94L3750.3 5531.83Z" fill="#00BE85" stroke="#5DA791" stroke-width="4.17" stroke-miterlimit="1.5" stroke-linecap="round" stroke-linejoin="round"/>
<path fill-rule="evenodd" clip-rule="evenodd" d="M3750.3 5540.33L3799.98 5560.95L3820.62 5610.7L3799.98 5660.46L3750.3 5681.07L3700.5 5660.46L3679.86 5610.7L3700.5 5560.95L3750.3 5540.33Z" fill="#17CE99" stroke="#27A17C" stroke-width="4.17" stroke-miterlimit="1.5" stroke-linecap="round" stroke-linejoin="round"/>
<path d="M3750.3 5542.89V5678.7" stroke="#27A17C" stroke-width="4.17" stroke-miterlimit="1.5" stroke-linecap="round" stroke-linejoin="round"/>
<path d="M3680.3 5610.05H3818.79" stroke="#27A17C" stroke-width="4.17" stroke-miterlimit="1.5" stroke-linecap="round" stroke-linejoin="round"/>
<path d="M3702 5658.82L3799.45 5562.49" stroke="#27A17C" stroke-width="4.17" stroke-miterlimit="1.5" stroke-linecap="round" stroke-linejoin="round"/>
<path d="M3702.09 5562.47L3799.54 5658.8" stroke="#27A17C" stroke-width="4.17" stroke-miterlimit="1.5" stroke-linecap="round" stroke-linejoin="round"/>
<path d="M8149.38 4418.34H6832.15V6224.3H8149.38V4418.34Z" fill="#D4DBB5" stroke="#B1C39E" stroke-width="4.16" stroke-miterlimit="1.5" stroke-linecap="round" stroke-linejoin="round"/>
<path d="M6895.49 5184.32H6707.55V5338.6H6895.49V5184.32Z" fill="#17CE99"/>
<path fill-rule="evenodd" clip-rule="evenodd" d="M6898.69 5184.32V5338.6C6898.69 5340.36 6897.26 5341.8 6895.49 5341.8H6707.55C6705.78 5341.8 6704.35 5340.36 6704.35 5338.6V5184.32C6704.35 5182.55 6705.78 5181.12 6707.55 5181.12H6895.49C6897.26 5181.12 6898.69 5182.55 6898.69 5184.32ZM6895.49 5184.32H6707.55V5338.6H6895.49V5184.32Z" fill="#27A17C"/>
<path d="M6707.55 5261.46H6895.49" stroke="#27A17C" stroke-width="6.05" stroke-miterlimit="1.5" stroke-linecap="round" stroke-linejoin="round"/>
<path fill-rule="evenodd" clip-rule="evenodd" d="M6656.64 7636.44H6594.45V7395.69H6733.8V7286.2H7112.21V7395.69H7251.43V7636.44H7189.37V7839.53H6656.64V7636.44Z" fill="#E07147" stroke="#E07147" stroke-width="4.17" stroke-miterlimit="1.5" stroke-linecap="round" stroke-linejoin="round"/>
<path fill-rule="evenodd" clip-rule="evenodd" d="M6667.22 7636.44C6667.22 7630.58 6662.45 7625.83 6656.64 7625.83H6605.03V7406.3H6733.8C6739.6 7406.3 6744.38 7401.54 6744.38 7395.69V7296.8H7101.5V7395.69C7101.5 7401.54 7106.28 7406.3 7112.21 7406.3H7240.85V7625.83H7189.37C7183.43 7625.83 7178.66 7630.58 7178.66 7636.44V7828.92H6667.22V7636.44Z" fill="#E58664" stroke="#E07147" stroke-width="4.17" stroke-miterlimit="1.5" stroke-linecap="round" stroke-linejoin="round"/>
<path fill-rule="evenodd" clip-rule="evenodd" d="M5655.55 7622.3V7922.66H5496.74V7603.42L5655.55 7622.3Z" fill="#B4B4B4" stroke="#808080" stroke-width="4.17" stroke-miterlimit="1.5" stroke-linecap="round" stroke-linejoin="round"/>
<path fill-rule="evenodd" clip-rule="evenodd" d="M5642.81 7633.6V7909.92H5509.48V7617.76L5642.81 7633.6Z" fill="white" stroke="#808080" stroke-width="4.17" stroke-miterlimit="1.5" stroke-linecap="round" stroke-linejoin="round"/>
<path d="M5516.29 7284.18H5217.11V7922.67H5516.29V7284.18Z" fill="#70AE9C" stroke="#5A9887" stroke-width="4.16" stroke-miterlimit="1.5" stroke-linecap="round" stroke-linejoin="round"/>
<path d="M6362.76 7398.19H5656.06V7985.52H6362.76V7398.19Z" fill="#70AE9C" stroke="#5A9887" stroke-width="4.18" stroke-miterlimit="1.5" stroke-linecap="round" stroke-linejoin="round"/>
<path d="M6362.77 7398.2H5656.07V7497.14H6362.77V7398.2Z" fill="#5DA791" stroke="#5A9887" stroke-width="4.15" stroke-miterlimit="1.5" stroke-linecap="round" stroke-linejoin="round"/>
<path d="M6362.77 7885.68H5656.07V7985.52H6362.77V7885.68Z" fill="#5DA791" stroke="#5A9887" stroke-width="4.15" stroke-miterlimit="1.5" stroke-linecap="round" stroke-linejoin="round"/>
<path fill-rule="evenodd" clip-rule="evenodd" d="M5656.11 7985.38V7397.96L5754.97 7496.93V7886.65L5656.11 7985.38Z" fill="#599B88" stroke="#5A9887" stroke-width="4.16" stroke-miterlimit="1.5" stroke-linecap="round" stroke-linejoin="round"/>
<path fill-rule="evenodd" clip-rule="evenodd" d="M6362.83 7985.38V7397.96L6263.97 7496.93V7886.65L6362.83 7985.38Z" fill="#599B88" stroke="#5A9887" stroke-width="4.16" stroke-miterlimit="1.5" stroke-linecap="round" stroke-linejoin="round"/>
<path fill-rule="evenodd" clip-rule="evenodd" d="M6914.68 8005.64H6749.41V8171.75H6344.41V8051.91H6263.91V7839.53H7360.58V8171.75H6914.68V8005.64Z" fill="#85D1BB" stroke="#5A9887" stroke-width="4.17" stroke-miterlimit="1.5" stroke-linecap="round" stroke-linejoin="round"/>
<path fill-rule="evenodd" clip-rule="evenodd" d="M6925 8005.64C6925 7999.89 6920.36 7995.23 6914.68 7995.23H6749.41C6743.73 7995.23 6739.09 7999.89 6739.09 8005.64V8161.34H6354.86V8051.91C6354.86 8046.16 6350.22 8041.51 6344.41 8041.51H6274.36V7849.94H7350.12V8161.34H6925V8005.64Z" fill="#A0D8C8" stroke="#5A9887" stroke-width="4.17" stroke-miterlimit="1.5" stroke-linecap="round" stroke-linejoin="round"/>
<path fill-rule="evenodd" clip-rule="evenodd" d="M7350.97 7285.03H7096.41V7150.55H8029.87V7285.03H7964.72L7899.31 7407.49H7350.97V7285.03Z" fill="white" stroke="#BEBEBE" stroke-width="4.17" stroke-miterlimit="1.5" stroke-linecap="round" stroke-linejoin="round"/>
<path fill-rule="evenodd" clip-rule="evenodd" d="M7362.97 7285.03C7362.97 7278.39 7357.55 7273.01 7350.97 7273.01H7108.41V7162.58H8017.88V7273.01H7964.72C7960.33 7273.01 7956.2 7275.45 7954.14 7279.36L7892.08 7395.46H7362.97V7285.03Z" fill="#FFFAE2" stroke="#DAD5BC" stroke-width="4.17" stroke-miterlimit="1.5" stroke-linecap="round" stroke-linejoin="round"/>
<path d="M8264.35 6447.22H7081.73V7150.47H8264.35V6447.22Z" fill="#BC4E4D" stroke="#D16362" stroke-width="4.18" stroke-miterlimit="1.5" stroke-linecap="round" stroke-linejoin="round"/>
<path d="M8249.73 6461.99H7096.68V6798.86H8249.73V6461.99Z" fill="#E46E6D" stroke="#D16362" stroke-width="4.17" stroke-miterlimit="1.5" stroke-linecap="round" stroke-linejoin="round"/>
<path d="M8249.73 6798.82H7096.68V7135.69H8249.73V6798.82Z" fill="#DF6463" stroke="#D16362" stroke-width="4.17" stroke-miterlimit="1.5" stroke-linecap="round" stroke-linejoin="round"/>
<path fill-rule="evenodd" clip-rule="evenodd" d="M7281.24 6799.15L7096.51 7136V6462.3L7281.24 6799.15Z" fill="#CE6261" stroke="#D16362" stroke-width="4.17" stroke-miterlimit="1.5" stroke-linecap="round" stroke-linejoin="round"/>
<path fill-rule="evenodd" clip-rule="evenodd" d="M8064.8 6799.15L8249.52 7136V6462.3L8064.8 6799.15Z" fill="#CE6261" stroke="#D16362" stroke-width="4.17" stroke-miterlimit="1.5" stroke-linecap="round" stroke-linejoin="round"/>
<path d="M7016.68 6657.99H6478.42V7068.6H7016.68V6657.99Z" fill="white" stroke="#CDCDCD" stroke-width="4.51" stroke-miterlimit="1.5" stroke-linecap="round" stroke-linejoin="round"/>
<path d="M7000.5 6674.11H6494.48V6863.26H7000.5V6674.11Z" fill="#FFFBE8" stroke="#E3DEC5" stroke-width="4.52" stroke-miterlimit="1.5" stroke-linecap="round" stroke-linejoin="round"/>
<path d="M7000.5 6863.3H6494.48V7052.45H7000.5V6863.3Z" fill="#FFFAE2" stroke="#E3DEC5" stroke-width="4.52" stroke-miterlimit="1.5" stroke-linecap="round" stroke-linejoin="round"/>
<path fill-rule="evenodd" clip-rule="evenodd" d="M6591.39 6863.35L6494.67 7052.53V6674.16L6591.39 6863.35Z" fill="#F3EFDB" stroke="#E3DEC5" stroke-width="4.52" stroke-miterlimit="1.5" stroke-linecap="round" stroke-linejoin="round"/>
<path fill-rule="evenodd" clip-rule="evenodd" d="M6903.85 6863.89L7000.57 7053.07V6674.71L6903.85 6863.89Z" fill="#F3EFDB" stroke="#E3DEC5" stroke-width="4.52" stroke-miterlimit="1.5" stroke-linecap="round" stroke-linejoin="round"/>
<path d="M5740.58 6114.96H4802.47V6887.01H5740.58V6114.96Z" fill="#CDCDCD" stroke="white" stroke-width="4.17" stroke-miterlimit="1.5" stroke-linecap="round" stroke-linejoin="round"/>
<path d="M5726.59 6129.03H4816.59V6872.96H5726.59V6129.03Z" fill="white" stroke="#808080" stroke-width="4.17" stroke-miterlimit="1.5" stroke-linecap="round" stroke-linejoin="round"/>
<path d="M5566.6 6333.63H5451.45V6708.52H5566.6V6333.63Z" fill="#70AE9C" stroke="#70AE9C" stroke-width="4.17" stroke-miterlimit="1.5" stroke-linecap="round" stroke-linejoin="round"/>
<path d="M5681.7 6333.63H5566.55V6708.52H5681.7V6333.63Z" fill="#85BCAC" stroke="#70AE9C" stroke-width="4.17" stroke-miterlimit="1.5" stroke-linecap="round" stroke-linejoin="round"/>
<path fill-rule="evenodd" clip-rule="evenodd" d="M5566.44 6652.78L5681.8 6708.53H5451.39L5566.44 6652.78Z" fill="#5DA791" stroke="#70AE9C" stroke-width="4.16" stroke-miterlimit="1.5" stroke-linecap="round" stroke-linejoin="round"/>
<path fill-rule="evenodd" clip-rule="evenodd" d="M5566.44 6389.38L5681.8 6333.63H5451.39L5566.44 6389.38Z" fill="#5DA791" stroke="#70AE9C" stroke-width="4.16" stroke-miterlimit="1.5" stroke-linecap="round" stroke-linejoin="round"/>
<path d="M5433.6 6368.26H5101.41V6628.85H5433.6V6368.26Z" stroke="#808080" stroke-width="4.16" stroke-miterlimit="1.5" stroke-linecap="round" stroke-linejoin="round"/>
<path d="M5425.5 6376.39H5109.54V6620.7H5425.5V6376.39Z" fill="#DCDCDC" stroke="#808080" stroke-width="4.16" stroke-miterlimit="1.5" stroke-linecap="round" stroke-linejoin="round"/>
<path d="M5958.03 5532.92H5831.65V5843.75H5958.03V5532.92Z" fill="white" stroke="#C1C1C1" stroke-width="4.17" stroke-miterlimit="1.5" stroke-linecap="round" stroke-linejoin="round"/>
<path d="M5949.15 5541.84H5831.65V5834.83H5949.15V5541.84Z" fill="#FFA483" stroke="#FF8B61" stroke-width="4.17" stroke-miterlimit="1.5" stroke-linecap="round" stroke-linejoin="round"/>
<path d="M5831.6 5481.67H4604.88V5864.11H5831.6V5481.67Z" fill="#FF8F67" stroke="#E16E43" stroke-width="4.17" stroke-miterlimit="1.5" stroke-linecap="round" stroke-linejoin="round"/>
<path d="M5817.35 5495.84H4618.93V5672.88H5817.35V5495.84Z" fill="#E58664" stroke="#E16E43" stroke-width="4.17" stroke-miterlimit="1.5" stroke-linecap="round" stroke-linejoin="round"/>
<path d="M5817.35 5672.89H4618.93V5849.93H5817.35V5672.89Z" fill="#E77E59" stroke="#E16E43" stroke-width="4.17" stroke-miterlimit="1.5" stroke-linecap="round" stroke-linejoin="round"/>
<path fill-rule="evenodd" clip-rule="evenodd" d="M5729.97 5463.73V5864.11H5628.04V5481.66L5729.97 5463.73Z" fill="#DF7651" stroke="#E16E43" stroke-width="4.17" stroke-miterlimit="1.5" stroke-linecap="round" stroke-linejoin="round"/>
<path fill-rule="evenodd" clip-rule="evenodd" d="M4720.97 5463.73V5864.11H4619.04V5481.66L4720.97 5463.73Z" fill="#DF7651" stroke="#E16E43" stroke-width="4.17" stroke-miterlimit="1.5" stroke-linecap="round" stroke-linejoin="round"/>
<path fill-rule="evenodd" clip-rule="evenodd" d="M5831.77 5481.66V5864.11H5729.84V5463.73L5831.77 5481.66Z" fill="#E58664" stroke="#E16E43" stroke-width="4.17" stroke-miterlimit="1.5" stroke-linecap="round" stroke-linejoin="round"/>
<path fill-rule="evenodd" clip-rule="evenodd" d="M4822.86 5481.66V5864.11H4720.94V5463.73L4822.86 5481.66Z" fill="#E58664" stroke="#E16E43" stroke-width="4.17" stroke-miterlimit="1.5" stroke-linecap="round" stroke-linejoin="round"/>
<path d="M5327.88 5372.71H5108.36V5481.68H5327.88V5372.71Z" fill="#E58664" stroke="#E16E43" stroke-width="4.18" stroke-miterlimit="1.5" stroke-linecap="round" stroke-linejoin="round"/>
<path d="M5317.22 5383.46H5119.03V5481.48H5317.22V5383.46Z" fill="white" stroke="#E16E43" stroke-width="4.18" stroke-miterlimit="1.5" stroke-linecap="round" stroke-linejoin="round"/>
<path d="M8145.74 4952.33H7941.52V5725.53H8145.74V4952.33Z" fill="#85BCAC" stroke="#5DA791" stroke-width="4.17" stroke-miterlimit="1.5" stroke-linecap="round" stroke-linejoin="round"/>
<path d="M7971.3 5192.84H7883.62V5485.01H7971.3V5192.84Z" fill="#F5F5F5" stroke="#E3E3E3" stroke-width="4.17" stroke-miterlimit="1.5" stroke-linecap="round" stroke-linejoin="round"/>
<path fill-rule="evenodd" clip-rule="evenodd" d="M8145.71 5164.57V5513.29H7941.52L7922.78 5338.93L7941.52 5164.57H8145.71Z" fill="white" stroke="#5DA791" stroke-width="4.16" stroke-miterlimit="1.5" stroke-linecap="round" stroke-linejoin="round"/>
<path fill-rule="evenodd" clip-rule="evenodd" d="M6894.21 4503.93V4362.27H6760.88V4503.93H6894.21Z" fill="#66AA8A" stroke="#3A7D6A" stroke-width="4.17" stroke-miterlimit="1.5" stroke-linecap="round" stroke-linejoin="round"/>
<path d="M6830.76 4363.43L6831.16 4501.21" stroke="#3A7D6A" stroke-width="4.17" stroke-miterlimit="1.5" stroke-linecap="round" stroke-linejoin="round"/>
<path d="M3931.05 6480.35H3518.55V6578.6H3931.05V6480.35Z" fill="white" stroke="#CDCDCD" stroke-width="4.92" stroke-miterlimit="1.5" stroke-linecap="round" stroke-linejoin="round"/>
<path fill-rule="evenodd" clip-rule="evenodd" d="M3922.4 6489V6569.94C3868.64 6569.94 3580.96 6569.94 3527.2 6569.94V6489C3585.83 6489 3922.4 6489 3922.4 6489Z" fill="#5DA791" stroke="#CDCDCD" stroke-width="4.92" stroke-miterlimit="1.5" stroke-linecap="round" stroke-linejoin="round"/>
<path fill-rule="evenodd" clip-rule="evenodd" d="M3932.99 6856.8V6983.48H3281.26V6546.31H3932.99V6697.15H4000V6856.8H3932.99Z" fill="white" stroke="#CDCDCD" stroke-width="4.17" stroke-miterlimit="1.5" stroke-linecap="round" stroke-linejoin="round"/>
<path fill-rule="evenodd" clip-rule="evenodd" d="M3920.99 6971.92H3292.78V6557.89H3920.99V6696.63L3856.22 6776.42L3920.99 6852.72V6971.92Z" fill="#70AE9C" stroke="#56A38D" stroke-width="4.17" stroke-miterlimit="1.5" stroke-linecap="round" stroke-linejoin="round"/>
<path fill-rule="evenodd" clip-rule="evenodd" d="M3962.56 6845.25H3932.9C3926.51 6845.25 3921.27 6850.41 3921.27 6856.81V6971.91H3292.68V6776.43H3962.56V6845.25Z" fill="#85BCAC" stroke="#56A38D" stroke-width="4.15" stroke-miterlimit="1.5" stroke-linecap="round" stroke-linejoin="round"/>
<path fill-rule="evenodd" clip-rule="evenodd" d="M3921.06 6972.04L3726.77 6776.48L3921.06 6557.92V6696.71L3856.2 6776.48L3921.06 6852.87V6972.04Z" fill="#5DA791" stroke="#56A38D" stroke-width="4.17" stroke-miterlimit="1.5" stroke-linecap="round" stroke-linejoin="round"/>
<path fill-rule="evenodd" clip-rule="evenodd" d="M3921.07 6557.92H3921.47V6697.12C3921.47 6703.52 3926.67 6708.72 3933.07 6708.72H3988.57V6845.22H3933.07C3926.67 6845.22 3921.47 6850.42 3921.47 6856.82V6971.92H3921.07V6852.72L3856.27 6776.42L3921.07 6696.62V6557.92Z" fill="#5B9785" stroke="#56A38D" stroke-width="4.17" stroke-miterlimit="1.5" stroke-linecap="round" stroke-linejoin="round"/>
<path fill-rule="evenodd" clip-rule="evenodd" d="M3487.17 6776.48L3292.88 6557.92V6972.04L3487.17 6776.48Z" fill="#5DA791" stroke="#56A38D" stroke-width="4.17" stroke-miterlimit="1.5" stroke-linecap="round" stroke-linejoin="round"/>
<path d="M4765.55 6822.43H4627.55V6952.53H4765.55V6822.43Z" fill="#CDCDCD" stroke="#CDCDCD" stroke-width="4.16" stroke-miterlimit="1.5" stroke-linecap="round" stroke-linejoin="round"/>
<path d="M4759 6828.99H4634.03V6945.99H4759V6828.99Z" fill="white" stroke="white" stroke-width="4.16" stroke-miterlimit="1.5" stroke-linecap="round" stroke-linejoin="round"/>
<path fill-rule="evenodd" clip-rule="evenodd" d="M4058.54 7050.21H3943.22V6778.42H4636.05V7126.67H4058.54V7050.21Z" fill="white" stroke="#CDCDCD" stroke-width="4.17" stroke-miterlimit="1.5" stroke-linecap="round" stroke-linejoin="round"/>
<path fill-rule="evenodd" clip-rule="evenodd" d="M4066.69 7050.21C4066.69 7045.76 4063.01 7042.15 4058.54 7042.15H3951.22V6786.46H4628.06V7118.63H4066.69V7050.21Z" fill="#70AE9C" stroke="#3A7D6A" stroke-width="4.17" stroke-miterlimit="1.5" stroke-linecap="round" stroke-linejoin="round"/>
<path d="M3432.52 5768.35H3169.76V6482.03H3432.52V5768.35Z" fill="#5B9785" stroke="#3A7D6A" stroke-width="4.16" stroke-miterlimit="1.5" stroke-linecap="round" stroke-linejoin="round"/>
<path d="M3267.57 6087.31H3143.63V6298.98H3267.57V6087.31Z" fill="#CE6261" stroke="#D45756" stroke-width="4.16" stroke-miterlimit="1.5" stroke-linecap="round" stroke-linejoin="round"/>
<path d="M2069.43 6225.67H1700.88V6336.18H2069.43V6225.67Z" fill="#F3F3F3" stroke="#808080" stroke-width="4.17" stroke-miterlimit="1.5" stroke-linecap="round" stroke-linejoin="round"/>
<path d="M2069.58 6117.95H1701.03V6228.39H2069.58V6117.95Z" fill="#CE6261" stroke="#CE6261" stroke-width="4.17" stroke-miterlimit="1.5" stroke-linecap="round" stroke-linejoin="round"/>
<path fill-rule="evenodd" clip-rule="evenodd" d="M3254.7 5707.09V6336.1H2186.03V6274.38H2069.92V6118.35H1700.79V6252.73H1252.5V6530.37L1375.01 6554.75V6745.8H759.109V6006.96L850.11 5991.19V5738.72H759.109V4867.23H1398.2V5503.36H1252.5V5806.52H1656.49V5707.09H2161.72V5806.52H2228.73L2216.74 5892.7H2398.58L2386.59 5806.52H2453.6V5707.09H3254.7Z" fill="#F09796" stroke="#CE6261" stroke-width="4.17" stroke-miterlimit="1.5" stroke-linecap="round" stroke-linejoin="round"/>
<path fill-rule="evenodd" clip-rule="evenodd" d="M783.099 4891.11H1374.37V5479.48H1252.5C1239.39 5479.48 1228.67 5490.18 1228.67 5503.36V5806.52C1228.67 5819.69 1239.39 5830.39 1252.5 5830.39H1656.49C1661.13 5830.39 1665.61 5829.03 1669.29 5826.7C1675.85 5822.48 1680.32 5815.01 1680.32 5806.52V5730.96H2137.89V5806.52C2137.89 5819.69 2148.61 5830.39 2161.72 5830.39H2201.38L2193.07 5889.43C2192.11 5896.27 2194.19 5903.18 2198.83 5908.39C2203.3 5913.59 2209.86 5916.58 2216.74 5916.58H2398.58C2405.46 5916.58 2412.02 5913.59 2416.49 5908.39C2421.13 5903.18 2423.21 5896.27 2422.25 5889.43L2413.93 5830.39H2453.6C2466.71 5830.39 2477.43 5819.69 2477.43 5806.52V5730.96H3230.71V6312.21H2209.86V6274.38C2209.86 6261.19 2199.14 6250.51 2186.03 6250.51H2093.75V6118.35C2093.75 6105.16 2083.03 6094.48 2069.92 6094.48H1700.63C1687.52 6094.56 1676.8 6105.22 1676.8 6118.35V6228.85H1252.5C1239.39 6228.85 1228.67 6239.53 1228.67 6252.73V6530.37C1228.67 6541.76 1236.67 6551.56 1247.86 6553.79L1351.18 6574.34V6721.92H783.099V6027.06L854.109 6014.72C865.624 6012.73 873.941 6002.8 873.941 5991.19V5738.72C873.941 5725.53 863.225 5714.83 850.11 5714.83H783.099V4891.11Z" fill="#CE6261" stroke="#CE6261" stroke-width="4.17" stroke-miterlimit="1.5" stroke-linecap="round" stroke-linejoin="round"/>
<path fill-rule="evenodd" clip-rule="evenodd" d="M1498.59 6022.06L1677.45 6171.08V6228.39H1237.18V6154.8L1093.49 6022.06H1498.59Z" fill="#D45756" stroke="#CE6261" stroke-width="4.14" stroke-miterlimit="1.5" stroke-linecap="round" stroke-linejoin="round"/>
<path fill-rule="evenodd" clip-rule="evenodd" d="M1077.95 6721.93H783.011V6027.08L853.874 6014.74C865.365 6012.73 873.664 6002.79 873.664 5991.19V5738.72C873.664 5725.52 863.45 5714.83 850.043 5714.83H783.011V4891.11H1077.95V6721.93Z" fill="#E46E6D" stroke="#CE6261" stroke-width="4.18" stroke-miterlimit="1.5" stroke-linecap="round" stroke-linejoin="round"/>
<path fill-rule="evenodd" clip-rule="evenodd" d="M1669.29 5826.7C1675.85 5822.48 1680.32 5815.01 1680.32 5806.52V5730.96H1682.24L1926.3 6022.06H3088.37L3228.95 6312.21H2209.86V6274.38C2209.86 6261.19 2199.14 6250.51 2186.03 6250.51H2093.75V6118.35C2093.75 6105.16 2083.03 6094.48 2069.92 6094.48H1700.63V6092.72L1618.43 6022.06H1833.06L1669.29 5826.7Z" fill="#D45756" stroke="#CE6261" stroke-width="4.17" stroke-miterlimit="1.5" stroke-linecap="round" stroke-linejoin="round"/>
<path fill-rule="evenodd" clip-rule="evenodd" d="M1078.46 5033.52L1374.16 4891.11H782.986L1078.46 5033.52Z" fill="#D45756" stroke="#CE6261" stroke-width="4.17" stroke-miterlimit="1.5" stroke-linecap="round" stroke-linejoin="round"/>
<path fill-rule="evenodd" clip-rule="evenodd" d="M3088.34 6021.91L3230.75 6312.13V5731.91L3088.34 6021.91Z" fill="#E46E6D" stroke="#CE6261" stroke-width="4.17" stroke-miterlimit="1.5" stroke-linecap="round" stroke-linejoin="round"/>
<path fill-rule="evenodd" clip-rule="evenodd" d="M1078.57 6579.51L782.868 6721.92H1350.85L1078.57 6579.51Z" fill="#D45756" stroke="#CE6261" stroke-width="4.17" stroke-miterlimit="1.5" stroke-linecap="round" stroke-linejoin="round"/>
<path d="M3263.1 6417.37H3040.49V6614.76H3263.1V6417.37Z" fill="#70AE9C" stroke="#3A7D6A" stroke-width="4.17" stroke-miterlimit="1.5" stroke-linecap="round" stroke-linejoin="round"/>
<path d="M3040.36 6336.2H2309.51V6482.04H3040.36V6336.2Z" fill="#70AE9C" stroke="#3A7D6A" stroke-width="4.15" stroke-miterlimit="1.5" stroke-linecap="round" stroke-linejoin="round"/>
<path d="M3040.58 6482.04H2309.73V6652.41H3040.58V6482.04Z" fill="#5B9785" stroke="#3A7D6A" stroke-width="4.17" stroke-miterlimit="1.5" stroke-linecap="round" stroke-linejoin="round"/>
<path fill-rule="evenodd" clip-rule="evenodd" d="M3040.62 6567.22V6336.2H3169.53V6453.19H3138.18V6567.22H3040.62Z" fill="white" stroke="#CDCDCD" stroke-width="4.17" stroke-miterlimit="1.5" stroke-linecap="round" stroke-linejoin="round"/>
<path fill-rule="evenodd" clip-rule="evenodd" d="M3048.14 6559.61V6343.79H3162.01V6445.58H3138.18C3133.86 6445.58 3130.5 6448.98 3130.5 6453.19V6559.61H3048.14Z" fill="#E6E6E6" stroke="#CDCDCD" stroke-width="4.17" stroke-miterlimit="1.5" stroke-linecap="round" stroke-linejoin="round"/>
</g>
<defs>
<clipPath id="clip0_169_3108">
<rect width="8337" height="8259" fill="white"/>
</clipPath>
</defs>
</svg>
