<svg width="29" height="30" viewBox="0 0 29 30" fill="none" xmlns="http://www.w3.org/2000/svg">
<path d="M14.5 15.9678V2.67615L24.1667 7.50948L14.5 12.3428" stroke="#7F1532" stroke-width="2" stroke-linecap="round" stroke-linejoin="round"/>
<path d="M24.8446 12.6111C25.4876 14.5929 25.5477 16.7178 25.0179 18.7328C24.488 20.7478 23.3905 22.5683 21.8558 23.9775C20.3211 25.3867 18.4139 26.3254 16.3611 26.6819C14.3083 27.0384 12.1963 26.7977 10.2764 25.9884C8.3564 25.1791 6.70935 23.8353 5.53114 22.1169C4.35293 20.3985 3.69317 18.3778 3.63034 16.2952C3.56752 14.2126 4.10428 12.1558 5.17676 10.3695C6.24924 8.58317 7.8123 7.14254 9.67997 6.21899" stroke="#7F1532" stroke-width="2" stroke-linecap="round" stroke-linejoin="round"/>
<path d="M9.6691 12.3392C9.06361 13.1452 8.66942 14.0899 8.52245 15.0872C8.37547 16.0845 8.48038 17.1028 8.82762 18.0492C9.17486 18.9955 9.75339 19.84 10.5105 20.5056C11.2676 21.1712 12.1792 21.6368 13.1623 21.8599C14.1454 22.083 15.1687 22.0566 16.1389 21.7831C17.1092 21.5095 17.9956 20.9976 18.7174 20.2938C19.4391 19.59 19.9733 18.7168 20.2713 17.7538C20.5692 16.7908 20.6215 15.7685 20.4233 14.7801" stroke="#7F1532" stroke-width="2" stroke-linecap="round" stroke-linejoin="round"/>
</svg>
