<svg width="24" height="24" viewBox="0 0 24 24" fill="none" xmlns="http://www.w3.org/2000/svg">
<path d="M12 22C17.5228 22 22 17.5228 22 12C22 6.47715 17.5228 2 12 2C6.47715 2 2 6.47715 2 12C2 17.5228 6.47715 22 12 22Z" stroke="black" stroke-width="2" stroke-linecap="round" stroke-linejoin="round"/>
<path d="M2.09998 13.4C3.63047 13.5958 5.18549 13.4383 6.64566 12.9397C8.10584 12.441 9.43236 11.6144 10.5234 10.5234C11.6144 9.43236 12.441 8.10584 12.9397 6.64566C13.4383 5.18549 13.5958 3.63047 13.4 2.09998M4.99998 4.89998L19 19.1M21.9 10.6C20.3695 10.4042 18.8145 10.5616 17.3543 11.0603C15.8941 11.5589 14.5676 12.3855 13.4765 13.4765C12.3855 14.5676 11.5589 15.8941 11.0603 17.3543C10.5616 18.8145 10.4042 20.3695 10.6 21.9" stroke="black" stroke-width="2" stroke-linecap="round" stroke-linejoin="round"/>
</svg>
