<svg width="29" height="30" viewBox="0 0 29 30" fill="none" xmlns="http://www.w3.org/2000/svg">
<path d="M21.75 2.67615H7.25001C5.91532 2.67615 4.83334 3.75813 4.83334 5.09281V24.4261C4.83334 25.7608 5.91532 26.8428 7.25001 26.8428H21.75C23.0847 26.8428 24.1667 25.7608 24.1667 24.4261V5.09281C24.1667 3.75813 23.0847 2.67615 21.75 2.67615Z" stroke="#7F1532" stroke-width="2" stroke-linecap="round" stroke-linejoin="round"/>
<path d="M10.875 26.8429V22.0095H18.125V26.8429M9.66669 7.50952H9.67877M19.3334 7.50952H19.3454M14.5 7.50952H14.5121M14.5 12.3429H14.5121M14.5 17.1762H14.5121M19.3334 12.3429H19.3454M19.3334 17.1762H19.3454M9.66669 12.3429H9.67877M9.66669 17.1762H9.67877" stroke="#7F1532" stroke-width="2" stroke-linecap="round" stroke-linejoin="round"/>
</svg>
