<svg width="24" height="24" viewBox="0 0 24 24" fill="none" xmlns="http://www.w3.org/2000/svg">
<path d="M12.338 21.9939C10.2946 22.0629 8.27905 21.5039 6.5631 20.3921C4.84715 19.2803 3.51324 17.6693 2.7411 15.7761C1.96896 13.8828 1.79571 11.7984 2.2447 9.8037C2.69369 7.80898 3.74333 5.99982 5.25219 4.62002C6.76105 3.24022 8.6566 2.35609 10.6834 2.08677C12.7102 1.81745 14.7709 2.17589 16.5877 3.11378C18.4045 4.05168 19.8902 5.52394 20.8445 7.3322C21.7989 9.14045 22.176 11.1978 21.925 13.2269" stroke="black" stroke-width="2" stroke-linecap="round" stroke-linejoin="round"/>
<path d="M12 6V12L14 13M14 18L18 22M18 22L22 18M18 22V14" stroke="black" stroke-width="2" stroke-linecap="round" stroke-linejoin="round"/>
</svg>
