<svg width="24" height="25" viewBox="0 0 24 25" fill="none" xmlns="http://www.w3.org/2000/svg">
<path d="M12.3379 22.494C10.2944 22.563 8.27893 22.0039 6.56298 20.8922C4.84703 19.7804 3.51311 18.1694 2.74098 16.2761C1.96884 14.3829 1.79559 12.2985 2.24458 10.3038C2.69357 8.30904 3.74321 6.49989 5.25207 5.12008C6.76093 3.74028 8.65648 2.85615 10.6833 2.58683C12.7101 2.31752 14.7708 2.67595 16.5876 3.61384C18.4044 4.55174 19.8901 6.02401 20.8444 7.83226C21.7987 9.64051 22.1758 11.6978 21.9249 13.727" stroke="#008CFF" stroke-width="2" stroke-linecap="round" stroke-linejoin="round"/>
<path d="M12 6.5V12.5L14 13.5M14 18.5L18 22.5M18 22.5L22 18.5M18 22.5V14.5" stroke="#008CFF" stroke-width="2" stroke-linecap="round" stroke-linejoin="round"/>
</svg>
