<svg width="24" height="24" viewBox="0 0 24 24" fill="none" xmlns="http://www.w3.org/2000/svg">
<path d="M12 22C17.5228 22 22 17.5228 22 12C22 6.47715 17.5228 2 12 2C6.47715 2 2 6.47715 2 12C2 17.5228 6.47715 22 12 22Z" stroke="black" stroke-width="2" stroke-linecap="round" stroke-linejoin="round"/>
<path d="M11.9 6.7C11.9 6.7 8.9 8 6.9 10.3C6.9 10.3 6.9 13.9 8.8 16.2C8.8 16.2 11.9 16.9 15 16.2C15 16.2 16.9 13.9 16.9 10.3C16.9 10.4 14.9 8 11.9 6.7ZM11.9 6.7V2M16.9 10.4C16.9 10.4 19.9 9 21.4 8.8M15 16.3C15 16.3 16.9 19 17.9 20M8.8 16.3C8.8 16.3 6.9 19 6 20" stroke="black" stroke-width="2" stroke-linecap="round" stroke-linejoin="round"/>
<path d="M2.59998 8.69995C3.99998 8.99995 6.99998 10.4 6.99998 10.4" stroke="black" stroke-width="2" stroke-linecap="round" stroke-linejoin="round"/>
</svg>
