<svg width="24" height="24" viewBox="0 0 24 24" fill="none" xmlns="http://www.w3.org/2000/svg">
<path d="M11.525 2.29502C11.5688 2.20648 11.6365 2.13195 11.7204 2.07984C11.8044 2.02773 11.9012 2.00012 12 2.00012C12.0988 2.00012 12.1956 2.02773 12.2795 2.07984C12.3634 2.13195 12.4311 2.20648 12.475 2.29502L14.785 6.97402C14.9369 7.28214 15.1615 7.54871 15.4394 7.75078C15.7172 7.95286 16.04 8.08437 16.38 8.13402L21.546 8.89002C21.6439 8.9042 21.7358 8.94549 21.8115 9.00921C21.8871 9.07294 21.9434 9.15656 21.974 9.25062C22.0046 9.34468 22.0082 9.44542 21.9846 9.54145C21.9609 9.63748 21.9108 9.72497 21.84 9.79402L18.104 13.432C17.8574 13.672 17.6729 13.9683 17.5664 14.2955C17.46 14.6227 17.4348 14.9709 17.493 15.31L18.375 20.45C18.3922 20.5479 18.3817 20.6486 18.3445 20.7407C18.3073 20.8328 18.2449 20.9126 18.1645 20.971C18.0841 21.0294 17.9889 21.064 17.8898 21.0709C17.7907 21.0778 17.6917 21.0567 17.604 21.01L12.986 18.582C12.6817 18.4221 12.3432 18.3385 11.9995 18.3385C11.6558 18.3385 11.3172 18.4221 11.013 18.582L6.39597 21.01C6.3083 21.0564 6.20937 21.0773 6.11042 21.0703C6.01147 21.0632 5.91649 21.0286 5.83626 20.9702C5.75604 20.9119 5.6938 20.8322 5.65662 20.7402C5.61945 20.6483 5.60883 20.5477 5.62597 20.45L6.50697 15.311C6.56534 14.9717 6.54021 14.6234 6.43375 14.296C6.3273 13.9686 6.14272 13.6721 5.89597 13.432L2.15997 9.79502C2.08856 9.72605 2.03796 9.63841 2.01393 9.54209C1.9899 9.44577 1.99341 9.34463 2.02405 9.25021C2.05469 9.15578 2.11124 9.07186 2.18725 9.008C2.26326 8.94414 2.35567 8.90291 2.45397 8.88902L7.61897 8.13402C7.95928 8.08468 8.28248 7.9533 8.56071 7.75121C8.83893 7.54912 9.06381 7.28239 9.21597 6.97402L11.525 2.29502Z" stroke="black" stroke-width="2" stroke-linecap="round" stroke-linejoin="round"/>
</svg>
