<svg width="24" height="24" viewBox="0 0 24 24" fill="none" xmlns="http://www.w3.org/2000/svg">
<path d="M11.1 7.09998C15.0972 7.07325 18.969 8.49408 22 11.1M12 12C10.9697 13.3849 9.66583 14.5433 8.16926 15.4034C6.67268 16.2635 5.01534 16.8069 3.30005 17M16.8 13.6C14.8148 17.1137 11.6141 19.7809 7.80005 21.1" stroke="black" stroke-width="2" stroke-linecap="round" stroke-linejoin="round"/>
<path d="M20.7 17C19.6614 15.6235 18.3554 14.4711 16.8604 13.6119C15.3653 12.7527 13.7121 12.2044 12 12C10.6991 8.79358 10.6991 5.20642 12 2M6.29997 3.8C5.51781 7.7369 6.19305 11.8239 8.19997 15.3" stroke="black" stroke-width="2" stroke-linecap="round" stroke-linejoin="round"/>
<path d="M12 22C17.5228 22 22 17.5228 22 12C22 6.47715 17.5228 2 12 2C6.47715 2 2 6.47715 2 12C2 17.5228 6.47715 22 12 22Z" stroke="black" stroke-width="2" stroke-linecap="round" stroke-linejoin="round"/>
</svg>
